<svg xmlns="http://www.w3.org/2000/svg" width="865.76" height="682.89" viewBox="0 0 865.76 682.89"><path d="M685.8,558.33a4.73,4.73,0,0,1-.61,2.27h0a6.69,6.69,0,0,1-1.24,1.7,18.38,18.38,0,0,1-8.29,4.26l-1,.25a38.31,38.31,0,0,1-8.4.9,37.91,37.91,0,0,1-7.13-.65l-1-.19-.33-.07a29.28,29.28,0,0,1-4.09-1.26,19.06,19.06,0,0,1-3.6-1.9,6.82,6.82,0,0,1-3.45-5.34l3.47-105,.31-9.51h0l.39-12.17h0l.3-8.67h0l.29-9.35.59-17.93h28.44Z" fill="#8b5e3c"/><g opacity="0.5" style="isolation:isolate"><path d="M685.8,558.33a4.73,4.73,0,0,1-.61,2.27h0a6.69,6.69,0,0,1-1.24,1.7,18.38,18.38,0,0,1-8.29,4.26l-1,.25a38.31,38.31,0,0,1-8.4.9,37.91,37.91,0,0,1-7.13-.65l-1-.19-.33-.07a29.28,29.28,0,0,1-4.09-1.26,19.06,19.06,0,0,1-3.6-1.9,6.82,6.82,0,0,1-3.45-5.34l3.47-105,.31-9.51h0l.39-12.17h0l.3-8.67h0l.29-9.35.59-17.93h28.44Z"/></g><g opacity="0.2"><path d="M659.37,419.38c-8.48,22.59-.74,47-.24,70.42a.1.1,0,1,0,.19,0c-.2-23.32-6.85-47.57.7-70.09C660.18,419.26,659.55,418.93,659.37,419.38Z"/><path d="M661.85,410.28c0-.08-.15,0-.11.08,7.23,14.75,3,36.34,1.86,52.49-1.18,18.82-2.55,37.64-3.51,56.49,0,.59.69.57.74,0,1.69-20.4,2.95-40.87,4.42-61.3C666.29,442.34,669.35,424.23,661.85,410.28Z"/><path d="M663.17,435.41c0-.27-.31-.27-.34,0-.19,3.39-.42,6.77-.9,10.11-.63,4.55-.73,6.7-1.13-.14a88.89,88.89,0,0,1,1.77-19.8c0-.17-.19-.31-.25-.13-3,8.25-3.05,18-1.62,26.71a.4.4,0,0,0,.4.4.41.41,0,0,0,.39-.4A69.4,69.4,0,0,0,663.17,435.41Z"/><path d="M669.66,492.61c.44-10.81.81-21.47-.76-32.18,0-.25-.37-.19-.36,0,.9,11.8.31,23.6-.13,35.4-.41,10.9-.89,22.5,1.65,33.09.15.58.77.33.71-.23A228.84,228.84,0,0,1,669.66,492.61Z"/><path d="M665.84,557.52c-3.09-19.72,0-39.13-1.13-58.9a.1.1,0,1,0-.19,0c-.59,19.34-3.68,40.15.75,59.09C665.37,558.18,665.92,558,665.84,557.52Z"/><path d="M669.31,538.33c0-.1-.15-.07-.13,0a176.76,176.76,0,0,1,2.06,25.49c0,.39.56.54.61.1A67.11,67.11,0,0,0,669.31,538.33Z"/><path d="M654.69,528.3c.67-11.46,2.7-22.75,2.81-34.26,0-.23-.31-.31-.34,0-2.64,23.48-5.78,46.77-2.79,70.5,0,.54.81.41.78-.13A332.05,332.05,0,0,1,654.69,528.3Z"/><path d="M659.12,567.09l-1-.19c.48-13.35.49-26.31-.25-39.73,0-.22.25-.27.28,0A167.69,167.69,0,0,1,659.12,567.09Z"/><path d="M674.43,451.3c-1.26-14.37-1.95-27.85.29-42.2,0-.25-.26-.36-.31-.11a136.69,136.69,0,0,0-1.27,39c1.37,14.33.33,28.22.22,42.57,0,.34.46.45.51.08A199.68,199.68,0,0,0,674.43,451.3Z"/><path d="M670.4,453.89c0,.51-.59.5-.63,0-1.82-19.56,1.68-38.91-1.14-58.38h.81C673.47,414.38,669,434.68,670.4,453.89Z"/><path d="M677.38,503.84c0-.24-.34-.18-.34,0,.32,6.13.45,12.15-1.1,18-1.84-7.37-2.68-19.08,1.2-25.45.1-.18-.12-.37-.24-.22-4.83,6-4,19.35-1.28,26.44a.21.21,0,0,0,.13.13.36.36,0,0,0,.36.36.36.36,0,0,0,.35-.36A46.32,46.32,0,0,0,677.38,503.84Z"/><path d="M678.61,476.41a.09.09,0,1,0-.16-.08.11.11,0,0,0,0,.08c1.09,14.48,2.27,29.34,1.26,43.87-1,13.41-3.69,27-1.48,40.44.09.56.75.31.68-.24-1.73-14.83,1.27-29,2-43.74C681.56,503.11,680.12,489.84,678.61,476.41Z"/><path d="M675.66,566.53l-1,.25V552.21c-.1-8-.44-16,0-24,0-.18.22-.18.24,0,.66,7.95.5,16,.56,24C675.47,557,675.64,561.81,675.66,566.53Z"/><path d="M685.21,560.63h0a7.64,7.64,0,0,1-1.24,1.7c-.44-10.22-1.83-20.44-.77-30.62,0-.13.18-.15.18,0C682.76,541.27,684.91,551,685.21,560.63Z"/><path d="M653.35,476.1c0-.3-.38-.31-.38,0,1,24.14-5.41,47.82-4.21,71.94,0,.29.37.29.39,0C650,524,654.83,500.16,653.35,476.1Z"/><path d="M650.4,443.77a120.78,120.78,0,0,0,3.16,22.47c0,.17-.16.27-.21.11a66.48,66.48,0,0,1-3.24-13.11Z"/><path d="M651.38,427.22c-.23,1.48-.4,2.86-.55,4.28l.28-8.67h0c1.56-9.06,3.64-17.94,4.16-27.29h.78C655.93,406.29,653,416.69,651.38,427.22Z"/><path d="M666.89,415c0,.22-.25.22-.28,0-.63-6.06-.89-13.08-2-19.53h.68A117.27,117.27,0,0,1,666.89,415Z"/><path d="M658.35,413.05c0,.25-.35.15-.31-.12a98.52,98.52,0,0,0,1-17.42h.8A80.61,80.61,0,0,1,658.35,413.05Z"/><path d="M679.25,462a.18.18,0,1,1-.36,0c1.21-13.18-.9-26-1-39.11-.09-9.1.47-18.2.38-27.28h.68c.29,8.68-.16,17.39-.15,26.15C678.79,435.05,680.94,448.62,679.25,462Z"/></g><polygon points="698.3 505.18 634.22 505.18 642.87 568.86 688.44 568.86 698.3 505.18" fill="#c7404e"/><g opacity="0.1" style="isolation:isolate"><polygon points="698.3 505.18 696.37 517.7 636.29 520.4 634.24 505.18 698.3 505.18"/></g><rect x="628.32" y="497.7" width="75.89" height="12.85" fill="#c7404e"/><path d="M788.56,370.71c11.21,21.19,22,27.53,33.62,37.66,1.48,1.26-43-10.22-53.84-24.46a536,536,0,0,0,12.74,56.41c.42,1.47-45.72-27.33-59.58-46.55a261.62,261.62,0,0,0,.81,66.63c.22,1.76-29.76-39.27-42.55-59.33-5.13,24-10.22,48-15.45,72-.3,1.47-27.51-56.84-31.64-68.54-9.71,18.84-39.61,54.57-39.59,53.1.34-19.74,1.06-39.44,1.72-59.16-12,17.33-47.72,45.35-47.1,44.44,12-17.82,18.82-37.36,19.54-57.36-16,16.7-62.84,38.88-61.88,37.94,22.32-20.65,38.15-44.75,46.84-70.68-11.61,11.45-47.58,23.29-45.72,22.76,1-.3,24.57-19.54,31.72-29.19a304.49,304.49,0,0,0,22.36-34.54c12.37-22.43,21.18-45.83,28.15-69.58.18-.57,151.23-.45,151.39.86,2.95,24.24,20.06,62.06,33.83,84.06,15.07,24.08,26,44.35,65.08,58C840.87,385.93,803.46,379.13,788.56,370.71Z" fill="#549c47"/><path d="M750.55,279.34q14.21,22.13,28.34,44.25c.78,1.21-35.84-22.12-47.66-37.21a363.24,363.24,0,0,0,11.39,52.5c.34,1.11-34.47-23.26-43.26-39.27a329,329,0,0,0,4.64,59.2c.28,1.63-30.24-34.79-40.58-53.82l-18.71,50.64c-.4,1.11-7.73-35.23-8.48-52.88-7.51,17.17-20.65,32.37-38,44.8-1.18.84,7.68-38.34,6.81-57.37C593.12,308,551.75,334,552.59,333c18-21.31,33.92-42.58,34.12-67.93-10,14.47-51.37,31-50.41,30.22,11.69-10.06,23.42-20.19,32.9-31.56s16-23.48,22.3-35.81c12.34-24.24,25.07-49.17,30.5-75-.81-.65,76.69-1.22,81.67-.1,3.38.73,38.15,122.23,104.43,152.11C809.68,305.64,768.38,291.45,750.55,279.34Z" fill="#549c47"/><g opacity="0.2"><path d="M750.55,279.34q14.21,22.13,28.34,44.25c.78,1.21-35.84-22.12-47.66-37.21a363.24,363.24,0,0,0,11.39,52.5c.34,1.11-34.47-23.26-43.26-39.27a329,329,0,0,0,4.64,59.2c.28,1.63-30.24-34.79-40.58-53.82l-18.71,50.64c-.4,1.11-7.73-35.23-8.48-52.88-7.51,17.17-20.65,32.37-38,44.8-1.18.84,7.68-38.34,6.81-57.37C593.12,308,551.75,334,552.59,333c18-21.31,33.92-42.58,34.12-67.93-10,14.47-51.37,31-50.41,30.22,11.69-10.06,23.42-20.19,32.9-31.56s16-23.48,22.3-35.81c12.34-24.24,25.07-49.17,30.5-75-.81-.65,76.69-1.22,81.67-.1,3.38.73,38.15,122.23,104.43,152.11C809.68,305.64,768.38,291.45,750.55,279.34Z"/></g><path d="M777.66,222.64c1.27.91-45.72-14.41-61.29-29q7.77,20.64,15.53,41.29c.4,1.07-32.45-20.39-40.63-34.95,1.56,26.47-.47,31.36,7.55,57.16.46,1.48-27.93-27.59-38.61-54.14-6.93,18.13-35.91,51-35.4,49.48a135.09,135.09,0,0,0,7.54-57.59c-11.47,20.24-64.73,41.3-63.49,40.37,25.75-20.84,39.33-31.11,47.19-59.3-14.77,18-61.73,25.5-60,24.83,34.12-13.77,59.38-41.47,77.54-67.14,8.85-12.51,17.08-25.7,24.84-38.53.64-1.09,3.74-9.3,8-10.85,5-1.83,8.28-1.08,10.84,3.18C680.83,93.23,718.61,179.9,777.66,222.64Z" fill="#549c47"/><path d="M716.91,169.15a1.47,1.47,0,0,1-1.47-1.48h0a1.47,1.47,0,0,1,1.47-1.47h0a1.47,1.47,0,0,1,1.48,1.47h0a1.48,1.48,0,0,1-1.48,1.48Zm4.43-1.48a1.47,1.47,0,0,1,1.47-1.47h0a1.47,1.47,0,0,1,1.48,1.47h0a1.48,1.48,0,0,1-1.48,1.48h0a1.49,1.49,0,0,1-1.46-1.48ZM711,169a1.47,1.47,0,0,1-1.48-1.47h0a1.48,1.48,0,0,1,1.48-1.48h0a1.47,1.47,0,0,1,1.47,1.48h0A1.47,1.47,0,0,1,711,169Zm-5.9-.29a1.49,1.49,0,0,1-1.38-1.57h0a1.48,1.48,0,0,1,1.57-1.37h0a1.47,1.47,0,0,1,1.37,1.56h0a1.48,1.48,0,0,1-1.48,1.39h-.08Zm-5.9-.48a1.47,1.47,0,0,1-1.32-1.6h0a1.48,1.48,0,0,1,1.61-1.33h0a1.48,1.48,0,0,1,1.33,1.61h0a1.48,1.48,0,0,1-1.48,1.34h-.29Zm-5.9-.66a1.48,1.48,0,0,1-1.27-1.65h0a1.47,1.47,0,0,1,1.65-1.27h0a1.48,1.48,0,0,1,1.27,1.65h0a1.47,1.47,0,0,1-1.48,1.28h-.17Zm-5.9-.89a1.47,1.47,0,0,1-1.21-1.69h0a1.48,1.48,0,0,1,1.7-1.21h0a1.46,1.46,0,0,1,1.2,1.7h0a1.46,1.46,0,0,1-1.47,1.23h0Zm-5.9-1.1a1.48,1.48,0,0,1-1.14-1.74h0a1.48,1.48,0,0,1,1.74-1.16h0a1.47,1.47,0,0,1,1.15,1.74h0a1.49,1.49,0,0,1-1.48,1.17h0a.93.93,0,0,1-.33,0Zm-5.8-1.36a1.48,1.48,0,0,1-1.06-1.78h0a1.48,1.48,0,0,1,1.8-1.07h0a1.47,1.47,0,0,1,1.06,1.78h0a1.47,1.47,0,0,1-1.47,1.12h0a1.15,1.15,0,0,1-.37-.06ZM670,162.63a1.48,1.48,0,0,1-1-1.84h0a1.48,1.48,0,0,1,1.85-1h0a1.48,1.48,0,0,1,1,1.85h0a1.47,1.47,0,0,1-1.47,1h0a1.2,1.2,0,0,1-.42-.07Zm-5.67-1.92a1.48,1.48,0,0,1-.87-1.89h0a1.5,1.5,0,0,1,1.89-.87h0a1.48,1.48,0,0,1,.87,1.89h0a1.46,1.46,0,0,1-1.37,1h0a1.35,1.35,0,0,1-.56-.09Zm-5.54-2.22h0a1.48,1.48,0,0,1-.77-1.94h0a1.47,1.47,0,0,1,2-.75h0a1.47,1.47,0,0,1,.75,1.93h0a1.47,1.47,0,0,1-1.34.88h0a1.28,1.28,0,0,1-.64-.11Zm-5.43-2.57a1.48,1.48,0,0,1-.64-2h0a1.47,1.47,0,0,1,2-.64h0a1.48,1.48,0,0,1,.63,2h0a1.47,1.47,0,0,1-1.31.79h0A1.58,1.58,0,0,1,653.35,155.92ZM648.12,153h0a1.48,1.48,0,0,1-.5-2h0a1.48,1.48,0,0,1,2-.49h0a1.47,1.47,0,0,1,.5,2h0a1.47,1.47,0,0,1-1.27.71h0a1.47,1.47,0,0,1-.79-.22ZM643,149.62a1.48,1.48,0,0,1-.33-2.05h0a1.48,1.48,0,0,1,2.06-.33h0a1.48,1.48,0,0,1,.32,2.05h0a1.47,1.47,0,0,1-1.19.6h0A1.43,1.43,0,0,1,643,149.62Zm-4.71-3.77a1.47,1.47,0,0,1-.11-2.08h0a1.47,1.47,0,0,1,2.07-.14h0a1.47,1.47,0,0,1,.12,2.08h0a1.5,1.5,0,0,1-1.1.51h0a1.56,1.56,0,0,1-.92-.37Zm-4.3-4.27a1.47,1.47,0,0,1,.1-2.08h0a1.47,1.47,0,0,1,2.08.1h0a1.48,1.48,0,0,1-.11,2.08h0a1.51,1.51,0,0,1-1,.38h0a1.44,1.44,0,0,1-1-.49Zm-3.76-5a1.47,1.47,0,0,1,.58-2h0a1.48,1.48,0,0,1,2,.59h0a1.48,1.48,0,0,1-.59,2h0a1.55,1.55,0,0,1-.7.18h0a1.44,1.44,0,0,1-1.23-.77Z" fill="#c7404e"/><path d="M639,207.89a1.47,1.47,0,0,1-1.48-1.47h0a1.48,1.48,0,0,1,1.48-1.48h0a1.47,1.47,0,0,1,1.47,1.48h0a1.47,1.47,0,0,1-1.47,1.47Zm5.9,0a1.47,1.47,0,0,1-1.48-1.47h0a1.48,1.48,0,0,1,1.48-1.48h0a1.47,1.47,0,0,1,1.47,1.48h0A1.47,1.47,0,0,1,644.86,207.89Zm-11.8-.09a1.47,1.47,0,0,1-1.48-1.47h0a1.48,1.48,0,0,1,1.48-1.48h0a1.47,1.47,0,0,1,1.47,1.48h0a1.47,1.47,0,0,1-1.47,1.47Zm16.22-1.47a1.48,1.48,0,0,1,1.48-1.48h0a1.47,1.47,0,0,1,1.47,1.48h0a1.47,1.47,0,0,1-1.47,1.47h0a1.47,1.47,0,0,1-1.46-1.44Zm-22.12,1.27a1.48,1.48,0,0,1-1.48-1.48h0a1.47,1.47,0,0,1,1.48-1.47h0a1.47,1.47,0,0,1,1.47,1.47h0a1.47,1.47,0,0,1-1.47,1.48Zm28-1.48a1.47,1.47,0,0,1,1.47-1.47h0a1.47,1.47,0,0,1,1.48,1.47h0a1.48,1.48,0,0,1-1.48,1.48h0a1.48,1.48,0,0,1-1.47-1.42Zm-33.92,1.2a1.48,1.48,0,0,1-1.48-1.48.17.17,0,0,1,0-.07h0a1.46,1.46,0,0,1,1.47-1.4h0a1.47,1.47,0,0,1,1.48,1.47.17.17,0,0,1,0,.07h0a1.47,1.47,0,0,1-1.47,1.41Zm39.82-1.48a1.48,1.48,0,0,1,1.38-1.56h0a1.48,1.48,0,0,1,1.56,1.38h0a1.48,1.48,0,0,1-1.38,1.57h-.1a1.47,1.47,0,0,1-1.47-1.32ZM615.36,207a1.49,1.49,0,0,1-1.39-1.56h0a1.49,1.49,0,0,1,1.58-1.37h0a1.48,1.48,0,0,1,1.37,1.57h0a1.46,1.46,0,0,1-1.47,1.38h-.09ZM667,205.47a1.47,1.47,0,0,1,1.35-1.59h0a1.47,1.47,0,0,1,1.57,1.36h0a1.47,1.47,0,0,1-1.34,1.57h-.13a1.47,1.47,0,0,1-1.48-1.28Zm-57.52,1.08A1.48,1.48,0,0,1,608.1,205h0a1.49,1.49,0,0,1,1.59-1.36h0a1.47,1.47,0,0,1,1.35,1.58h0a1.45,1.45,0,0,1-1.47,1.37h-.12ZM672.88,205a1.47,1.47,0,0,1,1.31-1.62h0a1.47,1.47,0,0,1,1.61,1.33h0a1.47,1.47,0,0,1-1.31,1.6h-.15a1.48,1.48,0,0,1-1.52-1.25Zm-69.32,1.09a1.47,1.47,0,0,1-1.32-1.59h0a1.47,1.47,0,0,1,1.59-1.34h0a1.47,1.47,0,0,1,1.34,1.59h0a1.48,1.48,0,0,1-1.47,1.35h-.14Zm75.22-1.71a1.46,1.46,0,0,1,1.27-1.65h0A1.47,1.47,0,0,1,681.7,204h0a1.48,1.48,0,0,1-1.28,1.65h-.18a1.48,1.48,0,0,1-1.54-1.22Zm5.9-.77a1.46,1.46,0,0,1,1.23-1.66h0a1.47,1.47,0,0,1,1.67,1.24h0a1.48,1.48,0,0,1-1.23,1.68h-.23a1.47,1.47,0,0,1-1.56-1.2Zm5.89-.88a1.48,1.48,0,0,1,1.2-1.71h0a1.47,1.47,0,0,1,1.71,1.19v0h0a1.47,1.47,0,0,1-1.21,1.69H692a1.47,1.47,0,0,1-1.64-1.13Zm5.8-1a1.49,1.49,0,0,1,1.15-1.74h0a1.48,1.48,0,0,1,1.74,1.15h0a1.48,1.48,0,0,1-1.16,1.74h0a.66.66,0,0,1-.28,0h0a1.47,1.47,0,0,1-1.71-1.09Zm5.78-1.21a1.48,1.48,0,0,1,1.11-1.77h0a1.48,1.48,0,0,1,1.77,1.11h0a1.48,1.48,0,0,1-1.11,1.77h-.34A1.48,1.48,0,0,1,702,200.5Zm5.74-1.37a1.46,1.46,0,0,1,1-1.81h0a1.47,1.47,0,0,1,1.81,1h0a1.48,1.48,0,0,1-1,1.8h0a.86.86,0,0,1-.39,0h0a1.45,1.45,0,0,1-1.6-1Zm5.68-1.58a1.47,1.47,0,0,1,1-1.84h0a1.47,1.47,0,0,1,1.84,1h0a1.48,1.48,0,0,1-1,1.85h0a1.62,1.62,0,0,1-.44,0h0a1.47,1.47,0,0,1-1.59-.92Zm5.62-1.8a1.46,1.46,0,0,1,.9-1.87h0a1.46,1.46,0,0,1,1.88.89h0a1.46,1.46,0,0,1-.89,1.88h0a1.32,1.32,0,0,1-.48.09h0a1.48,1.48,0,0,1-1.6-.93Zm5.54-2a1.48,1.48,0,0,1,.8-1.92h0a1.47,1.47,0,0,1,1.91.8h0a1.47,1.47,0,0,1-.79,1.93h0a1.35,1.35,0,0,1-.56.1h0a1.47,1.47,0,0,1-1.55-.85Zm5.41-2.32a1.47,1.47,0,0,1,.68-2h0a1.47,1.47,0,0,1,2,.66h0a1.47,1.47,0,0,1-.66,2h0a1.32,1.32,0,0,1-.65.14h0a1.46,1.46,0,0,1-1.52-.75Zm5.27-2.68a1.47,1.47,0,0,1,.35-2h0a1.47,1.47,0,0,1,2,.35h0a1.47,1.47,0,0,1-.37,2h0a1.34,1.34,0,0,1-.84.27h0a1.47,1.47,0,0,1-1.38-.56Z" fill="#c7404e"/><path d="M736,268.06a1.47,1.47,0,0,1-1.47-1.47h0a1.47,1.47,0,0,1,1.47-1.48h0a1.48,1.48,0,0,1,1.48,1.48h0A1.47,1.47,0,0,1,736,268.06Zm4.43-1.47a1.47,1.47,0,0,1,1.47-1.48h0a1.48,1.48,0,0,1,1.48,1.48h0a1.47,1.47,0,0,1-1.48,1.47h0A1.47,1.47,0,0,1,740.47,266.59ZM730.14,268a1.47,1.47,0,0,1-1.47-1.48h0a1.47,1.47,0,0,1,1.47-1.47h0a1.47,1.47,0,0,1,1.48,1.47h0a1.48,1.48,0,0,1-1.48,1.48Zm16.23-1.48a1.47,1.47,0,0,1,1.47-1.47h0a1.47,1.47,0,0,1,1.48,1.47h0a1.48,1.48,0,0,1-1.48,1.48h0a1.47,1.47,0,0,1-1.47-1.48Zm-22.13,1.33a1.47,1.47,0,0,1-1.47-1.47h0a1.47,1.47,0,0,1,1.47-1.48h0a1.48,1.48,0,0,1,1.48,1.48h0a1.47,1.47,0,0,1-1.48,1.47Zm28-1.47a1.47,1.47,0,0,1,1.47-1.48h0a1.47,1.47,0,0,1,1.47,1.48h0a1.47,1.47,0,0,1-1.47,1.47h0a1.47,1.47,0,0,1-1.47-1.47Zm-35.4-.3a1.47,1.47,0,0,1,1.48-1.47h0a1.47,1.47,0,0,1,1.47,1.47h0a1.47,1.47,0,0,1-1.47,1.48h-.08a1.47,1.47,0,0,1-1.38-1.48Zm41.29,0a1.47,1.47,0,0,1,1.48-1.47h0a1.47,1.47,0,0,1,1.47,1.4h0a1.47,1.47,0,0,1-1.4,1.54h-.07a1.48,1.48,0,0,1-1.48-1.41Zm-45.71,1.15a1.47,1.47,0,0,1-1.39-1.56h0a1.47,1.47,0,0,1,1.56-1.37h0a1.46,1.46,0,0,1,1.37,1.56h0a1.47,1.47,0,0,1-1.47,1.39h-.18Zm-5.9-.4a1.47,1.47,0,0,1-1.36-1.57h0a1.48,1.48,0,0,1,1.58-1.36h0a1.47,1.47,0,0,1,1.35,1.58h0a1.47,1.47,0,0,1-1.47,1.37h-.21Zm-5.9-.48a1.48,1.48,0,0,1-1.34-1.6h0a1.47,1.47,0,0,1,1.59-1.34h0a1.49,1.49,0,0,1,1.35,1.6h0a1.48,1.48,0,0,1-1.48,1.34h-.13Zm-5.9-.58a1.47,1.47,0,0,1-1.3-1.62h0a1.47,1.47,0,0,1,1.61-1.31h0a1.47,1.47,0,0,1,1.31,1.62h0a1.48,1.48,0,0,1-1.47,1.33h-.25Zm-5.9-.66a1.47,1.47,0,0,1-1.28-1.64h0a1.47,1.47,0,0,1,1.63-1.3h0a1.47,1.47,0,0,1,1.3,1.63v0h0a1.46,1.46,0,0,1-1.47,1.3h-.18Zm-5.9-.77a1.46,1.46,0,0,1-1.25-1.65h0a1.47,1.47,0,0,1,1.65-1.27h0a1.48,1.48,0,0,1,1.27,1.66h0a1.5,1.5,0,0,1-1.48,1.27h-.2Zm-5.9-.84a1.48,1.48,0,0,1-1.24-1.68v0h0a1.48,1.48,0,0,1,1.68-1.22h0a1.47,1.47,0,0,1,1.24,1.68h0a1.47,1.47,0,0,1-1.47,1.25h-.21Zm-5.9-1a1.47,1.47,0,0,1-1.19-1.71h0a1.47,1.47,0,0,1,1.69-1.19h0a1.46,1.46,0,0,1,1.21,1.69h0a1.47,1.47,0,0,1-1.47,1.23h-.25Zm-5.9-1h0a1.46,1.46,0,0,1-1.18-1.71h0a1.48,1.48,0,0,1,1.72-1.18h0A1.48,1.48,0,0,1,667,260.3h0a1.47,1.47,0,0,1-1.48,1.21h0Zm-5.81-1.15a1.46,1.46,0,0,1-1.15-1.73v0h0a1.47,1.47,0,0,1,1.75-1.14h0a1.47,1.47,0,0,1,1.13,1.74h0a1.46,1.46,0,0,1-1.47,1.18h0Zm-5.79-1.25a1.47,1.47,0,0,1-1.11-1.77h0a1.48,1.48,0,0,1,1.76-1.11h0a1.49,1.49,0,0,1,1.12,1.76h0a1.48,1.48,0,0,1-1.48,1.15h0Zm-5.77-1.37a1.49,1.49,0,0,1-1.08-1.79h0a1.47,1.47,0,0,1,1.79-1.07h0a1.46,1.46,0,0,1,1.07,1.78h0a1.46,1.46,0,0,1-1.47,1.12h0Zm-5.74-1.48a1.46,1.46,0,0,1-1-1.79h0a1.46,1.46,0,0,1,1.79-1.05h0a1.47,1.47,0,0,1,1.05,1.8h0a1.45,1.45,0,0,1-1.47,1.1h0l-.19,0Zm-5.72-1.57a1.48,1.48,0,0,1-1-1.83h0a1.49,1.49,0,0,1,1.83-1h0a1.48,1.48,0,0,1,1,1.83h0a1.5,1.5,0,0,1-1.48,1.07h-.22Zm-5.68-1.7a1.48,1.48,0,0,1-1-1.84h0a1.48,1.48,0,0,1,1.84-1h0a1.48,1.48,0,0,1,1,1.85h0a1.48,1.48,0,0,1-1.48,1h0a.91.91,0,0,1-.23,0Zm-5.65-1.83a1.47,1.47,0,0,1-.92-1.86h0a1.47,1.47,0,0,1,1.86-.93h0a1.48,1.48,0,0,1,.93,1.86h0a1.49,1.49,0,0,1-1.48,1h-.26Zm-5.6-1.95a1.46,1.46,0,0,1-.88-1.88h0a1.47,1.47,0,0,1,1.88-.89h0a1.48,1.48,0,0,1,.89,1.89h0a1.48,1.48,0,0,1-1.39,1h0a1.53,1.53,0,0,1-.37,0Zm-5.56-2.07h0a1.48,1.48,0,0,1-.84-1.91h0a1.47,1.47,0,0,1,1.9-.84h0a1.47,1.47,0,0,1,.84,1.9h0a1.47,1.47,0,0,1-1.38,1h0a1.29,1.29,0,0,1-.39,0ZM608.56,245h0a1.49,1.49,0,0,1-.8-1.93h0a1.46,1.46,0,0,1,1.92-.79h0a1.47,1.47,0,0,1,.8,1.92h0a1.47,1.47,0,0,1-1.38.8h0A1.69,1.69,0,0,1,608.56,245Zm-5.45-2.38h0a1.47,1.47,0,0,1-.75-2h0a1.47,1.47,0,0,1,2-.73h0a1.47,1.47,0,0,1,.72,1.94h0a1.47,1.47,0,0,1-1.34.87h0a1.41,1.41,0,0,1-.6-.19Zm-5.39-2.54a1.47,1.47,0,0,1-.66-2h0a1.47,1.47,0,0,1,2-.68h0a1.48,1.48,0,0,1,.67,2h0a1.48,1.48,0,0,1-1.33.82h0a1.5,1.5,0,0,1-.65-.2Zm-5.29-2.74a1.47,1.47,0,0,1-.59-2h0a1.47,1.47,0,0,1,2-.61h0a1.47,1.47,0,0,1,.6,2h0a1.46,1.46,0,0,1-1.29.77h0a1.47,1.47,0,0,1-.71-.24Zm-5.21-3.05a1.48,1.48,0,0,1-.41-2h0a1.48,1.48,0,0,1,2-.41h0a1.48,1.48,0,0,1,.42,2h0a1.47,1.47,0,0,1-1.23.66h0a1.36,1.36,0,0,1-.81-.31Z" fill="#c7404e"/><path d="M617,306.8a1.47,1.47,0,0,1,1.47-1.47h0a1.47,1.47,0,0,1,1.48,1.47h0a1.48,1.48,0,0,1-1.48,1.48h0A1.47,1.47,0,0,1,617,306.8Zm-4.43,1.48a1.47,1.47,0,0,1-1.47-1.48h0a1.47,1.47,0,0,1,1.47-1.47h0A1.47,1.47,0,0,1,614,306.8h0a1.48,1.48,0,0,1-1.48,1.48Zm10.33-1.48a1.47,1.47,0,0,1,1.47-1.47h0a1.47,1.47,0,0,1,1.48,1.47h0a1.48,1.48,0,0,1-1.48,1.48h0a1.47,1.47,0,0,1-1.47-1.47v0Zm-16.23,1.48a1.47,1.47,0,0,1-1.47-1.48h0a1.47,1.47,0,0,1,1.47-1.47h0a1.47,1.47,0,0,1,1.48,1.47h0a1.48,1.48,0,0,1-1.48,1.48Zm22.13-1.61a1.47,1.47,0,0,1,1.4-1.54h.07a1.48,1.48,0,0,1,1.48,1.48h0a1.47,1.47,0,0,1-1.48,1.47h0a1.47,1.47,0,0,1-1.47-1.47v.07Zm-28,1.37a1.47,1.47,0,0,1-1.48-1.47h0a1.48,1.48,0,0,1,1.48-1.48h0a1.47,1.47,0,0,1,1.47,1.48v.07h0a1.47,1.47,0,0,1-1.47,1.4Zm33.92-1.66A1.47,1.47,0,0,1,636,304.8h0a1.48,1.48,0,0,1,1.56,1.38h0a1.49,1.49,0,0,1-1.38,1.56h-.1a1.48,1.48,0,0,1-1.49-1.46v-.05Zm-39.82,1.31h0a1.48,1.48,0,0,1-1.38-1.57h0a1.48,1.48,0,0,1,1.58-1.37h0a1.46,1.46,0,0,1,1.37,1.57h0a1.47,1.47,0,0,1-1.47,1.37ZM640.64,306a1.47,1.47,0,0,1,1.34-1.59h0a1.47,1.47,0,0,1,1.59,1.35h0a1.47,1.47,0,0,1-1.34,1.59h-.13a1.48,1.48,0,0,1-1.55-1.4v-.09Zm-51.71,1.24a1.46,1.46,0,0,1-1.32-1.6h0a1.46,1.46,0,0,1,1.6-1.33h0a1.48,1.48,0,0,1,1.33,1.61h0a1.48,1.48,0,0,1-1.47,1.34h-.14Zm57.52-1.75a1.48,1.48,0,0,1,1.33-1.61h0a1.46,1.46,0,0,1,1.6,1.33h0a1.47,1.47,0,0,1-1.31,1.61h-.16a1.48,1.48,0,0,1-1.49-1.46h0ZM583,306.6a1.46,1.46,0,0,1-1.29-1.63h0a1.47,1.47,0,0,1,1.63-1.3h0a1.49,1.49,0,0,1,1.3,1.64h0a1.47,1.47,0,0,1-1.47,1.31H583Zm69.32-1.76a1.46,1.46,0,0,1,1.29-1.63h0a1.46,1.46,0,0,1,1.63,1.29h0a1.47,1.47,0,0,1-1.29,1.64h-.18a1.46,1.46,0,0,1-1.52-1.43h0Zm-75.22,1a1.48,1.48,0,0,1-1.25-1.67h0a1.48,1.48,0,0,1,1.65-1.27h0a1.48,1.48,0,0,1,1.27,1.66h0a1.48,1.48,0,0,1-1.47,1.27h-.2Zm81.12-1.74a1.47,1.47,0,0,1,1.25-1.67h0a1.47,1.47,0,0,1,1.66,1.26h0a1.47,1.47,0,0,1-1.25,1.66h-.22a1.47,1.47,0,0,1-1.57-1.38h0Zm-87,.87a1.48,1.48,0,0,1-1.23-1.69h0a1.48,1.48,0,0,1,1.68-1.22h0a1.47,1.47,0,0,1,1.24,1.68h0a1.47,1.47,0,0,1-1.47,1.24h-.22Zm92.8-1.69a1.48,1.48,0,0,1,1.24-1.68h0a1.48,1.48,0,0,1,1.67,1.24h0a1.47,1.47,0,0,1-1.24,1.68h-.22a1.47,1.47,0,0,1-1.49-1.37Zm5.83-.9a1.46,1.46,0,0,1,1.2-1.7h0a1.48,1.48,0,0,1,1.69,1.22h0a1.46,1.46,0,0,1-1.21,1.69h-.25a1.47,1.47,0,0,1-1.49-1.34Zm5.9-1a1.47,1.47,0,0,1,1.18-1.71h0a1.47,1.47,0,0,1,1.71,1.18h0a1.47,1.47,0,0,1-1.18,1.71h-.27a1.48,1.48,0,0,1-1.56-1.31Zm5.79-1.09a1.48,1.48,0,0,1,1.15-1.74h0a1.47,1.47,0,0,1,1.61,1h0a1.47,1.47,0,0,1-1.15,1.74h-.29a1.46,1.46,0,0,1-1.43-1.13Zm5.79-1.18a1.46,1.46,0,0,1,1.12-1.75h0a1.47,1.47,0,0,1,1.75,1.12h0a1.48,1.48,0,0,1-1.12,1.76h-.32a1.49,1.49,0,0,1-1.51-1.27Zm5.76-1.27a1.48,1.48,0,0,1,1.11-1.77h0A1.48,1.48,0,0,1,696,297.2v0h0a1.48,1.48,0,0,1-1.1,1.77h-.34a1.48,1.48,0,0,1-1.57-1.24Zm5.74-1.35a1.48,1.48,0,0,1,1.08-1.79h0a1.48,1.48,0,0,1,1.78,1.08h0a1.47,1.47,0,0,1-1.08,1.78h0a1,1,0,0,1-.35,0h0a1.47,1.47,0,0,1-1.55-1.21Zm5.72-1.48a1.48,1.48,0,0,1,1.06-1.8h0a1.48,1.48,0,0,1,1.8,1.06h0a1.47,1.47,0,0,1-1,1.8H706a1.47,1.47,0,0,1-1.55-1.16Zm5.71-1.47a1.48,1.48,0,0,1,1-1.82h0a1.47,1.47,0,0,1,1.81,1h0a1.47,1.47,0,0,1-1,1.81h0a1.34,1.34,0,0,1-.4,0h0a1.46,1.46,0,0,1-1.53-1.16ZM716,292a1.48,1.48,0,0,1,1-1.83h0a1.47,1.47,0,0,1,1.83,1h0a1.47,1.47,0,0,1-1,1.83h0a1.41,1.41,0,0,1-.41,0h0a1.48,1.48,0,0,1-1.53-1.14Zm5.66-1.7a1.48,1.48,0,0,1,1-1.84h0a1.47,1.47,0,0,1,1.84,1h0a1.48,1.48,0,0,1-1,1.85h0a1.62,1.62,0,0,1-.44,0h0a1.48,1.48,0,0,1-1.52-1.13Zm5.62-1.77a1.48,1.48,0,0,1,.94-1.86h0a1.49,1.49,0,0,1,1.86.93h0a1.48,1.48,0,0,1-.93,1.87h0a1.93,1.93,0,0,1-.48,0h0a1.48,1.48,0,0,1-1.53-1.09Zm5.62-1.86a1.46,1.46,0,0,1,.9-1.87h0a1.48,1.48,0,0,1,1.88.9v0h0a1.47,1.47,0,0,1-.92,1.87h0a1.93,1.93,0,0,1-.48,0h0a1.48,1.48,0,0,1-1.5-1.06Zm5.56-1.94a1.47,1.47,0,0,1,.89-1.89h0a1.47,1.47,0,0,1,1.87.88h0a1.47,1.47,0,0,1-.87,1.89h0a1.37,1.37,0,0,1-.49.09h0a1.47,1.47,0,0,1-1.53-1.12Zm5.56-2a1.48,1.48,0,0,1,.85-1.91h0a1.48,1.48,0,0,1,1.9.86h0a1.47,1.47,0,0,1-.86,1.9h0a1.6,1.6,0,0,1-.53.09h0a1.48,1.48,0,0,1-1.47-1.09Zm5.51-2.13a1.47,1.47,0,0,1,.83-1.91h0a1.45,1.45,0,0,1,1.91.82h0a1.49,1.49,0,0,1-.81,1.93h0a1.74,1.74,0,0,1-.55.11h0a1.49,1.49,0,0,1-1.49-1.08Zm5.47-2.19a1.47,1.47,0,0,1,.8-1.93h0a1.47,1.47,0,0,1,1.93.8h0a1.47,1.47,0,0,1-.79,1.93h0a1.38,1.38,0,0,1-.56.12h0a1.48,1.48,0,0,1-1.49-1.06Zm5.45-2.3a1.47,1.47,0,0,1,.75-1.95h0a1.47,1.47,0,0,1,1.93.77h0a1.47,1.47,0,0,1-.75,1.93h0a1.53,1.53,0,0,1-.59.13h0a1.48,1.48,0,0,1-1.46-1Zm5.28-2.95a1.47,1.47,0,0,1,1.47-1.48h0a1.48,1.48,0,0,1,1.48,1.48h0a1.47,1.47,0,0,1-1.48,1.47h0a1.47,1.47,0,0,1-1.6-1.33,1.36,1.36,0,0,1,0-.35Z" fill="#c7404e"/><path d="M705.2,376.64a1.48,1.48,0,0,1,1.48-1.48h0a1.47,1.47,0,0,1,1.47,1.48h0a1.47,1.47,0,0,1-1.47,1.47h0A1.48,1.48,0,0,1,705.2,376.64Zm5.9,0a1.48,1.48,0,0,1,1.48-1.48h0a1.47,1.47,0,0,1,1.47,1.48h0a1.47,1.47,0,0,1-1.47,1.47h0A1.47,1.47,0,0,1,711.1,376.64ZM700.78,378a1.47,1.47,0,0,1-1.47-1.48h0a1.47,1.47,0,0,1,1.47-1.47h0a1.48,1.48,0,0,1,1.48,1.47h0a1.48,1.48,0,0,1-1.48,1.48ZM717,376.56a1.47,1.47,0,0,1,1.48-1.47h0a1.47,1.47,0,0,1,1.47,1.47h0a1.47,1.47,0,0,1-1.47,1.48h0a1.47,1.47,0,0,1-1.49-1.46v0Zm-22.12,1.31a1.47,1.47,0,0,1-1.47-1.47h0a1.47,1.47,0,0,1,1.47-1.47h0a1.47,1.47,0,0,1,1.48,1.47h0a1.47,1.47,0,0,1-1.48,1.47Zm28-1.47a1.48,1.48,0,0,1,1.4-1.55h0a1.48,1.48,0,0,1,1.55,1.4h0a1.47,1.47,0,0,1-1.4,1.55h-.07a1.47,1.47,0,0,1-1.49-1.46v.06ZM689,377.64h0a1.47,1.47,0,0,1-1.38-1.55h0a1.47,1.47,0,0,1,1.54-1.39h0a1.48,1.48,0,0,1,1.41,1.55v0h0a1.48,1.48,0,0,1-1.48,1.38H689Zm39.82-1.55a1.48,1.48,0,0,1,1.37-1.58h0a1.48,1.48,0,0,1,1.57,1.38h0a1.48,1.48,0,0,1-1.38,1.56h-.1a1.46,1.46,0,0,1-1.47-1.43ZM683,377.26a1.49,1.49,0,0,1-1.36-1.57h0a1.48,1.48,0,0,1,1.57-1.37h0a1.47,1.47,0,0,1,1.35,1.58h0a1.47,1.47,0,0,1-1.47,1.37H683Zm51.62-1.58a1.48,1.48,0,0,1,1.33-1.61h0a1.48,1.48,0,0,1,1.6,1.35h0a1.48,1.48,0,0,1-1.35,1.59h-.13a1.47,1.47,0,0,1-1.44-1.4Zm-57.52,1.1a1.47,1.47,0,0,1-1.34-1.59h0a1.47,1.47,0,0,1,1.59-1.34h0a1.47,1.47,0,0,1,1.34,1.59v0h0a1.48,1.48,0,0,1-1.47,1.34h-.12Zm63.42-1.63a1.48,1.48,0,0,1,1.31-1.63h0a1.49,1.49,0,0,1,1.62,1.32h0a1.47,1.47,0,0,1-1.31,1.62H742a1.47,1.47,0,0,1-1.45-1.37Zm-69.32,1.07a1.47,1.47,0,0,1-1.31-1.62h0a1.47,1.47,0,0,1,1.62-1.31h0a1.47,1.47,0,0,1,1.31,1.62h0a1.47,1.47,0,0,1-1.47,1.31Zm75.22-1.71a1.47,1.47,0,0,1,1.27-1.65h0a1.48,1.48,0,0,1,1.65,1.28h0a1.48,1.48,0,0,1-1.27,1.65h-.19a1.48,1.48,0,0,1-1.5-1.35Zm-81.12,1.05a1.47,1.47,0,0,1-1.3-1.63h0a1.48,1.48,0,0,1,1.63-1.3h0a1.48,1.48,0,0,1,1.28,1.65h0a1.47,1.47,0,0,1-1.48,1.29h-.16Zm86.94-1.8a1.48,1.48,0,0,1,1.25-1.67h0a1.48,1.48,0,0,1,1.61,1.24h0a1.48,1.48,0,0,1-1.25,1.67h-.21a1.48,1.48,0,0,1-1.4-1.3Zm-92.82,1.05a1.48,1.48,0,0,1-1.26-1.67h0a1.47,1.47,0,0,1,1.66-1.25h0a1.46,1.46,0,0,1,1.26,1.65h0a1.46,1.46,0,0,1-1.47,1.28h-.19Zm98.66-1.91a1.47,1.47,0,0,1,1.21-1.69h0a1.47,1.47,0,0,1,1.69,1.21h0a1.48,1.48,0,0,1-1.22,1.7h-.24a1.48,1.48,0,0,1-1.48-1.28ZM653.57,374h0a1.48,1.48,0,0,1-1.24-1.67h0a1.48,1.48,0,0,1,1.68-1.24h0a1.46,1.46,0,0,1,1.24,1.68h0a1.48,1.48,0,0,1-1.47,1.26h-.22ZM764,371.86a1.47,1.47,0,0,1,1.19-1.71h0a1.48,1.48,0,0,1,1.72,1.18h0a1.49,1.49,0,0,1-1.2,1.71h-.26A1.48,1.48,0,0,1,764,371.86ZM647.78,373a1.47,1.47,0,0,1-1.21-1.7h0a1.47,1.47,0,0,1,1.69-1.21h0a1.48,1.48,0,0,1,1.21,1.7h0A1.47,1.47,0,0,1,648,373h0Zm-5.9-1a1.48,1.48,0,0,1-1.2-1.71h0a1.48,1.48,0,0,1,1.71-1.2h0a1.47,1.47,0,0,1,1.18,1.72h0a1.48,1.48,0,0,1-1.48,1.21h0Zm127.8-1.16a1.47,1.47,0,0,1,1.15-1.74h0a1.47,1.47,0,0,1,1.74,1.15h0a1.48,1.48,0,0,1-1.15,1.74h-.29a1.49,1.49,0,0,1-1.43-1.14Zm-133.63,0h0a1.48,1.48,0,0,1-1.17-1.73h0a1.47,1.47,0,0,1,1.74-1.15h0a1.46,1.46,0,0,1,1.16,1.72h0a1.48,1.48,0,0,1-1.47,1.2h0Zm139.41-1.26a1.47,1.47,0,0,1,1.11-1.76h0a1.48,1.48,0,0,1,1.76,1.11h0a1.48,1.48,0,0,1-1.11,1.77h-.34a1.48,1.48,0,0,1-1.41-1Zm-145.2,0h0a1.47,1.47,0,0,1-1.14-1.75h0a1.47,1.47,0,0,1,1.75-1.14h0a1.48,1.48,0,0,1,1.12,1.76h0a1.47,1.47,0,0,1-1.48,1.16h0Zm151-1.38a1.46,1.46,0,0,1,1.07-1.77h0a1.47,1.47,0,0,1,1.79,1.07h0a1.49,1.49,0,0,1-1.08,1.79h-.35a1.48,1.48,0,0,1-1.42-1Zm-156.75.1a1.48,1.48,0,0,1-1.12-1.76h0a1.49,1.49,0,0,1,1.77-1.11h0a1.48,1.48,0,0,1,1.11,1.77h0a1.46,1.46,0,0,1-1.47,1.15h0l-.27.09Zm162.47-1.48a1.48,1.48,0,0,1,1-1.81h0a1.47,1.47,0,0,1,1.8,1.05h0a1.48,1.48,0,0,1-1,1.8h0a1.27,1.27,0,0,1-.39,0h0a1.47,1.47,0,0,1-1.4-1Zm-168.23.17a1.48,1.48,0,0,1-1.09-1.78h0a1.46,1.46,0,0,1,1.78-1.07h0a1.47,1.47,0,0,1,1.09,1.77h0A1.46,1.46,0,0,1,619,367h0Zm173.92-1.71a1.47,1.47,0,0,1,1-1.83h0a1.48,1.48,0,0,1,1.83,1h0a1.48,1.48,0,0,1-1,1.83h0a1.41,1.41,0,0,1-.41,0h0a1.49,1.49,0,0,1-1.41-.92ZM613,365.47h0a1.47,1.47,0,0,1-1.05-1.8h0a1.47,1.47,0,0,1,1.78-1.06h0a1.48,1.48,0,0,1,1.07,1.8h0a1.49,1.49,0,0,1-1.48,1.11h0ZM607.23,364h0a1.48,1.48,0,0,1-1-1.81h0a1.48,1.48,0,0,1,1.81-1h0a1.47,1.47,0,0,1,1.11,1.76.36.36,0,0,1,0,.1h0a1.48,1.48,0,0,1-1.48,1.09h0a1.22,1.22,0,0,1-.38-.07Zm-5.7-1.61a1.49,1.49,0,0,1-1-1.83h0a1.48,1.48,0,0,1,1.83-1h0a1.48,1.48,0,0,1,1,1.83h0a1.48,1.48,0,0,1-1.48,1.06h0a2,2,0,0,1-.34,0Zm-5.7-1.65h0a1.49,1.49,0,0,1-1-1.84h0a1.47,1.47,0,0,1,1.84-1h0a1.47,1.47,0,0,1,1,1.83h0a1.49,1.49,0,0,1-1.48,1.05h0A2.38,2.38,0,0,1,595.83,360.74ZM590.17,359a1.48,1.48,0,0,1-.94-1.86h0a1.47,1.47,0,0,1,1.84-1h0a1.47,1.47,0,0,1,1,1.85h0a1.48,1.48,0,0,1-1.48,1h0a1.94,1.94,0,0,1-.33-.07Zm-5.57-1.86a1.47,1.47,0,0,1-.93-1.87h0a1.48,1.48,0,0,1,1.87-.92h0a1.48,1.48,0,0,1,.91,1.86h0a1.46,1.46,0,0,1-1.47,1h0A1.22,1.22,0,0,1,584.6,357.11ZM579,355.18h0a1.47,1.47,0,0,1-.9-1.88h0a1.47,1.47,0,0,1,1.88-.9h0a1.47,1.47,0,0,1,.9,1.88h0a1.49,1.49,0,0,1-1.47,1h0A1.5,1.5,0,0,1,579,355.18Zm-5.57-2a1.48,1.48,0,0,1-.88-1.9h0a1.47,1.47,0,0,1,1.89-.87h0a1.48,1.48,0,0,1,.87,1.9h0a1.48,1.48,0,0,1-1.39,1h0A1.48,1.48,0,0,1,573.42,353.16Zm-5.61-2.11a1.48,1.48,0,0,1-.84-1.91h0a1.48,1.48,0,0,1,1.92-.83h0a1.47,1.47,0,0,1,.84,1.9h0a1.46,1.46,0,0,1-1.39.94h0A1.39,1.39,0,0,1,567.81,351.05Zm-5.5-2.2a1.47,1.47,0,0,1-.81-1.92h0a1.48,1.48,0,0,1,1.92-.8h0a1.48,1.48,0,0,1,.81,1.92h0a1.47,1.47,0,0,1-1.36.91h0a1.44,1.44,0,0,1-.5-.1Zm-5.47-2.3h0a1.48,1.48,0,0,1-.77-1.94h0a1.48,1.48,0,0,1,1.94-.76h0a1.48,1.48,0,0,1,.77,1.93h0a1.48,1.48,0,0,1-1.35.89h0a1.52,1.52,0,0,1-.52-.12Zm-5.43-2.42a1.46,1.46,0,0,1-.73-1.95h0a1.47,1.47,0,0,1,2-.72h0a1.48,1.48,0,0,1,.72,2h0a1.47,1.47,0,0,1-1.34.87h0a1.33,1.33,0,0,1-.55-.15ZM546,341.57h0a1.49,1.49,0,0,1-.64-2h0a1.47,1.47,0,0,1,2-.63h0a1.48,1.48,0,0,1,.64,2h0a1.48,1.48,0,0,1-1.31.81h0a1.58,1.58,0,0,1-.61-.16Z" fill="#549c47"/><path d="M644.4,123.37a1.47,1.47,0,0,1,1.47-1.47h0a1.47,1.47,0,0,1,1.48,1.47h0a1.48,1.48,0,0,1-1.48,1.48h0A1.47,1.47,0,0,1,644.4,123.37Zm-5.9-.16a1.47,1.47,0,0,1,1.47-1.48h0a1.48,1.48,0,0,1,1.48,1.48h0a1.47,1.47,0,0,1-1.48,1.47h0A1.47,1.47,0,0,1,638.5,123.21Zm11.8,0a1.46,1.46,0,0,1,1.35-1.59h0a1.46,1.46,0,0,1,1.57,1.35h0a1.46,1.46,0,0,1-1.34,1.59h-.13a1.48,1.48,0,0,1-1.46-1.38Zm5.9-.55a1.48,1.48,0,0,1,1.24-1.68h0a1.48,1.48,0,0,1,1.67,1.26h0a1.47,1.47,0,0,1-1.26,1.66h-.2a1.47,1.47,0,0,1-1.49-1.28Zm5.9-1a1.47,1.47,0,0,1,1.1-1.75h0a1.47,1.47,0,0,1,1.77,1.11h0a1.47,1.47,0,0,1-1.12,1.76h0a1.71,1.71,0,0,1-.32,0h0a1.5,1.5,0,0,1-1.54-1.14Zm5.72-1.38a1.48,1.48,0,0,1,1-1.86h0a1.48,1.48,0,0,1,1.85,1h0a1.49,1.49,0,0,1-1,1.86h0a1.55,1.55,0,0,1-.43,0h0a1.46,1.46,0,0,1-1.51-1Zm5.59-1.89a1.48,1.48,0,0,1,.79-1.92h0a1.47,1.47,0,0,1,1.93.79h0a1.48,1.48,0,0,1-.8,1.92h0a1.22,1.22,0,0,1-.56.11h0a1.46,1.46,0,0,1-1.47-.92Zm5.4-2.39a1.47,1.47,0,0,1,.58-2h0a1.47,1.47,0,0,1,2,.59h0a1.47,1.47,0,0,1-.59,2h0a1.43,1.43,0,0,1-.7.18h0a1.47,1.47,0,0,1-1.4-.78Zm5.08-3a1.48,1.48,0,0,1,.34-2h0a1.47,1.47,0,0,1,2.06.32h0a1.47,1.47,0,0,1-.33,2.06h0a1.5,1.5,0,0,1-.87.28h0a1.5,1.5,0,0,1-1.3-.66Zm4.71-3.58a1.47,1.47,0,0,1-.16-2.08h0a1.47,1.47,0,0,1,2.08-.16h0a1.48,1.48,0,0,1,.16,2.08h0a1.49,1.49,0,0,1-1.12.51h0a1.42,1.42,0,0,1-1.06-.4Z" fill="#c7404e"/><path d="M601.2,311.23a10,10,0,0,1,0,1.34h0v.69h0v.36a14.65,14.65,0,0,1-.28,1.47,2.42,2.42,0,0,1-.14.56c0,.13-.07.25-.11.37l-.26.77a13.3,13.3,0,0,1-.8,1.71h0a9.45,9.45,0,0,1-.68,1.09,13.73,13.73,0,0,1-1.65,2l-.46.43a15.6,15.6,0,0,1-21.26-.16h0l-.45-.43a11.83,11.83,0,0,1-1.6-2c-.24-.35-.46-.71-.67-1.09a13.15,13.15,0,0,1-.71-1.58.37.37,0,0,0-.11-.3c0-.1-.07-.2-.11-.31a2.78,2.78,0,0,0-.14-.53c0-.17-.09-.29-.12-.44s0-.29-.11-.44a3.37,3.37,0,0,1-.17-.94.88.88,0,0,1,0-.39V313a2.54,2.54,0,0,1,0-.39V309h0a.81.81,0,0,1,0-.22v-.56c.09-.38.17-.75.28-1.12l.09-.27c0-.12.07-.23.11-.35v-.19l.15-.4a15.59,15.59,0,0,1,.89-1.84h0c.22-.39.45-.76.7-1.12a18.78,18.78,0,0,1,1.6-2.05l.4-.4c3.3-3.36,7.19-5.1,7.19-7h6.64c0,1.86,3.85,3.58,7.15,6.9l.39.4a18.42,18.42,0,0,1,1.59,1.94,12.32,12.32,0,0,1,.69,1.08h0a12.06,12.06,0,0,1,1,2,2.9,2.9,0,0,1,.16.41v.18c.12.34.22.66.31,1v.23h0v.48c0,.09.09.41.12.64l.09.65h0v.64h0v.7A3,3,0,0,1,601.2,311.23Z" fill="#fff"/><path d="M586.1,291.82a2.33,2.33,0,1,1,.06,0Zm0-3.46a1.18,1.18,0,0,0,0,2.35,1.18,1.18,0,0,0,1.2-1.16v0a1.17,1.17,0,0,0-1.17-1.16Z" fill="#c7c7c7"/><polygon points="590.35 294.03 581.84 294.03 582.53 290.27 589.65 290.27 590.35 294.03" fill="#c7c7c7"/><path d="M585.94,289.05a35.79,35.79,0,0,1,0-12.64A36.75,36.75,0,0,1,585.94,289.05Z" fill="#263238"/><path d="M676.61,386.61c0,.44,0,.89,0,1.34h0v.68h0a2,2,0,0,1,0,.35q-.12.72-.27,1.47a2.89,2.89,0,0,1-.14.58c-.05.19-.08.25-.12.37a7,7,0,0,1-.27.77,13.83,13.83,0,0,1-.78,1.71h0a9.45,9.45,0,0,1-.68,1.09,11.72,11.72,0,0,1-1.83,2l-.45.41a15.62,15.62,0,0,1-21.26-.15h0l-.44-.42a12.86,12.86,0,0,1-1.61-2,10.88,10.88,0,0,1-.64-1.1,10.17,10.17,0,0,1-.73-1.57.36.36,0,0,0-.1-.3,1.6,1.6,0,0,1-.1-.31A2.18,2.18,0,0,0,647,391c0-.18-.08-.29-.11-.44s0-.3-.11-.44a3.38,3.38,0,0,1-.17-.95.84.84,0,0,1,0-.38v-4a3.08,3.08,0,0,1,0-.43v-.07h0a.89.89,0,0,1,0-.23.28.28,0,0,1,0-.13,3.08,3.08,0,0,1,0-.43,8.73,8.73,0,0,1,.28-1.12,1.13,1.13,0,0,1,0-.26c0-.12.07-.24.11-.36v-.19c0-.13.11-.26.17-.41a13.92,13.92,0,0,1,.87-1.83h0a11.59,11.59,0,0,1,.69-1.12,20.18,20.18,0,0,1,1.61-2l.4-.4c3.3-3.36,7.19-5.1,7.19-7h6.64c0,1.86,3.85,3.59,7.15,6.91l.39.39a17.56,17.56,0,0,1,1.59,1.95c.25.34.47.69.69,1.06h0a13.55,13.55,0,0,1,1,2c0,.14.11.27.15.42a.49.49,0,0,1,0,.17c.12.34.22.67.31,1V383h0v.11a1.31,1.31,0,0,1,0,.28.17.17,0,0,1,0,.1,4.52,4.52,0,0,0,.12.62,2.61,2.61,0,0,0,.09.66h0v.64h0v.69Z" fill="#c7404e"/><path d="M661.51,367.21a2.3,2.3,0,1,1,2.3-2.3h0A2.3,2.3,0,0,1,661.51,367.21Zm0-3.46a1.18,1.18,0,1,0,1.16,1.19v0a1.16,1.16,0,0,0-1.16-1.16Z" fill="#c7c7c7"/><polygon points="665.75 369.42 657.26 369.42 657.94 365.66 665.08 365.66 665.75 369.42" fill="#c7c7c7"/><path d="M661.34,364.48a33.46,33.46,0,0,1-.56-6.32,32.65,32.65,0,0,1,.56-6.32,31.21,31.21,0,0,1,.55,6.32A32.64,32.64,0,0,1,661.34,364.48Z" fill="#263238"/><path d="M772.19,330.56q0,.68,0,1.35h0v.69h0V333a14.84,14.84,0,0,1-.28,1.48l-.13.56a1.33,1.33,0,0,1-.12.37l-.27.76a13.25,13.25,0,0,1-.79,1.71h0a9.57,9.57,0,0,1-.68,1.1,14.75,14.75,0,0,1-1.83,2l-.46.42a15.6,15.6,0,0,1-21.26-.16h0l-.45-.43a15.22,15.22,0,0,1-2.27-3.08,12.48,12.48,0,0,1-.71-1.58,1.06,1.06,0,0,0-.11-.29,2.83,2.83,0,0,0-.11-.31,2.6,2.6,0,0,0-.14-.53c-.05-.18-.09-.3-.12-.44a.93.93,0,0,0-.11-.45,3.3,3.3,0,0,1-.17-.94.84.84,0,0,1,0-.38v-.4a2.67,2.67,0,0,1,0-.4v-3.19a2.94,2.94,0,0,1,0-.42h0a.81.81,0,0,1,0-.22V328a1.12,1.12,0,0,1,.07-.42c.09-.39.18-.76.28-1.13l.09-.26a2.06,2.06,0,0,1,.12-.35.67.67,0,0,1,0-.2l.15-.39a15.66,15.66,0,0,1,.88-1.85h0c.23-.38.46-.75.71-1.1a17.18,17.18,0,0,1,1.61-2l.39-.39c3.31-3.37,7.2-5.11,7.2-7h6.64c0,1.85,3.85,3.58,7.15,6.9l.38.4a18.52,18.52,0,0,1,1.6,1.94,12.32,12.32,0,0,1,.69,1.08h0a12.06,12.06,0,0,1,1,2,2.9,2.9,0,0,1,.16.41v.18c.12.33.22.66.31,1V327h0v.49c0,.09.09.41.12.63l.09.65h0v.64h0v.69A5.62,5.62,0,0,1,772.19,330.56Z" fill="#fff"/><path d="M757.09,311.17a2.3,2.3,0,1,1,2.3-2.3h0A2.3,2.3,0,0,1,757.09,311.17Zm0-3.47a1.2,1.2,0,0,0-1.2,1.17,1.18,1.18,0,0,0,2.36,0v0A1.17,1.17,0,0,0,757.09,307.7Z" fill="#c7c7c7"/><polygon points="761.34 313.38 752.84 313.38 753.52 309.62 760.64 309.62 761.34 313.38" fill="#c7c7c7"/><path d="M756.93,308.44a35.79,35.79,0,0,1,0-12.64A37.25,37.25,0,0,1,756.93,308.44Z" fill="#263238"/><path d="M686.27,262.22c0,.44,0,.89,0,1.33h0v.68h0a1.93,1.93,0,0,1,0,.34A6.9,6.9,0,0,1,686,266a2.87,2.87,0,0,1-.14.56l-.12.39c-.08.25-.18.5-.27.75a11,11,0,0,1-.79,1.71h0a9.57,9.57,0,0,1-.68,1.1,12.57,12.57,0,0,1-1.65,2l-.46.43a15.59,15.59,0,0,1-21.25-.16h0l-.45-.43a12.17,12.17,0,0,1-1.6-2,9.34,9.34,0,0,1-.65-1.1,10.12,10.12,0,0,1-.72-1.57,1.63,1.63,0,0,1-.11-.31l-.12-.31a2.78,2.78,0,0,0-.14-.53,3,3,0,0,1-.12-.43.73.73,0,0,0-.1-.45,3,3,0,0,1-.18-.95.84.84,0,0,1,0-.38v-4a2.8,2.8,0,0,1,0-.41v-.09h0a1,1,0,0,1,0-.24v-.12l.09-.42a4.32,4.32,0,0,1,.26-1.13l.09-.28a1.85,1.85,0,0,1,.12-.33v-.2a2.9,2.9,0,0,1,.16-.41,15.32,15.32,0,0,1,.87-1.83h0a11.59,11.59,0,0,1,.69-1.12,19.07,19.07,0,0,1,1.61-2c.13-.14.26-.28.4-.41,3.3-3.35,7.2-5.09,7.2-6.94h6.63c0,1.84,3.85,3.58,7.16,6.9l.38.4a16.3,16.3,0,0,1,1.59,1.93c.25.34.47.71.7,1.07h0a15.11,15.11,0,0,1,1,2l.15.41v.2c.11.32.22.66.31,1v.23h0a.21.21,0,0,0,0,.11v.38a4.9,4.9,0,0,0,.11.63l.09.65h0V261h0v.69A5.05,5.05,0,0,1,686.27,262.22Z" fill="#c7404e"/><path d="M671.17,242.81a2.3,2.3,0,1,1,2.3-2.3h0A2.3,2.3,0,0,1,671.17,242.81Zm0-3.48A1.17,1.17,0,0,0,670,240.5h0a1.17,1.17,0,1,0,1.18-1.18Z" fill="#c7c7c7"/><polygon points="675.41 245.01 666.92 245.01 667.6 241.25 674.74 241.25 675.41 245.01" fill="#c7c7c7"/><path d="M671.05,240a32.65,32.65,0,0,1-.56-6.32,31.74,31.74,0,0,1,.56-6.38,31.17,31.17,0,0,1,.54,6.33A32.43,32.43,0,0,1,671.05,240Z" fill="#263238"/><path d="M697.73,155.39v1.34h0v.68h0v.35a12.42,12.42,0,0,1-.27,1.48,2.21,2.21,0,0,1-.15.56c0,.13-.07.26-.11.38a7,7,0,0,1-.27.77,13.19,13.19,0,0,1-.78,1.71h0a9.45,9.45,0,0,1-.68,1.09,12.12,12.12,0,0,1-1.65,2l-.46.41a15.61,15.61,0,0,1-21.25-.14h0l-.46-.43a15.32,15.32,0,0,1-1.6-2,10.1,10.1,0,0,1-.65-1.09,13.28,13.28,0,0,1-.73-1.58.39.39,0,0,0-.1-.31c0-.1-.07-.2-.1-.3a2.89,2.89,0,0,0-.16-.53c0-.17-.09-.29-.12-.44a3.43,3.43,0,0,1-.11-.46,9,9,0,0,1-.17-.93v-.39a1.28,1.28,0,0,1,0-.39,2.8,2.8,0,0,1,0-.41v-1.39a2.8,2.8,0,0,1,0-.41v-1.37a3.09,3.09,0,0,1,0-.43h0a.88.88,0,0,1,0-.23.24.24,0,0,1,0-.12,3.08,3.08,0,0,1,0-.43,8.73,8.73,0,0,1,.28-1.12,2.68,2.68,0,0,1,.07-.27,1.32,1.32,0,0,1,.12-.35,1.07,1.07,0,0,1,.07-.19,1.34,1.34,0,0,1,.15-.42,11.35,11.35,0,0,1,.89-1.82h0a9.09,9.09,0,0,1,.69-1.12,18.07,18.07,0,0,1,1.61-2l.39-.4c3.31-3.36,7.2-5.1,7.2-7H686c0,1.84,3.86,3.58,7.15,6.9l.38.4a14.31,14.31,0,0,1,1.6,1.95,10.7,10.7,0,0,1,.69,1.06h0a13.55,13.55,0,0,1,1,2l.15.4v.19c.1.32.21.66.3,1v.22h0v.47a4.62,4.62,0,0,1,.11.63,1.7,1.7,0,0,0,.09.67h0v.63h0v.7Z" fill="#fff"/><path d="M682.63,136a2.3,2.3,0,1,1,2.3-2.3h0A2.3,2.3,0,0,1,682.63,136Zm0-3.47a1.17,1.17,0,1,0,1.16,1.17h0A1.17,1.17,0,0,0,682.63,132.51Z" fill="#c7c7c7"/><polygon points="686.87 138.18 678.38 138.18 679.07 134.43 686.2 134.43 686.87 138.18" fill="#c7c7c7"/><path d="M682.46,133.21a32.81,32.81,0,0,1-.54-6.33,31.77,31.77,0,0,1,.54-6.31A35.79,35.79,0,0,1,682.46,133.21Z" fill="#263238"/><path d="M661.3,90a18.57,18.57,0,0,0,17.58.23s-5.09-25.5-5.53-27.07A15,15,0,0,0,670.5,59a15.3,15.3,0,0,0-3,4C667.07,64.62,661.3,90,661.3,90Z" fill="#c7404e"/><polygon points="670.93 27.73 663.41 42.48 647 44.63 658.69 56.34 655.68 72.61 670.43 65.12 684.97 73.01 682.39 56.67 694.39 45.27 678.05 42.67 670.93 27.73" fill="#c7404e"/><path d="M691.82,481.39a8.74,8.74,0,0,1-1.36,4.24,3.53,3.53,0,0,0-.18-.88,7.92,7.92,0,0,0-.26-.92,17.11,17.11,0,0,0-3.3-5.69l-.49-.57-.13-.15h0l-.23-.26c-13.36-16.92-26.06,10.5-26.35,11.13h0s-.74-27.34,13.84-28.11C684.8,459.67,692.49,472.93,691.82,481.39Z" fill="#549c47"/><path d="M690.46,485.63a6,6,0,0,1-1.2,1.26c-7,5.33-28.35,1.65-29.68,1.45h0c20.09,1.92,25.61-5.39,26.58-10.89l.13.14.49.58a17.67,17.67,0,0,1,3.3,5.69c.1.3.19.61.26.92S690.42,485.34,690.46,485.63Z" fill="#549c47"/><g opacity="0.2" style="isolation:isolate"><path d="M690.46,485.63a6,6,0,0,1-1.2,1.26c-7,5.33-28.35,1.65-29.68,1.45h0c20.09,1.92,25.61-5.39,26.58-10.89l.13.14.49.58a17.67,17.67,0,0,1,3.3,5.69c.1.3.19.61.26.92S690.42,485.34,690.46,485.63Z"/></g><path d="M626.71,484.5a8.43,8.43,0,0,0,1.76,4.13,3.36,3.36,0,0,1,.08-.89c.09-.29.1-.62.18-.94a17.23,17.23,0,0,1,2.75-6l.42-.62.11-.14h0a1.93,1.93,0,0,0,.22-.28c11.68-18.13,27,8,27.28,8.57h0s-1.89-27.3-16.46-26.67C631.62,462.13,625.24,476.15,626.71,484.5Z" fill="#549c47"/><path d="M628.47,488.63a5.72,5.72,0,0,0,1.31,1.14c7.43,4.63,28.38-1,29.68-1.45h0c-19.83,3.84-26.06-2.89-27.5-8.29l-.12.14-.42.62a17.69,17.69,0,0,0-2.75,6,7.4,7.4,0,0,1-.17.94A7,7,0,0,0,628.47,488.63Z" fill="#549c47"/><g opacity="0.2" style="isolation:isolate"><path d="M628.47,488.63a5.72,5.72,0,0,0,1.31,1.14c7.43,4.63,28.38-1,29.68-1.45h0c-19.83,3.84-26.06-2.89-27.5-8.29l-.12.14-.42.62a17.69,17.69,0,0,0-2.75,6,7.4,7.4,0,0,1-.17.94A7,7,0,0,0,628.47,488.63Z"/></g><polygon points="698.62 579.23 620.88 579.23 627.31 491.54 690.86 494.26 698.62 579.23" fill="#c7404e"/><polygon points="716.58 579.23 692.44 579.23 689.05 494.26 712.26 496.27 716.58 579.23" fill="#c7404e"/><g opacity="0.6" style="isolation:isolate"><polygon points="716.58 579.23 692.44 579.23 689.05 494.26 712.26 496.27 716.58 579.23" fill="#fff"/></g><polygon points="619.82 491.54 619.82 508.66 689.05 506.55 689.05 486.95 619.82 491.54" fill="#c7404e"/><g opacity="0.1" style="isolation:isolate"><polygon points="619.82 491.54 619.82 508.66 689.05 506.55 689.05 486.95 619.82 491.54"/></g><polygon points="715.08 508.66 689.05 506.55 689.05 486.95 716.58 491.54 715.08 508.66" fill="#c7404e"/><g opacity="0.4" style="isolation:isolate"><polygon points="715.08 508.66 689.05 506.55 689.05 486.95 716.58 491.54 715.08 508.66" fill="#fff"/></g><polygon points="665.47 579.23 649.2 579.23 647.56 489.7 666.77 488.42 665.47 579.23" fill="#549c47"/><polygon points="702.4 579.23 707.93 579.23 707.44 490.02 699.71 488.73 702.4 579.23" fill="#549c47"/><path d="M718.66,508.14c1.61-3.79,6-7.34,13.68-5,11.7,3.53,9.43,20.71,9.09,22.86.45-2.42,4.16-24.61-7.61-28.19C724.45,494.92,719.57,502.55,718.66,508.14Z" fill="#d1d3d4"/><path d="M718.66,508.14a7,7,0,0,0,.45,4.52c2.34,3.68,9.19,9.9,21.47,13.3l.82.22v-.33h-.08c-11.5-5.52-17.55-12.05-19.46-15.49-.75-1.35-.38-3.77,1-5.91A9.84,9.84,0,0,1,724,503,9.3,9.3,0,0,0,718.66,508.14Z" fill="#bcbec0"/><path d="M765.06,508.14c-1.61-3.79-6-7.34-13.68-5-11.71,3.53-9.44,20.71-9.11,22.86-.45-2.42-4.15-24.61,7.63-28.19C759.2,494.92,764.15,502.55,765.06,508.14Z" fill="#d1d3d4"/><path d="M765.06,508.14a6.9,6.9,0,0,1-.46,4.52c-2.33,3.68-9.2,9.9-21.47,13.3l-.81.22v-.33h.08c11.48-5.52,17.54-12.05,19.46-15.49.75-1.35.38-3.77-1-5.91a12.17,12.17,0,0,0-1.12-1.45A9.3,9.3,0,0,1,765.06,508.14Z" fill="#bcbec0"/><path d="M710.87,525.22c-1-3.27.51-7.7,8.4-9.87,12-3.3,20.59,9.09,21.63,10.66-1.12-1.8-11.58-18.16-23.66-14.89C707.67,513.72,708.21,521.11,710.87,525.22Z" fill="#d1d3d4"/><path d="M710.87,525.22A6.45,6.45,0,0,0,714,528c4.22,1.3,13.77,2.09,26.16-1.55l.83-.26a.7.7,0,0,1-.1-.16l-.07-.09h-.11c-13,1.9-22.07.51-25.79-.84a4.91,4.91,0,0,1-2.77-4.34,6.39,6.39,0,0,1,.07-1.45A6.2,6.2,0,0,0,710.87,525.22Z" fill="#bcbec0"/><path d="M772.05,525.22c1-3.27-.5-7.7-8.39-9.87-12-3.3-20.61,9.09-21.63,10.66,1.1-1.8,11.58-18.16,23.65-14.89C775.25,513.72,774.72,521.11,772.05,525.22Z" fill="#d1d3d4"/><path d="M772.05,525.22A6.38,6.38,0,0,1,768.9,528c-4.22,1.3-13.77,2.09-26.15-1.55l-.82-.26.1-.16v-.09h.1c13,1.9,22.08.51,25.8-.84a5,5,0,0,0,2.78-4.34,6.39,6.39,0,0,0-.08-1.45A6.23,6.23,0,0,1,772.05,525.22Z" fill="#bcbec0"/><polygon points="771.84 579.23 698.36 579.23 695.37 528.19 775.08 529.77 771.84 579.23" fill="#549c47"/><polygon points="797.62 579.23 771.84 579.23 772.91 529.77 800.78 531.99 797.62 579.23" fill="#549c47"/><g opacity="0.6" style="isolation:isolate"><polygon points="797.62 579.23 771.84 579.23 772.91 529.77 800.78 531.99 797.62 579.23" fill="#fff"/></g><polygon points="691.17 528.11 692.96 546.61 772.91 546.61 772.91 524.33 691.17 528.11" fill="#549c47"/><g opacity="0.1" style="isolation:isolate"><polygon points="691.17 528.11 692.96 546.61 772.91 546.61 772.91 524.33 691.17 528.11"/></g><polygon points="803.18 546.61 772.91 546.61 772.91 524.33 806.1 528.25 803.18 546.61" fill="#549c47"/><g opacity="0.4" style="isolation:isolate"><polygon points="803.18 546.61 772.91 546.61 772.91 524.33 806.1 528.25 803.18 546.61" fill="#fff"/></g><polygon points="794.26 526.85 788.59 579.08 782.11 579.08 785.71 525.85 794.26 526.85" fill="#d1d3d4"/><polygon points="740.88 525.8 740.88 579.23 723.87 579.23 721.96 526.69 740.88 525.8" fill="#d1d3d4"/><path d="M631.22,520.84a8,8,0,0,1-1.75,3.78c0-.28,0-.55,0-.83a6.47,6.47,0,0,0-.15-.88,16,16,0,0,0-2.43-5.68c-.12-.2-.25-.39-.38-.59l-.11-.15h0c0-.1-.13-.18-.19-.27-10.53-17.29-25.48,6.83-25.8,7.4h0s2.42-25.57,16.08-24.61C627.13,499.73,632.8,513,631.22,520.84Z" fill="#d1d3d4"/><path d="M629.47,524.62a5,5,0,0,1-1.26,1c-7.08,4.18-26.6-1.65-27.81-2h0c18.51,4.08,24.48-2.12,26.05-7.13l.12.15c.13.2.26.39.38.59a16.38,16.38,0,0,1,2.43,5.68,5.2,5.2,0,0,1,.14.88A7.16,7.16,0,0,1,629.47,524.62Z" fill="#bcbec0"/><path d="M570.2,516.36a7.94,7.94,0,0,0,1.18,4,3,3,0,0,1,.18-.81c.07-.28.17-.57.27-.85a16.25,16.25,0,0,1,3.23-5.27l.48-.53.11-.13h0l.24-.23C588.83,497,600.11,523,600.34,523.6h0S601.68,498,588,496.91C577.32,496.08,569.78,508.42,570.2,516.36Z" fill="#d1d3d4"/><path d="M571.38,520.36a5.51,5.51,0,0,0,1.09,1.22c6.41,5.16,26.56,2.24,27.81,2h0c-18.91,1.33-23.9-5.66-24.61-10.84l-.12.13-.48.52a16.8,16.8,0,0,0-3.22,5.27c-.11.29-.19.58-.28.85A6.57,6.57,0,0,0,571.38,520.36Z" fill="#bcbec0"/><polygon points="564.98 579.02 637.01 579.02 634.37 528.03 572.18 525.8 564.98 579.02" fill="#549c47"/><g opacity="0.6" style="isolation:isolate"><polygon points="564.98 579.02 637.01 579.02 634.37 528.03 572.18 525.8 564.98 579.02" fill="#fff"/></g><polygon points="550.26 579.02 570.72 579.02 573.86 525.8 552.75 529.74 550.26 579.02" fill="#549c47"/><polygon points="637.99 525.99 637.99 543.8 573.86 541.6 573.86 521.23 637.99 525.99" fill="#549c47"/><g opacity="0.4" style="isolation:isolate"><polygon points="637.99 525.99 637.99 543.8 573.86 541.6 573.86 521.23 637.99 525.99" fill="#fff"/></g><polygon points="549.74 543.8 573.86 541.6 573.86 521.23 548.36 525.99 549.74 543.8" fill="#549c47"/><g opacity="0.1" style="isolation:isolate"><polygon points="549.74 543.8 573.86 541.6 573.86 521.23 548.36 525.99 549.74 543.8"/></g><polygon points="617.33 524.46 616.7 579.02 599.7 579.02 599.42 523.13 617.33 524.46" fill="#d1d3d4"/><polygon points="563.7 523.13 557.3 524.33 557.3 579.02 562.64 579.02 563.7 523.13" fill="#d1d3d4"/><rect x="26.68" y="385.26" width="262.4" height="181.07" rx="16.28" fill="#263238"/><path d="M32.77,410.08H283.46a0,0,0,0,1,0,0V549.67A9.42,9.42,0,0,1,274,559.1H42.19a9.42,9.42,0,0,1-9.42-9.42V410.08A0,0,0,0,1,32.77,410.08Z" fill="#fff"/><rect x="133.4" y="166.3" width="262.4" height="181.07" rx="16.28" fill="#263238"/><path d="M634.8,365s18.75,14.79,19.07,39.49l.88,69.94a32,32,0,0,1-8.81,22.74c-4.5,4.64-11.23,8.72-21.2,9.9L644,649.22a4.71,4.71,0,0,1-4.67,5.35h0a4.71,4.71,0,0,1-4.66-4.07L615.56,512.72h-75L522,650.77a4.39,4.39,0,0,1-4.34,3.8h0a4.38,4.38,0,0,1-4.34-5l19.89-143.83s105.26,7.82,101.27-47.85l-4.77-30.77c.84-3.39,1.59-7,2.2-10.84a134.65,134.65,0,0,0,1.57-26.8q.27-4.58.53-9.2Q634.46,372.57,634.8,365Z" fill="#263238"/><path d="M484.22,308.64a18.64,18.64,0,0,0-.64-4,17.65,17.65,0,0,0-.64-2.11c-.69-1.86-2-6.12,0-7a.49.49,0,0,1,.58.13c1.54,1.91,11.12,14.47,9.62,29.54a12.6,12.6,0,0,0,1.49,7.27l22.6,42,13.43-10.24L545,385s-24.95,26.87-40.63,11.2c0,0-18.21-16.83-28.75-56.63a56.09,56.09,0,0,0-8.52-18c-5.83-8.22-13.23-19.69-10.4-21.31,0,0,.78-1.09,6.67,4.84a.14.14,0,0,0,.23-.16c-1.69-2.87-6.22-11-3.94-12.4,0,0,2.32-2.22,9.3,10.52,0,0-7.2-12.74-4.32-13.74,0,0,2.77-2.32,10.53,12.3,0,0-7.65-12-6.1-14.4,0,0,2.55-4.65,10.53,13.07l4,8.5A.29.29,0,0,0,484.22,308.64Z" fill="#fea286"/><path d="M478.41,327.34a.5.5,0,0,1-.33-.12.51.51,0,0,1-.05-.71c5.5-6.23-.93-13.32-1.21-13.62a.51.51,0,0,1,0-.71.5.5,0,0,1,.71,0c.07.08,7.33,8.06,1.22,15A.5.5,0,0,1,478.41,327.34Z" fill="#f27a5f"/><path d="M467.31,313.47a6.81,6.81,0,0,1-1.17-.1.49.49,0,0,1-.41-.57.5.5,0,0,1,.58-.41c.19,0,4.72.74,5.4-3.14a.5.5,0,0,1,.24-.34.49.49,0,0,1,.41-.05c.18.06,4.34,1.35,5.81-2.26a.5.5,0,0,1,.65-.28.51.51,0,0,1,.27.66c-1.32,3.26-4.58,3.42-6.51,3C471.82,312.73,469.25,313.47,467.31,313.47Z" fill="#f27a5f"/><path d="M474.17,335.19a5,5,0,0,0-3.09-4.63v-23.7a5.71,5.71,0,0,0,3-2.22c12.62-18.31,9.15-59,9.15-59H457.44c-1.62,11.91-.89,29.26-.48,37.08a48.86,48.86,0,0,0,1.56,10.14c2,7.27,4.83,11.14,7.2,13a5.51,5.51,0,0,0,1.38.8v23.93a5,5,0,0,0-2.94,4.56v.73H462a1.84,1.84,0,0,0-1.84,1.84h0A1.84,1.84,0,0,0,462,339.6h13.69a1.84,1.84,0,0,0,1.84-1.84h0a1.84,1.84,0,0,0-1.84-1.84h-1.54Z" fill="#f1d9d2"/><polygon points="345.55 454.41 297.62 655.16 314.66 655.16 362.05 454.21 345.55 454.41" fill="#8b5e3c"/><polygon points="685.81 454.41 733.74 655.16 716.7 655.16 669.31 454.21 685.81 454.41" fill="#8b5e3c"/><rect x="577.22" y="283.41" width="24.06" height="32.57" fill="#fea286"/><path d="M577.26,301.66v8.84s13.92-3.08,17-18.08C594.26,292.42,589.73,301.86,577.26,301.66Z" fill="#f27a5f"/><path d="M458.56,268.64s12.11,2.64,22.42.14c0,0-.38,27.08-9.28,33.39a3.53,3.53,0,0,1-3.7.2C464.69,300.54,458.66,293.78,458.56,268.64Z" fill="#c7404e"/><g opacity="0.2"><path d="M475,248h5.28s.83,46.21-10.73,53.14C469.58,301.16,476.84,272.78,475,248Z" fill="#fff"/></g><path d="M474.13,594.18h36s4.78-48.78,5.42-89.59c0,0,125.91,15.47,118.93-46.68l-105.39.3a71.75,71.75,0,0,0-31.46,7.17c-10.47,5.16-21,13.46-21.36,26.09Z" fill="#549c47"/><path d="M499.24,580.72h-.05a.5.5,0,0,1-.45-.55c.06-.59,5.79-58.9,6.59-81.41a6.13,6.13,0,0,1,7.23-5.82c16.56,3,72.67,11.17,99-9,8.39-6.41,13.14-15.19,14.1-26.11a.51.51,0,0,1,.55-.45.5.5,0,0,1,.45.54c-1,11.21-5.87,20.23-14.49,26.82-26,19.83-78.47,13-99.83,9.16a5.13,5.13,0,0,0-6.05,4.87c-.8,22.53-6.54,80.88-6.59,81.47A.52.52,0,0,1,499.24,580.72Z" fill="#fff"/><path d="M402.2,588.67l31.13,14.86,42.35-86.09.62-26s-.88-13.07,15.74-22.82c0,0,12.4-8.86,32.13-10.41H461.46s-11.41,13.62-26,47.53Z" fill="#549c47"/><g opacity="0.2"><path d="M402.2,588.67l31.13,14.86,42.35-86.09.62-26s-.88-13.07,15.74-22.82c0,0,12.4-8.86,32.13-10.41H461.46s-11.41,13.62-26,47.53Z" fill="#fff"/></g><path d="M429.44,586.37a.46.46,0,0,1-.23-.06.5.5,0,0,1-.21-.68l46.2-86.75a.49.49,0,0,1,.67-.2.49.49,0,0,1,.21.67l-46.2,86.75A.5.5,0,0,1,429.44,586.37Z" fill="#fff"/><path d="M479.22,594v13s4.72,3.38,18.49,3.92L501,594.17Z" fill="#fea286"/><path d="M499.27,640.45c-.07.35-.15.68-.22,1a4.16,4.16,0,0,1-4.08,3.21l-20.07-.12c-19.22-.09-26.82-3.69-29.74-6a5,5,0,0,1-1.83-3.93c.16-7.24,7.44-8.38,11.28-8.48,1,0,1.93-.1,2.89-.22a22.56,22.56,0,0,0,5-1.2,54.07,54.07,0,0,0,15.07-9.18c8.07,6.48,20,4.32,20,4.32C500.46,629.44,500.07,636.4,499.27,640.45Z" fill="#c7404e"/><g opacity="0.2"><path d="M499.27,640.45c-.07.35-.15.68-.22,1a4.16,4.16,0,0,1-4.08,3.21l-20.07-.12c-19.22-.09-26.82-3.69-29.74-6a5,5,0,0,1-1.83-3.93c.16-7.24,7.44-8.38,11.28-8.48,1,0,1.93-.1,2.89-.22a18.83,18.83,0,0,1,3.9,13.65S484.68,641.55,499.27,640.45Z"/></g><path d="M409.54,592.1l-7.39,11.95A43.13,43.13,0,0,0,418,612.38l9.44-11.64Z" fill="#fea286"/><path d="M396.65,610s1.73-9.43,5.5-6c0,0,9.67,6.91,15.88,8.33,0,0,4.88.79-3.14,8.49C414.89,620.87,402.08,621,396.65,610Z" fill="#c7404e"/><g opacity="0.2"><path d="M396.65,610s1.73-9.43,5.5-6c0,0,9.67,6.91,15.88,8.33,0,0,4.88.79-3.14,8.49C414.89,620.87,402.08,621,396.65,610Z" fill="#fff"/></g><path d="M409.83,642.14a19.34,19.34,0,0,1-3.59,4.35l-32.07-14.93a53.76,53.76,0,0,1-12.4-7.8A6.55,6.55,0,0,1,365,612.38a22.07,22.07,0,0,1,8.84.79c10.54,3,22.8-3.15,22.8-3.15,6,10.85,18.24,10.85,18.24,10.85C415.34,631.18,412.41,638.12,409.83,642.14Z" fill="#c7404e"/><g opacity="0.2"><path d="M409.83,642.14a19.34,19.34,0,0,1-3.59,4.35l-32.07-14.93a53.76,53.76,0,0,1-12.4-7.8A6.55,6.55,0,0,1,365,612.38a22.07,22.07,0,0,1,8.84.79,16.53,16.53,0,0,1,1.1,14.3S395.55,637.54,409.83,642.14Z"/></g><g opacity="0.2"><path d="M387.44,620.77a.38.38,0,0,1-.39-.34c-.44-4.31-2.77-5.67-2.79-5.68a.39.39,0,0,1-.15-.53.4.4,0,0,1,.53-.15c.11.07,2.7,1.57,3.18,6.28a.38.38,0,0,1-.34.42Z" fill="#fff"/></g><g opacity="0.2"><path d="M393.57,622.82a.4.4,0,0,1-.39-.38c-.15-6.89-3.84-8.92-3.88-8.94a.39.39,0,0,1,.36-.69c.17.09,4.14,2.24,4.3,9.61a.4.4,0,0,1-.38.4Z" fill="#fff"/></g><g opacity="0.2"><path d="M471.31,629.52a.39.39,0,0,1-.38-.32,7.09,7.09,0,0,0-4.13-5.38.4.4,0,0,1-.23-.5.39.39,0,0,1,.5-.23,7.9,7.9,0,0,1,4.62,6,.39.39,0,0,1-.31.45Z" fill="#fff"/></g><g opacity="0.2"><path d="M477.94,628.22a.39.39,0,0,1-.36-.24,12.86,12.86,0,0,0-5.95-6.77.39.39,0,0,1,.31-.72c.16.07,4.07,1.78,6.36,7.19a.39.39,0,0,1-.21.51Z" fill="#fff"/></g><path d="M690.16,385.21V427H658.93V385.21a15.61,15.61,0,0,1,7-13,6.31,6.31,0,0,0,2.81-5.14l.74-34.78a1.4,1.4,0,0,1,1.4-1.36h6.38a1.39,1.39,0,0,1,1.39,1.32l1.6,34.88a6.29,6.29,0,0,0,2.83,5A15.61,15.61,0,0,1,690.16,385.21Z" fill="#263238"/><path d="M669.48,332.12v5.58a12.59,12.59,0,0,0,4.36.88,12.73,12.73,0,0,0,5-.88c-.08-1.88-.15-3.76-.22-5.63a1.4,1.4,0,0,0-1.39-1.34h-6.34A1.4,1.4,0,0,0,669.48,332.12Z" fill="#f1d9d2"/><g opacity="0.2"><path d="M669.48,337.7l-.24,8.92a13.32,13.32,0,0,0,10,.66l-.39-9.58A12.4,12.4,0,0,1,669.48,337.7Z"/></g><rect x="658.93" y="392.19" width="31.23" height="25.66" fill="#c7404e"/><ellipse cx="674.59" cy="405.27" rx="11.66" ry="14.8" fill="#c7404e"/><path d="M674.59,418c-5.58,0-10.12-5.7-10.12-12.71s4.54-12.71,10.12-12.71,10.12,5.7,10.12,12.71S680.17,418,674.59,418Zm0-24.42c-5,0-9.12,5.25-9.12,11.71S669.56,417,674.59,417s9.12-5.25,9.12-11.71S679.62,393.56,674.59,393.56Z" fill="#fff"/><path d="M139.49,191.13H390.18a0,0,0,0,1,0,0V330.72a9.42,9.42,0,0,1-9.42,9.42H148.91a9.42,9.42,0,0,1-9.42-9.42V191.13A0,0,0,0,1,139.49,191.13Z" fill="#fff"/><path d="M311.12,261.92,316.51,272l-6.12,30.77-15.84-11.69s-2.45-12.36-1.16-18.34C293.39,272.78,300.32,270.2,311.12,261.92Z" fill="#f27a5f"/><path d="M365.28,216.07c2.7,3.77-1.26,4.13-1.26,4.13,2.34,5.59-3.06,4.14-3.06,4.14-5-1.8-6.65,0-6.65,0-6.12,12.42-15.48,14.4-15.48,14.4-9,.54-3.79-2.69-3.79-2.69a29.06,29.06,0,0,0,7.29-5.92,20.54,20.54,0,0,0,3.24-5.07c1.87-4,6.2-5.22,8.29-5.6a12.7,12.7,0,0,0,4.25-1.54c3-1.79,3.47-3.88,3.33-5.28a1.28,1.28,0,0,0-1.71-1.09c-5.63,2.08-15.68,2.53-15.68,2.53,3.77-5.3,16.2-4.32,21.59-3.62C369.58,215.29,365.28,216.07,365.28,216.07Z" fill="#f27a5f"/><path d="M217.72,331.91l-2.39,8.25,86.59.22-2.55-9.55S273.34,337.7,217.72,331.91Z" fill="#c7404e"/><path d="M230.12,522.93a28.26,28.26,0,0,0-1.79-5.12c-1.51-3.37-4.77-10.52-8.61-18.36,0,0-9.09-21.05-11.53-39.22,0,0-4.32-29.8-47.14-25.76l-21,19.67L103.72,439s-37.23,8.48-30.08,42.88c0,0,2.75,51.8,37.32,77.29l108.31.15s-2.21-10.86-3.32-16.18C216,543.1,234.87,542.9,230.12,522.93Zm-39,2.82-.81-12.18c0-.07.1-.1.13,0l6,10.56Z" fill="#c7404e"/><g opacity="0.2"><path d="M190.48,513.53l.68-25s10.55,29.14,16.1,40l-26.54,30.71-50.06-.09,69.11-29.79-3.33-5.27Z"/></g><path d="M157.36,555.53s-4-1-3.06-3.7c0,0-2.57.64-1.28-3.55,0,0,2.09-11.27,10.79-9.5,0,0,5-3.54,8.05,1.45,0,0,7.09-2.42,6.45,4.19,0,0,4.51-.16,3.38,5.64,0,0,8.05,6-1,9.18,0,0-13.05,5.31-13.05.8,0,0-4,1.45-3.38-2.25C164.29,557.79,157.53,561.65,157.36,555.53Z" fill="#fea286"/><path d="M154.3,552.33a.46.46,0,0,1-.29-.1.51.51,0,0,1-.11-.7l9.5-13a.5.5,0,0,1,.81.58l-9.5,13A.49.49,0,0,1,154.3,552.33Z" fill="#f27a5f"/><path d="M157.36,556a.49.49,0,0,1-.36-.84l14.5-15.3a.5.5,0,0,1,.71,0,.49.49,0,0,1,0,.7l-14.5,15.31A.51.51,0,0,1,157.36,556Z" fill="#f27a5f"/><path d="M164.29,558.29a.48.48,0,0,1-.36-.16.49.49,0,0,1,0-.7l14-13.37a.5.5,0,1,1,.69.72l-14,13.37A.52.52,0,0,1,164.29,558.29Z" fill="#f27a5f"/><path d="M167.67,560.54a.48.48,0,0,1-.4-.21.5.5,0,0,1,.11-.69l14-10a.5.5,0,1,1,.58.81l-14,10A.5.5,0,0,1,167.67,560.54Z" fill="#f27a5f"/><g opacity="0.2"><path d="M104.29,473.91,120,516.3l16.08-11s-9.69,3.06-13.76-3.33Z"/></g><circle cx="148.66" cy="179.04" r="2.44" fill="#fff"/><circle cx="157.86" cy="179.04" r="2.44" fill="#fff"/><circle cx="166.83" cy="179.04" r="2.44" fill="#fff"/><path d="M362.86,181.49h-7a.5.5,0,0,1-.5-.5.5.5,0,0,1,.5-.5h7a.51.51,0,0,1,.5.5A.5.5,0,0,1,362.86,181.49Z" fill="#fff"/><path d="M367.44,182.39a.54.54,0,0,1-.35-.14.5.5,0,0,1,0-.71l5.69-5.72a.5.5,0,0,1,.71.71l-5.69,5.71A.51.51,0,0,1,367.44,182.39Z" fill="#fff"/><path d="M373.27,182.5a.5.5,0,0,1-.35-.14l-5.72-5.7a.48.48,0,0,1,0-.7.5.5,0,0,1,.71,0l5.71,5.69a.48.48,0,0,1,0,.7A.47.47,0,0,1,373.27,182.5Z" fill="#fff"/><path d="M383.26,182.72h-6a.5.5,0,0,1-.5-.5v-6.39a.5.5,0,0,1,.5-.5h6a.5.5,0,0,1,.5.5v6.39A.5.5,0,0,1,383.26,182.72Zm-5.52-1h5v-5.39h-5Z" fill="#fff"/><circle cx="42.17" cy="398.77" r="2.44" fill="#fff"/><circle cx="51.37" cy="398.77" r="2.44" fill="#fff"/><circle cx="60.34" cy="398.77" r="2.44" fill="#fff"/><path d="M256.36,401.23h-7a.5.5,0,0,1,0-1h7a.5.5,0,0,1,0,1Z" fill="#fff"/><path d="M261,402.13a.47.47,0,0,1-.35-.15.48.48,0,0,1,0-.7l5.69-5.72a.49.49,0,0,1,.7.7L261.3,402A.47.47,0,0,1,261,402.13Z" fill="#fff"/><path d="M266.78,402.24a.51.51,0,0,1-.36-.15l-5.71-5.69a.48.48,0,0,1,0-.7.49.49,0,0,1,.7,0l5.72,5.69a.51.51,0,0,1-.35.86Z" fill="#fff"/><path d="M276.77,402.46h-6a.5.5,0,0,1-.5-.5v-6.39a.5.5,0,0,1,.5-.5h6a.5.5,0,0,1,.5.5V402A.5.5,0,0,1,276.77,402.46Zm-5.52-1h5v-5.39h-5Z" fill="#fff"/><polygon points="342.85 346.01 363.73 374.69 363.73 345.79 342.85 346.01" fill="#263238"/><polygon points="287.6 459.79 316.27 477.34 287.37 477.34 287.6 459.79" fill="#263238"/><rect x="559.84" y="248.85" width="37.05" height="52.73" rx="18.52" fill="#fea286"/><path d="M560.08,264.49s13.52-1,22.86-5.53c0,0-3.69,4.43-8.73,5.41,0,0,11.8,2.34,21.15-4.55a20.52,20.52,0,0,1,1.53,7.55l.07,9.79s-.55,16.52,4.37,19.1l-.06,16.84s14.13-.77,21.94,2.22c0,0,3.89-63.36-16.66-73.59a11.63,11.63,0,0,0-1.81-.69c-5.63-1.68-34.22-8.1-42.79,11a17.74,17.74,0,0,0-.72,2c-2.08,6.65-13.35,44-13.8,74.92,0,0,9.87-13.51,29.73-15.18l.09-12.27s-16.7-1.57-17.41-18.44V267.37A22.69,22.69,0,0,1,560.08,264.49Z" fill="#8b5e3c"/><path d="M608.65,282.92s2.94,15.23,17.34,13.25c0,0,3.82-2,.29-5.92,0,0-4.41-3.1-2.64-14.1,0,0,6.17-35.53-27.62-38.07,0,0-31.08-3.42-34.63,13.87l45.5,17.15Z" fill="#c7404e"/><path d="M560.76,264.31s.52-.17,1.44-.4a41.28,41.28,0,0,1,40.25,11.61,87.24,87.24,0,0,1,6.2,7.4s3.08-.21,7.33-4.83a4.73,4.73,0,0,0,.83-5.32c-4.31-8.84-20.4-34.65-56.28-21a4.53,4.53,0,0,0-3,4.3c0,1.78.11,4.18.25,6.79C557.82,262.9,557.53,266,560.76,264.31Z" fill="#f1d9d2"/><path d="M629.86,287c14.45.91,10.81,9.77,10.81,9.77a4.28,4.28,0,0,0,2.7-.42c-.5,7.36-3.37,10.88-6,12.56a9.14,9.14,0,0,1-4.34,1.54,4.73,4.73,0,0,0,2.68,1.08c-9.82,5.7-17.7-4.09-17.7-4.09a3.24,3.24,0,0,0,.39,3l-.1-.05a7.19,7.19,0,0,1-4.42-5.71c-1.49-11.29,7.75-14.2,7.75-14.2a13.94,13.94,0,0,1,3.05-3.27c3.53-2.71,6.61-1.72,6.61-1.72C629.83,286.4,629.86,287,629.86,287Z" fill="#f1d9d2"/><g opacity="0.2"><path d="M624.93,292.64s8.61.84,11.35,7.35C636.28,300,634.75,289.87,624.93,292.64Z"/></g><g opacity="0.2"><path d="M629.86,287c14.45.91,10.81,9.77,10.81,9.77a4.28,4.28,0,0,0,2.7-.42c-.5,7.36-3.37,10.88-6,12.56a28.38,28.38,0,0,0,3.68-10.83l-2.22.86c1.39-8.29-9.64-11-14.15-11.69,3.53-2.71,6.61-1.72,6.61-1.72C629.83,286.4,629.86,287,629.86,287Z"/></g><ellipse cx="600.19" cy="281.05" rx="7.1" ry="4.99" transform="translate(79.48 691.02) rotate(-63.31)" fill="#fea286"/><path d="M548,385.72l-1.5,1.69-19.2-27.3L547.43,329s8-11,20.56-14l-19.2,54.6Z" fill="#c7404e"/><g opacity="0.2"><path d="M548,385.72l-1.5,1.69-19.2-27.3L547.43,329s8-11,20.56-14l-19.2,54.6Z"/></g><path d="M571.54,313.76c-4.83,1.07-11.26,3.61-13,9.64,0,0-5.46,12.24-10,18.26,0,0-11.47,17.88-2.16,36.87a17.35,17.35,0,0,1,1.7,8l-.67,40.65h82.27a141.38,141.38,0,0,0,4-37.31c0-1.8,0-3.59.08-5.38L635,361.56a77.53,77.53,0,0,1,1.86-13.66c2.15-9.21,4.22-28.19-13.62-32.58,0,0-5.56-2.42-17.1-2.49a39.26,39.26,0,0,0-7.49.7c-4,.75-11.53,1.74-18.66.2A19.92,19.92,0,0,0,571.54,313.76Z" fill="#c7404e"/><circle cx="576.56" cy="333.47" r="2.92" fill="#f1d9d2"/><circle cx="571.1" cy="342.89" r="2.92" fill="#f1d9d2"/><g opacity="0.2"><path d="M572.7,316.25c5,8,15.13,7,22.77,4,1.13-.45,2.25-.93,3.4-1.36-1.07.59-2.17,1.14-3.25,1.71-7.67,3.68-18.56,4.51-22.92-4.34Z"/></g><g opacity="0.2"><path d="M555.94,382.52c12.12-.36,26.08,2.45,34.45,11.86a32.62,32.62,0,0,0-3.6-2.95c-8.92-6.28-20.15-8.25-30.85-8.91Z"/></g><path d="M597,373.54s-8.22,25.25-21.84,27.66c0,0-35.07,6.61-70.14,7.21,0,0-5.21-4-15.43-3.6l5.21,22.24,89.38-.2s28.21-1.18,40.62-46.17C624.76,380.68,613.47,379.48,597,373.54Z" fill="#fea286"/><path d="M636.83,347.9l-6.66,26-1.74,6.78c-18.45-.56-36.9-9.78-36.9-9.78l13.8-32.15,1.07-2.5c9-22.4,22.41-15.44,22.41-15.44C642.73,327.92,636.83,347.9,636.83,347.9Z" fill="#c7404e"/><g opacity="0.2"><path d="M636.83,347.9l-6.66,26-1.74,6.78c-18.45-.56-36.9-9.78-36.9-9.78l13.8-32.15,1.07-2.5c9-22.4,22.41-15.44,22.41-15.44C642.73,327.92,636.83,347.9,636.83,347.9Z"/></g><g opacity="0.2"><path d="M630.17,373.85l-1.74,6.78c-18.45-.56-36.9-9.78-36.9-9.78l13.8-32.15c.45.48,3.46,4.31.32,21.23,0,0-3.21,9.41,12.42,12.61a97.07,97.07,0,0,0,12,1.13Z"/></g><path d="M470,348.53l17.75,78.22h58.07a8.16,8.16,0,0,0-8.15-8.16H493.74L478.37,353.3a6.29,6.29,0,0,0-6.33-4.84Z" fill="#263238"/><g opacity="0.2"><path d="M470,348.53l17.75,78.22h58.07a8.16,8.16,0,0,0-8.15-8.16H493.74L478.37,353.3a6.29,6.29,0,0,0-6.33-4.84Z"/></g><path d="M487.74,426.76l-86.23,0H386.1l-8-32.67L372.3,370.7l-4.05-16.43a4.63,4.63,0,0,1,4.5-5.74H470Z" fill="#263238"/><circle cx="425.35" cy="390.78" r="7.29" fill="#fff"/><g opacity="0.2"><path d="M388.84,348.53,372.3,370.7l-4.05-16.43a4.63,4.63,0,0,1,4.5-5.74Z" fill="#fff"/></g><g opacity="0.2"><polygon points="445.8 348.53 401.51 426.74 386.1 426.74 378.06 394.07 408.11 348.53 445.8 348.53" fill="#fff"/></g><path d="M477.57,615.5s6.33,6.73,20,4.32l2.16-6.62s1.08-2.56-2-2.29A54.42,54.42,0,0,1,479.22,607s-2.16-1.21-2,2.84Z" fill="#c7404e"/><g opacity="0.2"><path d="M477.57,615.5s6.33,6.73,20,4.32l2.16-6.62s1.08-2.56-2-2.29A54.42,54.42,0,0,1,479.22,607s-2.16-1.21-2,2.84Z" fill="#fff"/></g><path d="M322.65,442.69H715.1a0,0,0,0,1,0,0V443A15.11,15.11,0,0,1,700,458.13H337.75A15.11,15.11,0,0,1,322.65,443v-.34A0,0,0,0,1,322.65,442.69Z" fill="#8b5e3c"/><g opacity="0.2"><path d="M322.65,442.69H715.1a0,0,0,0,1,0,0V443A15.11,15.11,0,0,1,700,458.13H337.75A15.11,15.11,0,0,1,322.65,443v-.34A0,0,0,0,1,322.65,442.69Z"/></g><rect x="312.56" y="426.99" width="413.61" height="15.95" rx="7.98" fill="#8b5e3c"/><path d="M726.28,435.47H312.56a.5.5,0,0,1-.5-.5.5.5,0,0,1,.5-.5H726.28a.5.5,0,0,1,.5.5A.5.5,0,0,1,726.28,435.47Z" fill="#fff"/><path d="M246.84,210.64s-15.06-1-20.83,6c0,0-4,85.6-10.8,115,0,0,62.76,8.53,88.11-1.51,0,0-11.3-34.64-9.29-56.73,0,0,4.84-2.62,4.4-19a59.68,59.68,0,0,0-.84-9.25,94.46,94.46,0,0,1-1-23.42s-7.36-6.07-23.65-8.18Z" fill="#549c47"/><circle cx="264.76" cy="236.1" r="3.27" fill="#fff"/><circle cx="267.71" cy="249.4" r="3.27" fill="#fff"/><path d="M294.15,273.34c1.29-.51,12.56-5.1,17.91-11.27a3.74,3.74,0,0,0,.88-2.8c-.53-6.22-3.36-29.62-16.4-37.59,0,0-1.54,6.21.88,23.14,0,0,3.39,20.92-3.3,28.47C294.1,273.32,294.12,273.36,294.15,273.34Z" fill="#549c47"/><g opacity="0.2"><path d="M294.15,273.34c1.29-.51,12.56-5.1,17.91-11.27a3.74,3.74,0,0,0,.88-2.8c-.53-6.22-3.36-29.62-16.4-37.59,0,0-1.54,6.21.88,23.14,0,0,3.39,20.92-3.3,28.47C294.1,273.32,294.12,273.36,294.15,273.34Z"/></g><path d="M198.27,261s-8,28.64-8.75,44.73a7.6,7.6,0,0,0,4.53,7.3c6.45,2.85,20.65,7.37,47.48,8.7a5.61,5.61,0,0,1,2.53.8c1.26.73,3.92,1.45,8.05.29a19.39,19.39,0,0,0,7.63-4.25l17.92-15.87s1.56-6.88-9.1-8.57c0,0-10.78-1.69-16.63,4.29l-5.76,6a3.3,3.3,0,0,1-3.56.78c-5.26-2-19.31-7.66-25.47-11.82a3.19,3.19,0,0,1-1.2-3.73l6-16.67S210.35,271,198.27,261Z" fill="#fea286"/><rect x="251.23" y="152.74" width="34.67" height="49.26" rx="17.34" transform="translate(-20 34.82) rotate(-7.15)" fill="#fea286"/><path d="M249.78,190.73l-3.58,21.63s16.09,17.69,27.17,3l-1.74-13.59s-14,2.11-19.17-13.58A3.19,3.19,0,0,1,249.78,190.73Z" fill="#fea286"/><path d="M271.63,201.81l1.21,8.76s-13.77-1.07-16.63-14.48C256.21,196.09,262.2,203.06,271.63,201.81Z" fill="#f27a5f"/><path d="M263.6,163a70.38,70.38,0,0,0,20.9,3.16l2.17,16.33s2.07,16-15,19.36l1.53,11.79s19.73,2.58,28.65,12.68c0,0,7.38-10.34-4.23-24.27,0,0-6.12-5.28-3.58-16.25,0,0,6.54-34-20.48-41,0,0-32.93-5.48-43.69,12,0,0-3.59,4.22-10.56,23.64,0,0-4,12-18.57,16.88,0,0-32.72,15.2-7.18,35.68,0,0,4.43,3,.63,11,0,0-3,8,3.38,9.29l5.75-14.82s6.4-18.28,21.89-24.14a7.18,7.18,0,0,1,2.82-.54,3.83,3.83,0,0,1,1.36.26s6.2-3.87,17.17-3.42l3.26-19.91,2-6.28s1.72-12.71-.61-19.81c0,0,12,5.88,21.71,2.66C272.89,167.3,266.38,166.59,263.6,163Z" fill="#8b5e3c"/><g opacity="0.2"><path d="M190,228.16c-3.5-7.88-1-16.6,6.6-20.91,4.5-2.93,10.06-3.37,14.61-6.15,6.82-3.9,11.86-11.18,11.77-19.2.78,11.11-8.54,20.36-18.8,22.92a30.52,30.52,0,0,0-7.21,3c-7.47,4.21-9.93,12.41-7,20.31Z"/></g><g opacity="0.2"><path d="M192.07,223.61c.43-8.44,8-14.63,15.54-17.06,5.68-2.09,11.95-4.93,14.79-10.62-2.78,6.95-10.54,9.82-17,12.29-6.45,2.69-12.33,8.2-13.3,15.39Z"/></g><g opacity="0.2"><path d="M195.67,232.52c7.39,2.13,13.28-7.66,16.3-13.12,1.24-2.2,2.27-4.52,3.42-6.79-.42,1.2-.89,2.38-1.33,3.58-.36,1-1.12,2.51-1.56,3.49-2.68,5.72-9.37,15.9-16.83,12.84Z"/></g><ellipse cx="247.81" cy="185.28" rx="4.29" ry="5.99" transform="matrix(0.81, -0.59, 0.59, 0.81, -61.59, 182.23)" fill="#fea286"/><path d="M195.59,258.54s11.17,12.4,31.32,15.35c0,0,14.45-25.91,5.58-56.49a5,5,0,0,0-6.27-3.44c-4.87,1.47-12.54,5.46-19,16.3a54,54,0,0,0-3.94,8.22Z" fill="#549c47"/><g opacity="0.2"><path d="M195.59,258.54s11.17,12.4,31.32,15.35c0,0,14.45-25.91,5.58-56.49a5,5,0,0,0-6.27-3.44c-4.87,1.47-12.54,5.46-19,16.3a54,54,0,0,0-3.94,8.22Z"/></g><path d="M359,226.65a3.72,3.72,0,0,0-2.31-3.45V205.5a4.28,4.28,0,0,0,2.23-1.65c9.43-13.68,6.83-44,6.83-44H346.5c-1.21,8.89-.66,21.85-.36,27.69a36.49,36.49,0,0,0,1.17,7.57c1.47,5.43,3.6,8.31,5.37,9.71a4.53,4.53,0,0,0,1,.6v17.86a3.73,3.73,0,0,0-2.2,3.4v.55h-1.6a1.38,1.38,0,0,0-1.37,1.38h0a1.38,1.38,0,0,0,1.37,1.37h10.23a1.38,1.38,0,0,0,1.37-1.37h0a1.38,1.38,0,0,0-1.37-1.38H359Z" fill="#f1d9d2"/><path d="M347.34,177s9,2,16.74.11c0,0-.28,20.22-6.93,24.93a2.62,2.62,0,0,1-2.76.15C351.91,200.79,347.41,195.73,347.34,177Z" fill="#c7404e"/><g opacity="0.2"><path d="M359.63,161.57h3.95s.61,34.5-8,39.68C355.57,201.25,361,180.05,359.63,161.57Z" fill="#fff"/></g><path d="M368.34,208.25a2.38,2.38,0,0,1-2.38,2.23,1.72,1.72,0,0,1-.32,0c-5.39-.7-17.82-1.68-21.59,3.62,0,0,10.05-.45,15.68-2.53a1.28,1.28,0,0,1,1.71,1.09c.14,1.4-.29,3.49-3.33,5.28a12.7,12.7,0,0,1-4.25,1.54c-2.09.38-6.42,1.64-8.29,5.6a20.54,20.54,0,0,1-3.24,5.07,29.06,29.06,0,0,1-7.29,5.92s-5.22,3.23,3.79,2.69c0,0-1.27,74.33-28.44,64.08,0,0-8.28-3.79-1.44-27,0,0,9-25.91,16.92-42.65l8.08-14.6a77.92,77.92,0,0,0,3.83-8.17c1.19-2.9,4.17-7,11.29-5.79a40.12,40.12,0,0,0,4.77.47l12.23.61A2.4,2.4,0,0,1,368.34,208.25Z" fill="#fea286"/><circle cx="265.4" cy="312.81" r="15.69" fill="#263238"/><path d="M273.62,312.33h-.14a6.2,6.2,0,0,0-6.14-5.36h-4.5a6.32,6.32,0,0,0-6.24,5.36h-.28a1.46,1.46,0,1,0,0,2.92h3.84a1.46,1.46,0,0,0,0-2.92h0a3.74,3.74,0,0,1,3.66-2.92h2.68a3.76,3.76,0,0,1,3.67,2.92h-.38a1.46,1.46,0,1,0,0,2.92h3.84a1.46,1.46,0,0,0,0-2.92Z" fill="#fff"/><circle cx="308.27" cy="312.65" r="15.69" fill="#263238"/><path d="M312.92,310.13v.48H311.6v-3.08h-7.77a2.57,2.57,0,0,0-2.58,2.58v5.07a2.57,2.57,0,0,0,2.58,2.58h7.77v-3.08h1.32v.48a1.18,1.18,0,0,0,1.19,1.18h0a1.18,1.18,0,0,0,1.18-1.18v-5a1.18,1.18,0,0,0-1.18-1.18h0A1.18,1.18,0,0,0,312.92,310.13Z" fill="#fff"/><circle cx="220.96" cy="312.36" r="15.69" fill="#263238"/><rect x="217.35" y="303.69" width="7.21" height="11.41" rx="3.6" fill="#fff"/><path d="M221,317.48a5.3,5.3,0,0,1-5.29-5.29.5.5,0,0,1,1,0,4.29,4.29,0,1,0,8.58,0,.5.5,0,0,1,.5-.5.5.5,0,0,1,.5.5A5.3,5.3,0,0,1,221,317.48Z" fill="#fff"/><path d="M221.14,321.52a.5.5,0,0,1-.5-.5V317.1a.5.5,0,0,1,1,0V321A.5.5,0,0,1,221.14,321.52Z" fill="#fff"/><circle cx="162.44" cy="537.83" r="15.69" fill="#263238"/><path d="M170.67,537.34h-.14a6.21,6.21,0,0,0-6.14-5.35h-4.51a6.32,6.32,0,0,0-6.24,5.35h-.27a1.46,1.46,0,1,0,0,2.92h3.84a1.46,1.46,0,1,0,0-2.92h0a3.77,3.77,0,0,1,3.67-2.92h2.67a3.77,3.77,0,0,1,3.67,2.92h-.37a1.46,1.46,0,1,0,0,2.92h3.84a1.46,1.46,0,0,0,0-2.92Z" fill="#fff"/><circle cx="205.32" cy="537.66" r="15.69" fill="#263238"/><path d="M210,535.15v.47h-1.33v-3.08h-7.76a2.59,2.59,0,0,0-2.59,2.59v5.07a2.59,2.59,0,0,0,2.59,2.58h7.76V539.7H210v.47a1.18,1.18,0,0,0,1.18,1.19h0a1.19,1.19,0,0,0,1.19-1.19v-5a1.18,1.18,0,0,0-1.19-1.18h0A1.18,1.18,0,0,0,210,535.15Z" fill="#fff"/><circle cx="118" cy="537.37" r="15.69" fill="#263238"/><rect x="114.4" y="528.7" width="7.21" height="11.41" rx="3.6" fill="#fff"/><path d="M118,542.49a5.3,5.3,0,0,1-5.29-5.29.51.51,0,0,1,.5-.5.5.5,0,0,1,.5.5,4.29,4.29,0,0,0,8.58,0,.51.51,0,0,1,.5-.5.5.5,0,0,1,.5.5A5.29,5.29,0,0,1,118,542.49Z" fill="#fff"/><path d="M118.19,546.54a.5.5,0,0,1-.5-.5v-3.92a.5.5,0,0,1,.5-.5.5.5,0,0,1,.5.5V546A.5.5,0,0,1,118.19,546.54Z" fill="#fff"/><g opacity="0.2"><path d="M289,158.39c3.31,4.46,3.07,10.55,2.23,15.79a35.65,35.65,0,0,1-2.3,7.86c-1.67,4.28-2.13,9.34.12,13.49,3.09,5.27,5.57,11.06,6.23,17.18a17.06,17.06,0,0,1-1,8,17.36,17.36,0,0,0,.59-8c-.83-6-3.42-11.7-6.49-16.89-2.42-4.31-1.93-9.66-.14-14.09a38,38,0,0,0,2.38-7.71c.95-5.16,1.35-11.1-1.65-15.68Z"/></g><polygon points="111.86 428.99 119.17 429.35 119.81 437.87 111.86 428.99" fill="#549c47"/><g opacity="0.2"><polygon points="111.86 428.99 119.17 429.35 119.81 437.87 111.86 428.99"/></g><polygon points="118.4 417.77 119.67 438.63 146.93 465.05 149.59 429.99 118.4 417.77" fill="#fea286"/><path d="M149.59,430l-.5,6.64s-7.81.5-17.45-6.31A40,40,0,0,0,149.59,430Z" fill="#f27a5f"/><rect x="115.19" y="362.68" width="42.06" height="60.74" rx="21.03" fill="#fea286"/><path d="M105.88,398.08s-19.61-22.93,1.66-33.4c0,0,.33-18.12,30.25-12.63,0,0,28.58,10.63,19.11,14.12,0,0,12.3,11.63-4.66,13.13,0,0-22.6.83-35.89-2.66a44.84,44.84,0,0,1,1,19.49,9.43,9.43,0,0,0,.58,5.12c2,4.73,6.76,14,13,13.31a5.69,5.69,0,0,0,3.68-2.22c.87-1.08,3-2.56,7.73-2.13h6.32a5.22,5.22,0,0,1,3.15,1.49,1.26,1.26,0,0,0,1.84.23,10.71,10.71,0,0,0,3.32-6.37s4.4,16.19-4.52,23a10,10,0,0,1-4.23,1.83c-5.58,1-22.8,3.06-28.48-9.68l-1.27-2.91A76.15,76.15,0,0,0,107,399.46Z" fill="#8b5e3c"/><ellipse cx="109.98" cy="405.96" rx="6.31" ry="9.06" transform="translate(-202.12 124.01) rotate(-32.75)" fill="#fea286"/><polygon points="111.86 428.99 146.93 465.05 149.59 429.99 161.05 434.47 160.22 461.23 154.74 458.07 146.59 469.04 130.81 462.56 131.47 477.18 103.72 438.96 111.86 428.99" fill="#549c47"/><path d="M165.65,496.34a3.58,3.58,0,0,0-2.21-3.31v-17a4.09,4.09,0,0,0,2.13-1.58c9-13.1,6.55-42.19,6.55-42.19H153.68c-1.16,8.52-.63,20.94-.34,26.53a33.56,33.56,0,0,0,1.12,7.26c1.4,5.2,3.45,8,5.14,9.3a4,4,0,0,0,1,.57v17.12a3.57,3.57,0,0,0-2.1,3.26v.53H157a1.32,1.32,0,0,0-1.32,1.32h0A1.32,1.32,0,0,0,157,499.5h9.8a1.31,1.31,0,0,0,1.31-1.31h0a1.32,1.32,0,0,0-1.31-1.32h-1.11Z" fill="#f1d9d2"/><path d="M154.48,448.73s8.67,1.89,16,.1c0,0-.27,19.37-6.63,23.89a2.53,2.53,0,0,1-2.66.14C158.87,471.56,154.55,466.72,154.48,448.73Z" fill="#c7404e"/><g opacity="0.2"><path d="M166.27,434H170s.59,33.06-7.67,38C162.37,472,167.56,451.69,166.27,434Z" fill="#fff"/></g><path d="M136.05,505.31S149.7,482.9,158.39,476a1.07,1.07,0,0,1,1.71.72l.46,4.06s5.66-3.47,9.3-3.31A2.43,2.43,0,0,1,172,479c.39,1,.49,2.57-1.11,4.45,0,0,4.84,3.67,0,7.84,0,0,3.84,1.5.67,7.17,0,0,3.83,3.34-4.17,7.51,0,0-10.84,5.33-14.84,11.34Z" fill="#fea286"/><path d="M162.4,486.47a.5.5,0,0,1-.24-1,30.77,30.77,0,0,1,8.68-2.55.5.5,0,0,1,.13,1,30.34,30.34,0,0,0-8.34,2.45A.49.49,0,0,1,162.4,486.47Z" fill="#f27a5f"/><path d="M162.9,493.64a.5.5,0,0,1-.16-1,41,41,0,0,1,8.11-1.86.52.52,0,0,1,.55.45.5.5,0,0,1-.45.55,39.94,39.94,0,0,0-7.89,1.81Z" fill="#f27a5f"/><path d="M164.23,499.64a.51.51,0,0,1-.49-.39.5.5,0,0,1,.38-.6c5.22-1.18,7.47-.69,7.56-.66a.5.5,0,1,1-.22,1s-2.18-.44-7.12.67Z" fill="#f27a5f"/><path d="M247.57,175.71s-2.61,13.11-15.4,11.41c0,0-3.4-1.7-.26-5.1,0,0,3.91-2.67,2.35-12.14,0,0-5.49-30.59,24.54-32.78,0,0,27.62-2.95,30.77,11.94l-40.43,14.77Z" fill="#c7404e"/><path d="M290.13,159.68s-.46-.14-1.28-.34a37.42,37.42,0,0,0-35.77,10,76,76,0,0,0-5.51,6.37s-2.73-.19-6.51-4.16a4,4,0,0,1-.74-4.58c3.83-7.61,18.13-29.84,50-18.05a3.9,3.9,0,0,1,2.63,3.7c0,1.53-.1,3.6-.22,5.85C292.74,158.47,293,161.14,290.13,159.68Z" fill="#f1d9d2"/><path d="M228.73,179.23c-12.85.78-9.61,8.41-9.61,8.41a4,4,0,0,1-2.41-.36c.45,6.34,3,9.37,5.3,10.82a8.31,8.31,0,0,0,3.86,1.32,4.27,4.27,0,0,1-2.38.93c8.72,4.91,15.73-3.52,15.73-3.52a2.72,2.72,0,0,1-.35,2.61l.09,0a6.24,6.24,0,0,0,3.93-4.92c1.33-9.72-6.88-12.23-6.88-12.23a12.49,12.49,0,0,0-2.72-2.82,7,7,0,0,0-5.87-1.48C228.75,178.71,228.73,179.23,228.73,179.23Z" fill="#f1d9d2"/><g opacity="0.2"><path d="M233.1,184.08s-7.65.72-10.09,6.33C223,190.41,224.38,181.69,233.1,184.08Z"/></g><g opacity="0.2"><path d="M228.73,179.23c-12.85.78-9.61,8.41-9.61,8.41a4,4,0,0,1-2.41-.36c.45,6.34,3,9.37,5.3,10.82a24,24,0,0,1-3.27-9.33l2,.74c-1.23-7.14,8.57-9.44,12.58-10.07a7,7,0,0,0-5.87-1.48C228.75,178.71,228.73,179.23,228.73,179.23Z"/></g><path d="M109.85,388.74s-5.06,13.82-18.69,9.8c0,0-3.4-2.42.58-5.59,0,0,4.72-2.24,4.62-12.81,0,0-.78-34.21,32.25-31.5,0,0,30.55,1.48,31.45,18.2l-46.48,9.22Z" fill="#c7404e"/><path d="M158.87,378.51s-.48-.23-1.33-.59a41.25,41.25,0,0,0-40.61,4.82,82.35,82.35,0,0,0-7.08,6s-2.94-.66-6.37-5.63a4.39,4.39,0,0,1,0-5.11c5.45-7.63,24.78-29.38,57.46-11.16a4.3,4.3,0,0,1,2.24,4.47c-.3,1.67-.72,3.91-1.24,6.33C161.91,377.64,161.75,380.59,158.87,378.51Z" fill="#f1d9d2"/><path d="M88.76,389.37c-14.11-1.32-11.88,7.53-11.88,7.53a4.36,4.36,0,0,1-2.56-.8c-.58,7,1.68,10.7,3.94,12.67a9.17,9.17,0,0,0,4,2.09,4.7,4.7,0,0,1-2.74.61c8.66,6.81,17.71-1.17,17.71-1.17a3,3,0,0,1-.82,2.79l.11,0a6.86,6.86,0,0,0,5.1-4.68c3.09-10.35-5.42-14.47-5.42-14.47a13.6,13.6,0,0,0-2.47-3.53c-3-3.07-6.14-2.61-6.14-2.61C88.87,388.81,88.76,389.37,88.76,389.37Z" fill="#f1d9d2"/><g opacity="0.2"><path d="M92.69,395.39s-8.44-.51-12,5.18C80.65,400.57,83.61,391.32,92.69,395.39Z"/></g><g opacity="0.2"><path d="M88.76,389.37c-14.11-1.32-11.88,7.53-11.88,7.53a4.36,4.36,0,0,1-2.56-.8c-.58,7,1.68,10.7,3.94,12.67a26.34,26.34,0,0,1-2-10.71l2,1.14c-.13-8,10.92-8.81,15.39-8.82-3-3.07-6.14-2.61-6.14-2.61C88.87,388.81,88.76,389.37,88.76,389.37Z"/></g><ellipse cx="151.66" cy="394.51" rx="1.91" ry="2.86" fill="#8b5e3c"/><ellipse cx="135.59" cy="394.51" rx="1.91" ry="2.86" fill="#8b5e3c"/><path d="M145.72,385.43a.5.5,0,0,1-.25-.93c5.26-3.07,10.71-.41,10.94-.3a.5.5,0,1,1-.45.89c-.05,0-5.2-2.52-10,.27A.45.45,0,0,1,145.72,385.43Z" fill="#8b5e3c"/><path d="M125.85,387.54a.49.49,0,0,1-.41-.22.5.5,0,0,1,.13-.69c5-3.46,10.65-1.21,10.89-1.12a.5.5,0,0,1-.38.93c-.05,0-5.38-2.13-9.94,1A.52.52,0,0,1,125.85,387.54Z" fill="#8b5e3c"/><path d="M144.49,407.33a.5.5,0,0,1-.43-.24.51.51,0,0,1,.17-.69l1.51-.9a2.6,2.6,0,0,0,1.26-2.87l-4.15-11.31a.5.5,0,0,1,.29-.64.5.5,0,0,1,.64.3L148,402.34a3.58,3.58,0,0,1-1.71,4l-1.49.9A.48.48,0,0,1,144.49,407.33Z" fill="#f27a5f"/><path d="M148.35,419.57c-2.4.64-7.44,1.2-10.32-4.14a32.26,32.26,0,0,0,9.37-.58,1.76,1.76,0,0,1,2.24,1.65l0,1.32A1.78,1.78,0,0,1,148.35,419.57Z" fill="#fff"/><ellipse cx="567.51" cy="275.95" rx="1.38" ry="2.06" fill="#8b5e3c"/><ellipse cx="579.09" cy="275.95" rx="1.38" ry="2.06" fill="#8b5e3c"/><path d="M571.79,269.55a.45.45,0,0,1-.25-.07,8.05,8.05,0,0,0-7.07-.19.5.5,0,0,1-.67-.22.5.5,0,0,1,.22-.67,8.9,8.9,0,0,1,8,.22.5.5,0,0,1-.25.93Z" fill="#8b5e3c"/><path d="M584.57,271.66a.51.51,0,0,1-.36-.15,8.05,8.05,0,0,0-6.76-2.07.51.51,0,0,1-.59-.4.5.5,0,0,1,.4-.58,8.94,8.94,0,0,1,7.67,2.35.5.5,0,0,1,0,.71A.54.54,0,0,1,584.57,271.66Z" fill="#8b5e3c"/><path d="M574.24,287.18a.54.54,0,0,1-.25-.06L572,286a2.73,2.73,0,0,1-1.31-3l2.35-9.58a.5.5,0,0,1,1,.24l-2.35,9.58a1.71,1.71,0,0,0,.83,1.9l2,1.12a.5.5,0,0,1-.24.93Z" fill="#f27a5f"/><path d="M573.66,290.91a9.05,9.05,0,0,1-2.65-.39.5.5,0,0,1-.3-.64.48.48,0,0,1,.63-.3c.22.07,5.41,1.81,7.54-3.1a.5.5,0,0,1,.91.4A6.29,6.29,0,0,1,573.66,290.91Z" fill="#f27a5f"/><ellipse cx="279.91" cy="178.75" rx="1.38" ry="2.06" fill="#8b5e3c"/><ellipse cx="268.33" cy="178.75" rx="1.38" ry="2.06" fill="#8b5e3c"/><path d="M275.63,172.35a.5.5,0,0,1-.25-.93,8.91,8.91,0,0,1,8-.22.5.5,0,0,1,.22.67.5.5,0,0,1-.67.22,8.1,8.1,0,0,0-7.07.19A.47.47,0,0,1,275.63,172.35Z" fill="#8b5e3c"/><path d="M262.85,174.46a.52.52,0,0,1-.35-.14.5.5,0,0,1,0-.71,9,9,0,0,1,7.67-2.35.5.5,0,0,1,.4.59.52.52,0,0,1-.59.39,8.05,8.05,0,0,0-6.76,2.07A.51.51,0,0,1,262.85,174.46Z" fill="#8b5e3c"/><path d="M273.18,190a.52.52,0,0,1-.44-.25.51.51,0,0,1,.2-.68l2-1.11a1.73,1.73,0,0,0,.83-1.91l-2.35-9.58a.5.5,0,1,1,1-.23l2.35,9.57a2.73,2.73,0,0,1-1.31,3l-2,1.11A.5.5,0,0,1,273.18,190Z" fill="#f27a5f"/><path d="M275.55,195a6.3,6.3,0,0,1-6.14-4,.5.5,0,0,1,.92-.4c2.13,4.91,7.31,3.17,7.53,3.09a.5.5,0,0,1,.33.95A9,9,0,0,1,275.55,195Z" fill="#f27a5f"/><path d="M598.53,282.76a.28.28,0,0,1-.1-.21,4.44,4.44,0,0,1,2.76-4.89.3.3,0,0,1,.39.19h0a.31.31,0,0,1-.2.4h0a3.57,3.57,0,0,0-2.22,2.63l.22-.19a1.52,1.52,0,0,1,1.28-.2.33.33,0,0,1,.24.38.32.32,0,0,1-.39.24.91.91,0,0,0-.77.11,2.17,2.17,0,0,0-.68,1.34.32.32,0,0,1-.33.27A.32.32,0,0,1,598.53,282.76Z" fill="#f27a5f"/><path d="M249,187.16a.26.26,0,0,0,.11-.21,4.49,4.49,0,0,0-2.76-4.9.32.32,0,0,0-.4.2h0a.33.33,0,0,0,.21.41h0a3.62,3.62,0,0,1,2.22,2.62,1.24,1.24,0,0,0-.22-.18,1.54,1.54,0,0,0-1.28-.21.33.33,0,0,0-.24.39.32.32,0,0,0,.38.24.94.94,0,0,1,.77.1,2.13,2.13,0,0,1,.69,1.34.32.32,0,0,0,.32.28A.28.28,0,0,0,249,187.16Z" fill="#f27a5f"/><path d="M110.77,408.33a.31.31,0,0,0,.11-.21,4.47,4.47,0,0,0-2.76-4.89.31.31,0,0,0-.4.2h0a.31.31,0,0,0,.2.4h0a3.57,3.57,0,0,1,2.21,2.62,1.37,1.37,0,0,0-.22-.19,1.56,1.56,0,0,0-1.28-.2.33.33,0,0,0-.24.39.33.33,0,0,0,.39.23.91.91,0,0,1,.77.11,2.17,2.17,0,0,1,.68,1.34.34.34,0,0,0,.33.28A.27.27,0,0,0,110.77,408.33Z" fill="#f27a5f"/></svg>