<?xml version="1.0" encoding="UTF-8"?>
<svg xmlns="http://www.w3.org/2000/svg" id="a" width="865.76" height="682.89" viewBox="0 0 865.76 682.89">
  <rect x="490.61" y="296.28" width="21.19" height="14.62" fill="#002346" stroke="#002346" stroke-linecap="round" stroke-linejoin="round"></rect>
  <rect x="499.74" y="215.9" width="8.4" height="13.52" fill="#002346" stroke="#002346" stroke-linecap="round" stroke-linejoin="round"></rect>
  <rect x="588.45" y="232.52" width="20.36" height="98.83" transform="translate(125.25 744.28) rotate(-69.54)" fill="#e3e3e3" stroke="#002346" stroke-miterlimit="10"></rect>
  <path d="m523.13,246.96c0,1.93-.25,3.8-.73,5.58-2.46,9.2-10.85,15.98-20.83,15.98-1.33,0-2.64-.12-3.9-.35-10.04-1.83-17.66-10.63-17.66-21.2,0-11.9,9.65-21.56,21.56-21.56,1.73,0,3.42.2,5.03.59,9.48,2.27,16.53,10.79,16.53,20.97Z" fill="#fff" stroke="#002346" stroke-miterlimit="10"></path>
  <circle cx="501.57" cy="246.96" r="6.94" fill="#252525" stroke="#002346" stroke-linecap="round" stroke-linejoin="round"></circle>
  <path d="m522.4,252.53v46.67h-42.38v-52.25c0,11.9,9.65,21.56,21.56,21.56,9.97,0,18.37-6.78,20.83-15.98Z" fill="#252525" stroke="#002346" stroke-linecap="round" stroke-linejoin="round"></path>
  <path d="m488.78,292.81c0,1.11-.9,2.01-2.01,2.01-1.11,0-2.01-.9-2.01-2.01s.9-2.01,2.01-2.01,2.01.9,2.01,2.01Z" fill="#fff" stroke="#002346" stroke-miterlimit="10"></path>
  <circle cx="516.37" cy="292.81" r="2.01" fill="#fff" stroke="#002346" stroke-miterlimit="10"></circle>
  <path d="m564.41,247.32l-14.62,39.83-6.29-2.29-45.84-16.7c1.26.23,2.57.35,3.9.35,9.97,0,18.37-6.78,20.83-15.98.48-1.78.73-3.65.73-5.58,0-10.17-7.05-18.7-16.53-20.97l.08-.23,51.35,19.18,6.38,2.38Z" fill="#252525" stroke="#002346" stroke-linecap="round" stroke-linejoin="round"></path>
  <polygon points="564.41 247.32 549.8 287.15 543.51 284.86 558.03 244.94 564.41 247.32" fill="#002346" stroke="#002346" stroke-linecap="round" stroke-linejoin="round"></polygon>
  <rect x="486.04" y="311.63" width="30.33" height="10.96" fill="#002346" stroke="#002346" stroke-linecap="round" stroke-linejoin="round"></rect>
  <polygon points="490.14 322.55 465.76 340.13 468.69 372.65 480.74 384.34 484.58 380.5 477.45 371.19 477.45 350.36 497.55 339.03 505.59 339.03 524.95 350.36 524.95 371.92 518.01 380.69 522.4 384.7 534.82 372.28 537.38 340.86 512.5 322.75 490.14 322.55" fill="#252525" stroke="#002346" stroke-linecap="round" stroke-linejoin="round"></polygon>
  <circle cx="501.57" cy="331.73" r="8.4" fill="#fff" stroke="#002346" stroke-miterlimit="10"></circle>
  <circle cx="501.57" cy="332.09" r="3.29" fill="#002346" stroke="#002346" stroke-linecap="round" stroke-linejoin="round"></circle>
  <path d="m504.22,215.7s23.29-36.7,71.15,3.12l68.84,58" fill="none" stroke="#002346" stroke-linecap="round" stroke-linejoin="round"></path>
  <rect x="769.39" y="491.76" width="52.61" height="47.5" fill="#e3e3e3" stroke="#002346" stroke-miterlimit="10"></rect>
  <polygon points="718.31 303.8 703.96 343.22 636.74 318.74 629.86 316.23 644.21 276.82 650.76 279.2 718.31 303.8" fill="#252525" stroke="#002346" stroke-linecap="round" stroke-linejoin="round"></polygon>
  <rect x="739.11" y="314.35" width="21.13" height="46.95" transform="translate(179.94 930.74) rotate(-70.4)" fill="#002346" stroke="#002346" stroke-linecap="round" stroke-linejoin="round"></rect>
  <polygon points="687.18 323.32 616.66 493.95 684.26 493.95 735.78 338.67 687.18 323.32" fill="#252525" stroke="#002346" stroke-linecap="round" stroke-linejoin="round"></polygon>
  <circle cx="713.12" cy="326.61" r="25.94" fill="#fff" stroke="#002346" stroke-miterlimit="10"></circle>
  <circle cx="713.31" cy="326.06" r="15.16" fill="#252525" stroke="#002346" stroke-linecap="round" stroke-linejoin="round"></circle>
  <circle cx="713.31" cy="326.06" r="5.12" fill="#fff" stroke="#002346" stroke-miterlimit="10"></circle>
  <path d="m640.25,477.51h132.06v62.11h-159.67v-34.51c0-15.24,12.37-27.61,27.61-27.61Z" fill="#fff" stroke="#002346" stroke-miterlimit="10"></path>
  <circle cx="642.61" cy="507.84" r="27.4" fill="#252525" stroke="#002346" stroke-linecap="round" stroke-linejoin="round"></circle>
  <circle cx="642.42" cy="508.39" r="14.8" fill="#fff" stroke="#002346" stroke-miterlimit="10"></circle>
  <circle cx="642.61" cy="508.57" r="5.48" fill="#252525" stroke="#002346" stroke-linecap="round" stroke-linejoin="round"></circle>
  <line x1="692.66" y1="531.59" x2="692.66" y2="483.72" fill="none" stroke="#002346" stroke-linecap="round" stroke-linejoin="round"></line>
  <rect x="708.74" y="485.91" width="51.15" height="25.58" fill="#252525" stroke="#002346" stroke-linecap="round" stroke-linejoin="round"></rect>
  <circle cx="713.12" cy="522.45" r="4.02" fill="#e3e3e3" stroke="#002346" stroke-miterlimit="10"></circle>
  <circle cx="727.01" cy="522.45" r="4.02" fill="#e3e3e3" stroke="#002346" stroke-miterlimit="10"></circle>
  <circle cx="740.53" cy="522.45" r="4.02" fill="#e3e3e3" stroke="#002346" stroke-miterlimit="10"></circle>
  <rect x="781.08" y="498.7" width="11.69" height="4.02" fill="#c9c9c9" stroke="#002346" stroke-miterlimit="10"></rect>
  <rect x="781.08" y="506.1" width="11.69" height="4.02" fill="#c9c9c9" stroke="#002346" stroke-miterlimit="10"></rect>
  <rect x="781.08" y="513.5" width="11.69" height="4.02" fill="#c9c9c9" stroke="#002346" stroke-miterlimit="10"></rect>
  <rect x="781.08" y="520.9" width="11.69" height="4.02" fill="#c9c9c9" stroke="#002346" stroke-miterlimit="10"></rect>
  <rect x="800.81" y="498.7" width="11.69" height="33.61" fill="#c9c9c9" stroke="#002346" stroke-miterlimit="10"></rect>
  <rect x="781.08" y="528.3" width="11.69" height="4.02" fill="#c9c9c9" stroke="#002346" stroke-miterlimit="10"></rect>
  <rect x="780.35" y="486.65" width="9.13" height="5.12" fill="#c7404e" stroke="#002346" stroke-miterlimit="10"></rect>
  <rect x="804.1" y="486.65" width="9.13" height="5.12" fill="#252525" stroke="#002346" stroke-linecap="round" stroke-linejoin="round"></rect>
  <rect x="751.49" y="468.38" width="14.98" height="9.13" fill="#252525" stroke="#002346" stroke-linecap="round" stroke-linejoin="round"></rect>
  <path d="m696.01,458.11h9.57c3.56,0,6.44,2.88,6.44,6.44v12.96" fill="none" stroke="#002346" stroke-linecap="round" stroke-linejoin="round"></path>
  <path d="m771.65,346.66s16.99,1.98,21.45,16.01c2.41,7.58.07,15.97-6.04,21.07-4.98,4.16-13.11,6.99-25.71,1.69l-16.81-6.58s-15.73-7.35-23.57,4.18" fill="none" stroke="#002346" stroke-linecap="round" stroke-linejoin="round"></path>
  <rect x="653.2" y="545.47" width="113.27" height="20.46" fill="#fff" stroke="#002346" stroke-miterlimit="10"></rect>
  <rect x="605.7" y="565.57" width="208.27" height="7.67" fill="#002346" stroke="#002346" stroke-linecap="round" stroke-linejoin="round"></rect>
  <rect x="646.62" y="539.63" width="126.42" height="6.21" fill="#002346" stroke="#002346" stroke-linecap="round" stroke-linejoin="round"></rect>
  <polygon points="650.76 279.2 636.74 318.74 629.86 316.23 644.21 276.82 650.76 279.2" fill="#002346" stroke="#002346" stroke-linecap="round" stroke-linejoin="round"></polygon>
  <rect x="482.02" y="308.34" width="38.36" height="4.38" fill="#252525" stroke="#002346" stroke-linecap="round" stroke-linejoin="round"></rect>
  <rect x="447.13" y="621.38" width="14.34" height="20.54" fill="#002346" stroke="#002346" stroke-linecap="round" stroke-linejoin="round"></rect>
  <rect x="484.91" y="625.06" width="12.79" height="15.31" fill="#002346" stroke="#002346" stroke-linecap="round" stroke-linejoin="round"></rect>
  <path d="m457.98,528.75l-.78,10.86-26.35-11.24-1.35-13.4c1.45,1.89,3.88,3.31,7.95,2.53,1.39-.27,2.82.17,3.83,1.15,3.42,3.29,11.23,10.16,16.7,10.1Z" fill="#002346" stroke="#002346" stroke-linecap="round" stroke-linejoin="round"></path>
  <rect x="482.58" y="511.13" width="27.51" height="31.2" fill="#002346" stroke="#002346" stroke-linecap="round" stroke-linejoin="round"></rect>
  <ellipse cx="435.99" cy="224.94" rx="10.37" ry="10.46" fill="#002346" stroke="#002346" stroke-linecap="round" stroke-linejoin="round"></ellipse>
  <ellipse cx="506.51" cy="225.72" rx="10.37" ry="10.46" fill="#002346" stroke="#002346" stroke-linecap="round" stroke-linejoin="round"></ellipse>
  <circle cx="404.98" cy="314.75" r="15.02" fill="#002346" stroke="#002346" stroke-linecap="round" stroke-linejoin="round"></circle>
  <rect x="392.89" y="323.96" width="11.23" height="37.98" transform="translate(731.8 749.56) rotate(-170.06)" fill="#002346" stroke="#002346" stroke-linecap="round" stroke-linejoin="round"></rect>
  <path d="m378.34,423.74c0,4.24,2.58,6.73,3.98,7.77.52.38.87.57.87.57,5.62,2.97,9.39,3.21,11.64,2.82.7-.12,1.36-.39,1.94-.78.69-.46,1.27-1.09,1.66-1.84,8.33-15.7,12.33-66.1,12.64-70.09.02-.21.02-.42,0-.63-.65-5.9-16.25-7.76-16.25-7.76-12.81-1.04-14.8,7.05-15.07,8.79-.03.17-.04.35-.05.52l-1.35,60.64Z" fill="#438bc8" stroke="#002346" stroke-miterlimit="10"></path>
  <path d="m379.69,363.1s23.64-4.66,22.67,4.06l-.97,8.72-8.53,45.34s-1.03,14.55-14.46,3.49" fill="none" stroke="#002346" stroke-linecap="round" stroke-linejoin="round"></path>
  <path d="m379.5,441.57l16.08,7.17,4.07,4.84c0,10.08,6.01,9.11,6.01,9.11l-2.04-16.13c-.06-.48-.22-.95-.46-1.37l-6.3-11.05-.1-.02c-.58.39-1.23.65-1.94.78-2.26.39-6.02.15-11.64-2.82,0,0-.35-.18-.87-.57l-.18-.03-2.64,10.09Z" fill="#002346" stroke="#002346" stroke-linecap="round" stroke-linejoin="round"></path>
  <path d="m377.85,448.32c.24.47.63.87,1.13,1.14,3.96,2.07,12.66,6.01,15.75,2.46.26-.29.48-.64.65-1.05l1.55-12.59s-10.92.18-15.44-3.78l-3.83,11.74c-.23.71-.15,1.46.18,2.09Z" fill="#438bc8" stroke="#002346" stroke-miterlimit="10"></path>
  <path d="m377.85,448.32c-.22,13.65,12.36,19.32,17.98,21.18,1.2.39,2.37-.66,2.12-1.89l-3.21-15.69c-3.09,3.55-11.8-.39-15.75-2.46-.5-.26-.89-.66-1.13-1.14Z" fill="#002346" stroke="#002346" stroke-linecap="round" stroke-linejoin="round"></path>
  <circle cx="538.68" cy="314.75" r="15.02" fill="#002346" stroke="#002346" stroke-linecap="round" stroke-linejoin="round"></circle>
  <rect x="539.55" y="323.96" width="11.23" height="37.98" transform="translate(-51.03 99.28) rotate(-9.94)" fill="#002346" stroke="#002346" stroke-linecap="round" stroke-linejoin="round"></rect>
  <path d="m555.15,307.39l-30.52,16.76-5.23,55.68c-.25,2.63-1.75,4.99-4.03,6.32l-3.78,2.21-18.15,10.59-3.32,7.51c-1.16,2.62-3.75,4.31-6.62,4.31h-23.42c-2.92,0-5.55-1.75-6.67-4.44l-3.18-7.58-18.79-11.55-4.03-2.48c-2.1-1.29-3.48-3.5-3.71-5.96l-5.25-54.61-30.66-16.74c-1.64-.9-2.11-3.03-.99-4.53,5.38-7.19,18.89-25.21,28.54-21.94,12.21-5.62,39.14-9.11,39.14-9.11h29.15c4.78,0,9.54.47,14.22,1.44,14.95,3.1,28.72,8.83,28.72,8.83,10.22-7.24,24.67,12.86,29.74,20.68,1.03,1.58.5,3.7-1.16,4.61Z" fill="#438bc8" stroke="#002346" stroke-miterlimit="10"></path>
  <path d="m454.68,261.76h34.88v10.65c0,2.04-1.65,3.69-3.69,3.69h-27.49c-2.04,0-3.69-1.65-3.69-3.69v-10.65h0Z" fill="#002346" stroke="#002346" stroke-linecap="round" stroke-linejoin="round"></path>
  <path d="m483.36,203.85c-6.96-2.61-14.61-2.69-21.6-.16-10.18,3.69-24.7,12.62-33.23,34.24,0,0-7.17,16.08,9.49,22.67,0,0,35.46,9.49,68.78-.97,0,0,12.98-3.88,9.49-21.12,0,0-7.26-25.02-32.94-34.66Z" fill="#438bc8" stroke="#002346" stroke-miterlimit="10"></path>
  <circle cx="459.04" cy="215.35" r="2.23" fill="#002346" stroke="#002346" stroke-linecap="round" stroke-linejoin="round"></circle>
  <circle cx="472.02" cy="214.38" r="2.23" fill="#002346" stroke="#002346" stroke-linecap="round" stroke-linejoin="round"></circle>
  <circle cx="484.62" cy="214.96" r="2.23" fill="#002346" stroke="#002346" stroke-linecap="round" stroke-linejoin="round"></circle>
  <path d="m469.27,246.58l-5.86,6.26s-30.81.78-29.45-10.66c0,0,1.55-17.83,23.83-19.38,0,0,23.25-1.55,36.23,1.55,0,0,5.43.19,9.88,5.81,0,0,12.21,16.28.58,18.99,0,0-10.66,3.68-23.25,4.07l-6.58-6.71c-1.49-1.52-3.93-1.49-5.39.06Z" fill="#002346" stroke="#002346" stroke-linecap="round" stroke-linejoin="round"></path>
  <path d="m463.98,257.69s7.75,2.91,15.69,0" fill="none" stroke="#002346" stroke-linecap="round" stroke-linejoin="round"></path>
  <path d="m447.13,192.39s-6.39,7.94-9.49,21.89" fill="none" stroke="#002346" stroke-linecap="round" stroke-linejoin="round"></path>
  <path d="m496.54,192.2s6.2,8.91,9.98,23.06" fill="none" stroke="#002346" stroke-linecap="round" stroke-linejoin="round"></path>
  <line x1="415.35" y1="280.94" x2="418.45" y2="324.15" fill="none" stroke="#002346" stroke-linecap="round" stroke-linejoin="round"></line>
  <polyline points="423.24 372.54 453.91 388.28 461.08 399.72 482.97 399.72 489.75 388.28 519.9 372.54" fill="none" stroke="#002346" stroke-linecap="round" stroke-linejoin="round"></polyline>
  <path d="m421.37,354.92s16.84-5,17.81-18.76l1.94-44.18s.58-13.76-2.91-17.63" fill="none" stroke="#002346" stroke-linecap="round" stroke-linejoin="round"></path>
  <path d="m505.48,275.35s-2.55,4.43-2.74,11.98l1.94,46.31s1.49,19.64,16.83,20.47" fill="none" stroke="#002346" stroke-linecap="round" stroke-linejoin="round"></path>
  <line x1="524.63" y1="324.15" x2="526.57" y2="282.1" fill="none" stroke="#002346" stroke-linecap="round" stroke-linejoin="round"></line>
  <path d="m565.32,423.74c0,4.24-2.58,6.73-3.98,7.77-.52.38-.87.57-.87.57-5.62,2.97-9.39,3.21-11.64,2.82-.7-.12-1.36-.39-1.94-.78-.69-.46-1.27-1.09-1.66-1.84-8.33-15.7-12.33-66.1-12.64-70.09-.02-.21-.02-.42,0-.63.65-5.9,16.25-7.76,16.25-7.76,12.81-1.04,14.8,7.05,15.07,8.79.03.17.04.35.05.52l1.35,60.64Z" fill="#438bc8" stroke="#002346" stroke-miterlimit="10"></path>
  <path d="m563.97,363.1s-23.64-4.66-22.67,4.06l.97,8.72,8.53,45.34s1.22,14.55,14.66,3.49" fill="none" stroke="#002346" stroke-linecap="round" stroke-linejoin="round"></path>
  <path d="m564.16,441.57l-16.08,7.17-4.07,4.84c0,10.08-6.01,9.11-6.01,9.11l2.13-16.86,6.66-11.69.1-.02c.58.39,1.23.65,1.94.78,2.26.39,6.02.15,11.64-2.82,0,0,.35-.18.87-.57l.18-.03,2.64,10.09Z" fill="#002346" stroke="#002346" stroke-linecap="round" stroke-linejoin="round"></path>
  <path d="m565.81,448.32c-.24.47-.63.87-1.13,1.14-3.96,2.07-12.66,6.01-15.75,2.46,0,0,0,0,0,0-.41-.47-.65-1.06-.72-1.67l-1.47-11.97s10.92.18,15.44-3.78l3.83,11.74c.23.71.15,1.46-.18,2.09Z" fill="#438bc8" stroke="#002346" stroke-miterlimit="10"></path>
  <path d="m565.81,448.32c.22,13.65-12.36,19.32-17.98,21.18-1.2.39-2.37-.66-2.12-1.89l3.21-15.69c3.09,3.55,11.8-.39,15.75-2.46.5-.26.89-.66,1.13-1.14Z" fill="#002346" stroke="#002346" stroke-linecap="round" stroke-linejoin="round"></path>
  <path d="m512.04,406.06v5.28c-12.21,21.89-38.75,38.36-38.75,38.36v3.1h-4.65v-3.88s-21.12-12.21-38.75-38.17l-.13-5.05c-.03-1.37,1.23-2.4,2.57-2.1l4.92,1.14c-2.97-5-4.91-13.11-5.81-17.56l18.79,11.55,3.18,7.58c1.13,2.69,3.76,4.44,6.67,4.44h23.42c2.86,0,5.46-1.69,6.62-4.31l3.32-7.51,18.15-10.59c-.59,10.3-5.17,16.4-5.17,16.4l3.03-.73c1.32-.32,2.59.68,2.59,2.04Z" fill="#002346" stroke="#002346" stroke-linecap="round" stroke-linejoin="round"></path>
  <path d="m468.63,448.93v3.88l-4.84,67.43c-.4,6.27-2.74,8.48-5.81,8.52-5.47.06-13.28-6.82-16.7-10.1-1.02-.98-2.45-1.41-3.83-1.15-4.07.78-6.5-.64-7.95-2.53-1.96-2.56-2.13-5.98-2.13-5.98l-.39-93.59c0-5.62,2.91-4.65,2.91-4.65,17.63,25.96,38.75,38.17,38.75,38.17Z" fill="#438bc8" stroke="#002346" stroke-miterlimit="10"></path>
  <path d="m514.94,415.6v92.42c-.78,16.66-7.94,10.66-7.94,10.66-10.27-5.62-15.69,2.91-15.69,2.91l-4.65,6.01c-9.69,12.98-10.27-11.24-10.27-11.24l-3.1-63.55v-3.1s26.55-16.47,38.75-38.36c2.71-.97,2.91,4.26,2.91,4.26Z" fill="#438bc8" stroke="#002346" stroke-miterlimit="10"></path>
  <polygon points="449.45 413.47 494.02 413.47 494.02 424.9 473.09 439.82 469.22 439.82 449.65 425.68 449.45 413.47" fill="#438bc8" stroke="#002346" stroke-miterlimit="10"></polygon>
  <path d="m427.22,442.81s4.33,5.87,13.57,11.94c.92.6,1.44,1.66,1.37,2.76l-2.98,43.15s-6.68-.31-11.77-4.8" fill="none" stroke="#002346" stroke-linecap="round" stroke-linejoin="round"></path>
  <path d="m515.13,442.25l-19.01,13.13c-.82.57-1.29,1.53-1.22,2.53l2.8,40.78c.1,1.42,1.48,2.38,2.84,1.98l14.59-4.24" fill="none" stroke="#002346" stroke-linecap="round" stroke-linejoin="round"></path>
  <path d="m468.05,570.22l-6.3,62.47c-.12,1.21-1.54,1.8-2.48,1.03l-10.7-8.73c-1.35-1.12-2.33-2.63-2.8-4.33-.39-1.42-.79-2.98-1.19-4.68-3.98-16.74-8.52-45.74-11.35-65.08-1.31-8.98-2.26-15.88-2.62-18.49-.18-1.29-.24-2.59-.16-3.88.65-10.2,9.3-2.88,9.3-2.88l9.11,7.75,12,5.83c1.53.75,2.81,1.94,3.63,3.43,5.51,9.94,3.55,27.55,3.55,27.55Z" fill="#438bc8" stroke="#002346" stroke-miterlimit="10"></path>
  <path d="m490.73,532.29c-1.02,1.94-3.34,5.6-6.59,6.16,0,0-4.84-.39-4.65,6.39l1.55,48.44,2.35,37.08c.08,1.28,1.41,2.09,2.59,1.58l12.33-5.39c.48-.21.85-.61,1.01-1.11,1.71-5.14,11.26-34.81,14.07-65.29,0,0,2.52-23.83.39-30.61,0,0-.97-3.29-6.78-2.33,0,0-5.7-7.98-13.51.99-1.08,1.24-1.99,2.63-2.76,4.09Z" fill="#438bc8" stroke="#002346" stroke-miterlimit="10"></path>
  <ellipse cx="497.84" cy="579.42" rx="38.48" ry="8.82" transform="translate(-139.03 1001.3) rotate(-82.85)" fill="none" stroke="#002346" stroke-linecap="round" stroke-linejoin="round"></ellipse>
  <path d="m447.48,617.46c-.93.12-1.91-.4-2.9-1.47-3.98-16.74-8.52-45.74-11.35-65.08.8-5.86,2.34-9.52,4.5-9.8,4.83-.62,10.93,15.97,13.62,37.05,2.69,21.08.96,38.67-3.87,39.29Z" fill="none" stroke="#002346" stroke-linecap="round" stroke-linejoin="round"></path>
  <path d="m443.49,631.27l-34.86,15.8c-.63.29-1.04.92-1.04,1.61h0c0,.98.79,1.77,1.77,1.77h54.62v-9.27c0-1.73-1.4-3.13-3.13-3.13h-4.3c-.95,0-1.86-.38-2.52-1.06l-4.46-4.57c-1.58-1.62-4.01-2.08-6.08-1.14Z" fill="#438bc8" stroke="#002346" stroke-miterlimit="10"></path>
  <path d="m482.2,650.63h27.9l-10.46-17.44s-5.3-5.3-15.72,5c-.98.96-1.54,2.27-1.56,3.65l-.16,8.79Z" fill="#438bc8" stroke="#002346" stroke-miterlimit="10"></path>
  <rect x="409.34" y="650.44" width="54.45" height="1.94" fill="#002346" stroke="#002346" stroke-linecap="round" stroke-linejoin="round"></rect>
  <rect x="482.2" y="650.63" width="28.1" height="1.74" fill="#002346" stroke="#002346" stroke-linecap="round" stroke-linejoin="round"></rect>
  <path d="m481.09,366.58h-15.29c-4.71,0-8.59-3.68-8.83-8.39l-2.47-47.32c-.21-4.06,3.03-7.46,7.09-7.46h23.3c4.04,0,7.26,3.36,7.09,7.4l-2.04,47.3c-.2,4.73-4.1,8.47-8.84,8.47Z" fill="#002346" stroke="#002346" stroke-linecap="round" stroke-linejoin="round"></path>
  <rect x="467.28" y="312.14" width="12.01" height="3.29" fill="#c7404e" stroke="#002346" stroke-miterlimit="10"></rect>
  <rect x="462.82" y="324.54" width="20.93" height="6.39" fill="#c7404e" stroke="#002346" stroke-miterlimit="10"></rect>
  <rect x="462.82" y="316.79" width="20.93" height="6.39" fill="#c7404e" stroke="#002346" stroke-miterlimit="10"></rect>
  <rect x="462.82" y="332.29" width="20.93" height="6.39" fill="#c7404e" stroke="#002346" stroke-miterlimit="10"></rect>
  <rect x="462.82" y="340.04" width="20.93" height="6.39" fill="#c7404e" stroke="#002346" stroke-miterlimit="10"></rect>
  <rect x="462.82" y="347.79" width="20.93" height="6.39" fill="#c7404e" stroke="#002346" stroke-miterlimit="10"></rect>
  <ellipse cx="453.04" cy="238.22" rx="2.42" ry="5.13" fill="#c7404e" stroke="#002346" stroke-miterlimit="10"></ellipse>
  <ellipse cx="490.82" cy="238.41" rx="2.42" ry="5.13" fill="#c7404e" stroke="#002346" stroke-miterlimit="10"></ellipse>
  <rect x="469.27" y="157.54" width="3.04" height="27.35" transform="translate(941.58 342.44) rotate(-180)" fill="#c7404e" stroke="#002346" stroke-miterlimit="10"></rect>
  <rect x="463.95" y="138.55" width="12.92" height="20.9" transform="translate(940.82 297.99) rotate(-180)" fill="#fff" stroke="#002346" stroke-miterlimit="10"></rect>
  <rect x="454.83" y="78.14" width="31.91" height="36.47" transform="translate(941.58 192.75) rotate(-180)" fill="#fff" stroke="#002346" stroke-miterlimit="10"></rect>
  <rect x="89.72" y="436.79" width="11.4" height="7.79" transform="translate(190.85 881.36) rotate(-180)" fill="#c7404e" stroke="#002346" stroke-miterlimit="10"></rect>
  <rect x="105.68" y="436.79" width="11.4" height="7.79" transform="translate(222.76 881.36) rotate(-180)" fill="#252525" stroke="#002346" stroke-linecap="round" stroke-linejoin="round"></rect>
  <rect x="122.02" y="436.79" width="7.98" height="7.79" transform="translate(252.02 881.36) rotate(-180)" fill="#002346" stroke="#002346" stroke-linecap="round" stroke-linejoin="round"></rect>
  <rect x="76.43" y="443.62" width="67.25" height="26.59" transform="translate(220.1 913.84) rotate(-180)" fill="#e3e3e3" stroke="#002346" stroke-miterlimit="10"></rect>
  <polygon points="221.23 253.3 114.42 157.54 86.31 192.11 182.21 286.51 221.23 253.3" fill="#c7404e" stroke="#002346" stroke-miterlimit="10"></polygon>
  <polygon points="223.46 60.28 124.3 171.6 78.75 144.29 195.72 27.99 223.46 60.28" fill="#c7404e" stroke="#002346" stroke-miterlimit="10"></polygon>
  <rect x="141.01" y="319.01" width="128.79" height="15.96" transform="translate(410.82 653.98) rotate(-180)" fill="#002346" stroke="#002346" stroke-linecap="round" stroke-linejoin="round"></rect>
  <rect x="205.03" y="318.12" width="22.63" height="73.12" rx="11.31" ry="11.31" transform="translate(-42.56 679.59) rotate(-110.07)" fill="#e3e3e3" stroke="#002346" stroke-miterlimit="10"></rect>
  <rect x="199.63" y="335.65" width="22.63" height="84.18" rx="11.31" ry="11.31" transform="translate(636.59 300.23) rotate(108.86)" fill="#c9c9c9" stroke="#002346" stroke-miterlimit="10"></rect>
  <rect x="198.49" y="351.99" width="22.63" height="84.18" rx="11.31" ry="11.31" transform="translate(551.83 107.15) rotate(78.04)" fill="#e3e3e3" stroke="#002346" stroke-miterlimit="10"></rect>
  <rect x="197.73" y="367.57" width="22.63" height="84.18" rx="11.31" ry="11.31" transform="translate(662.2 331.14) rotate(107.2)" fill="#c9c9c9" stroke="#002346" stroke-miterlimit="10"></rect>
  <rect x="141.39" y="411.71" width="129.17" height="47.49" transform="translate(411.96 870.91) rotate(-180)" fill="#c7404e" stroke="#002346" stroke-miterlimit="10"></rect>
  <rect x="134.56" y="459.2" width="143.61" height="11.02" transform="translate(412.72 929.42) rotate(-180)" fill="#002346" stroke="#002346" stroke-linecap="round" stroke-linejoin="round"></rect>
  <rect x="43.75" y="470.22" width="259.87" height="12.54" transform="translate(347.38 952.98) rotate(-180)" fill="#fff" stroke="#002346" stroke-miterlimit="10"></rect>
  <path d="m141.2,421.5h-6.49c-4.91,0-8.89,3.98-8.89,8.89v7.15" fill="none" stroke="#002346" stroke-linecap="round" stroke-linejoin="round"></path>
  <rect x="208.26" y="420.07" width="54.33" height="27.35" transform="translate(470.85 867.49) rotate(-180)" fill="#fff" stroke="#002346" stroke-miterlimit="10"></rect>
  <circle cx="251.95" cy="429.19" r="4.56" fill="none" stroke="#002346" stroke-linecap="round" stroke-linejoin="round"></circle>
  <circle cx="235.62" cy="429.19" r="4.56" fill="none" stroke="#002346" stroke-linecap="round" stroke-linejoin="round"></circle>
  <circle cx="219.66" cy="429.19" r="4.56" fill="none" stroke="#002346" stroke-linecap="round" stroke-linejoin="round"></circle>
  <rect x="151.27" y="420.83" width="49.77" height="6.46" transform="translate(352.32 848.12) rotate(-180)" fill="#fff" stroke="#002346" stroke-miterlimit="10"></rect>
  <rect x="151.27" y="439.45" width="49.77" height="6.46" transform="translate(352.32 885.35) rotate(-180)" fill="#fff" stroke="#002346" stroke-miterlimit="10"></rect>
  <path d="m180.91,277.98c0,2.97.46,5.84,1.3,8.54,3.63,11.56,14.43,19.96,27.2,19.96,12.75,0,23.54-8.37,27.18-19.92.85-2.71,1.31-5.58,1.31-8.57,0-15.74-12.76-28.49-28.49-28.49-15.74,0-28.49,12.76-28.49,28.49Z" fill="#fff" stroke="#002346" stroke-miterlimit="10"></path>
  <circle cx="209.4" cy="277.98" r="22.42" fill="#c7404e" stroke="#002346" stroke-miterlimit="10"></circle>
  <path d="m175.38,319.2h67.77s-6.57-32.65-6.57-32.65c-3.64,11.55-14.43,19.92-27.18,19.92-12.76,0-23.57-8.39-27.2-19.96l-6.83,32.68Z" fill="#c7404e" stroke="#002346" stroke-miterlimit="10"></path>
  <circle cx="95.23" cy="167.61" r="28.68" fill="#fff" stroke="#002346" stroke-miterlimit="10"></circle>
  <circle cx="95.23" cy="167.61" r="21.47" fill="#c7404e" stroke="#002346" stroke-miterlimit="10"></circle>
  <polygon points="234.86 28.37 369.73 77.76 358.71 105.87 221.97 55.86 234.86 28.37" fill="#c7404e" stroke="#002346" stroke-miterlimit="10"></polygon>
  <rect x="379.23" y="80.8" width="53.95" height="30.77" transform="translate(812.4 192.37) rotate(-180)" fill="#c7404e" stroke="#002346" stroke-miterlimit="10"></rect>
  <path d="m452.93,86.12h26.21v20.52h-26.21c-5.66,0-10.26-4.6-10.26-10.26h0c0-5.66,4.6-10.26,10.26-10.26Z" transform="translate(921.82 192.75) rotate(180)" fill="#c7404e" stroke="#002346" stroke-miterlimit="10"></path>
  <circle cx="468.7" cy="96.18" r="3.99" fill="#fff" stroke="#002346" stroke-miterlimit="10"></circle>
  <path d="m454.83,70.54h31.91v2.05c0,3.06-2.49,5.55-5.55,5.55h-20.81c-3.06,0-5.55-2.49-5.55-5.55v-2.05h0Z" transform="translate(941.58 148.68) rotate(-180)" fill="#002346" stroke="#002346" stroke-linecap="round" stroke-linejoin="round"></path>
  <rect x="459.01" y="114.61" width="23.56" height="14.44" transform="translate(941.58 243.66) rotate(-180)" fill="#002346" stroke="#002346" stroke-linecap="round" stroke-linejoin="round"></rect>
  <rect x="459.77" y="129.81" width="22.04" height="10.26" transform="translate(941.58 269.87) rotate(-180)" fill="#002346" stroke="#002346" stroke-linecap="round" stroke-linejoin="round"></rect>
  <path d="m471.38,70.44s-3.86-27.67-35.1-14.45c-3.44,1.46-6.69,3.34-9.7,5.55-7.12,5.2-24.83,17.71-37.09,19.27" fill="none" stroke="#002346" stroke-linecap="round" stroke-linejoin="round"></path>
  <path d="m202.07,17.92s-41.76-8.17-56.16,59.08" fill="none" stroke="#002346" stroke-linecap="round" stroke-linejoin="round"></path>
  <path d="m144.75,249.56s6.97,33.59,33.34,53.23" fill="none" stroke="#002346" stroke-linecap="round" stroke-linejoin="round"></path>
  <rect x="164.95" y="334.97" width="82.82" height="17.48" transform="translate(412.72 687.41) rotate(-180)" fill="#fff" stroke="#002346" stroke-miterlimit="10"></rect>
  <circle cx="215.67" cy="38.44" r="24.7" fill="#fff" stroke="#002346" stroke-miterlimit="10"></circle>
  <circle cx="215.67" cy="38.44" r="18.48" fill="#c7404e" stroke="#002346" stroke-miterlimit="10"></circle>
  <rect x="280.47" y="41.18" width="34.37" height="51.29" transform="translate(458.29 -192.52) rotate(109.12)" fill="#002346" stroke="#002346" stroke-linecap="round" stroke-linejoin="round"></rect>
  <rect x="269.85" y="38.42" width="6.55" height="41.03" transform="translate(512.61 202.87) rotate(-161.17)" fill="#002346" stroke="#002346" stroke-linecap="round" stroke-linejoin="round"></rect>
  <rect x="261.49" y="35.39" width="6.55" height="41.03" transform="translate(497.32 194.26) rotate(-161.17)" fill="#002346" stroke="#002346" stroke-linecap="round" stroke-linejoin="round"></rect>
  <rect x="323.8" y="57.04" width="6.55" height="41.03" transform="translate(611.61 256.52) rotate(-161.17)" fill="#002346" stroke="#002346" stroke-linecap="round" stroke-linejoin="round"></rect>
  <rect x="315.44" y="54" width="6.55" height="41.03" transform="translate(596.32 247.91) rotate(-161.17)" fill="#002346" stroke="#002346" stroke-linecap="round" stroke-linejoin="round"></rect>
  <circle cx="375.05" cy="95.99" r="20.9" fill="#fff" stroke="#002346" stroke-miterlimit="10"></circle>
  <circle cx="374.86" cy="96.18" r="16.53" fill="#c7404e" stroke="#002346" stroke-miterlimit="10"></circle>
  <rect x="430.9" y="73.96" width="4.94" height="43.69" transform="translate(866.73 191.61) rotate(-180)" fill="#002346" stroke="#002346" stroke-linecap="round" stroke-linejoin="round"></rect>
  <rect x="433.56" y="91.43" width="9.12" height="8.36" transform="translate(876.23 191.23) rotate(-180)" fill="#002346" stroke="#002346" stroke-linecap="round" stroke-linejoin="round"></rect>
  <rect x="437.36" y="77.76" width="7.98" height="37.23" transform="translate(882.69 192.75) rotate(-180)" fill="#002346" stroke="#002346" stroke-linecap="round" stroke-linejoin="round"></rect>
  <rect x="454.64" y="127.53" width="32.29" height="3.42" transform="translate(941.58 258.47) rotate(-180)" fill="#fff" stroke="#002346" stroke-miterlimit="10"></rect>
  <polygon points="219.37 207.37 232.91 227.2 190.5 233.71 184.73 214.89 188.49 205.6 206.57 202.6 219.37 207.37" fill="#eeafbd" stroke="#002346" stroke-miterlimit="10"></polygon>
  <path d="m216.74,659.66l.75,4.27c.5,4.02,5.27,4.52,5.27,4.52,12.3,2.51,19.33-2.5,19.33-2.5,2.59-2.12,1.41-9.43,1.25-10.34-.14,0-.28,0-.42,0l-25.68-.47c-.75,2.26-.5,4.52-.5,4.52Z" fill="#c7404e" stroke="#002346" stroke-miterlimit="10"></path>
  <path d="m182.73,658.31c.15,3.65,6.9,4.35,6.9,4.35,11.04,1.26,16.32-2.25,16.32-2.25,3.27-2.34,2.88-6.24,2.81-6.76-1.29,1.08-4.3,2.43-11.34,3l-14.68,1.67Z" fill="#c7404e" stroke="#002346" stroke-miterlimit="10"></path>
  <path d="m257.99,337.64l-.73-3.23c-.26.08-.54.15-.82.21-.93.21-1.81.59-2.61,1.11-.89.58-2.29,1.34-4.18,1.97-1.21.4-2.45.66-3.71.83l-5.59.74c-.53.07-1.05.22-1.54.45-.88.41-2.66,1.02-4.91.67l-5.77,1s-2.26,1-5.77.25c0,0-5.77-1.26-9.54-1.26,0,0-10.04-.25-18.32-1.01l-3.51-.25s-11.8,1.25-18.57-4.77c-6.28,13.05-9.55,33.63-9.55,33.63-5.78,26.35-4.28,50.2-4.28,50.2l1.47,147.33-.75,81.61c-.02,2.01.99,3.88,2.68,4.96l10.52,6.76c.53.34,1.17.49,1.8.41l8.44-.96,14.68-1.67c7.05-.56,10.06-1.92,11.34-3,1-.84.96-1.52.96-1.52l-.49-44.43,2.28-69.52,3.02-134.18c0-.31.14-.58.34-.78.2-.2.48-.32.79-.32.64,0,1.14.52,1.13,1.15l-3.28,156.72-2.52,37.15c-2.26,18.57,3.5,47.44,3.5,47.44l.25,5.52c.75,4.27,2.51,4.27,2.51,4.27l1.69.03,21.64.39,2.35.04c.14,0,.28,0,.42,0,1.31-.05,2.58-.45,3.68-1.17,3.95-2.58,9.08-4.09,12.03-4.8,1.08-.26,2.17-.45,3.27-.62,3.8-.59,6.56-2.34,8.24-3.74,1.22-1.02,1.88-2.55,1.78-4.14l-8.36-132.57v-35.14s3.04-76.55,3.04-76.55c0,0,.76-41.16-9.02-59.24Z" fill="#252525" stroke="#002346" stroke-linecap="round" stroke-linejoin="round"></path>
  <path d="m218.93,655.17h0c3.57,5.13,20.48.71,21.64.39l-21.64-.39Z" fill="#eeafbd" stroke="#002346" stroke-miterlimit="10"></path>
  <path d="m260.87,218.19s8.44,2.49,9.7,11.78l-11.31,2.2s-.55-3.68,1.62-13.98Z" fill="#eeafbd" stroke="#002346" stroke-miterlimit="10"></path>
  <path d="m259.82,325c.08,1.44.26,2.87.48,4.3.66,4.26-.95,18.33-51.51,16.61,0,0-31.38.47-37.22-10.15-.38-.7-.81-1.37-1.32-1.98l-.42-.5c-1.24-1.49-1.83-3.44-1.51-5.36.18-1.04.62-2.08,1.57-2.85l4.38-4.72c1.31-1.41,2.01-3.28,1.94-5.21-.13-3.55.02-9.99,1.99-17.24l-20.59-40.36s-7.14-10.64-3.99-20.41c1.05-3.24,3.26-5.98,6.15-7.79l11.9-7.43,22.61,1.1c10.24,8.02,24.99,4.16,30.84,2.14,2.45-.85,4.66-2.3,6.32-4.29,1.73-2.07,3.11-4.96,1.73-8.22l7.09,1.31c1.45.27,2.92.4,4.4.4,2.62,0,7.48.19,12.11,1.56l4.27,1.51s-2.26,10.29-1.76,18.32l-1.42,55.22c-.06,2.23.08,4.46.38,6.67l1.59,27.38Z" fill="#c7404e" stroke="#002346" stroke-miterlimit="10"></path>
  <path d="m222.38,206.11s-1.32,2.07-3.92,3.42c2.35,12.96,17.72,20.68,17.72,20.68l10.47,5.25,12.25-3.98c-1.62-.5-4.9-4.27-4.9-4.27-3.26-5.02-10.29-8.03-10.29-8.03,5.77.25,10.54,3.52,10.54,3.52-1.23-1.69-4.26-2.92-6.41-3.61-1.16-.37-2.36-.59-3.58-.73-3.32-.39-6.32-2.19-6.32-2.19,0,0-8.53-4.66-12.67-16.52,0,0-.63,2.96-2.89,6.47Z" fill="#002346" stroke="#002346" stroke-linecap="round" stroke-linejoin="round"></path>
  <path d="m286.61,299.75s-.26,17.82-13.06,20.83c0,0-5.02,1.25-7.78-1.76-3.76-4.27-6.85-19.78-6.85-19.78-.78-2.69-1.13-5.49-1.03-8.3l.27-8.02,38.15-8.74s-2.67,11.46-8.7,18.23l-1.01,7.53Z" fill="#eeafbd" stroke="#002346" stroke-miterlimit="10"></path>
  <path d="m268.47,280.23s.58.44,1.33,4.2c0,0,1,4.78,2.46,6.71.26.34.33.77.25,1.19-.05.25-.05.56.09.93.11.29.04.61-.18.82l-8.39,7.91" fill="none" stroke="#002346" stroke-linecap="round" stroke-linejoin="round"></path>
  <path d="m195.52,208.62s0,4.93,3.17,8.65c.74.87,1.39,1.8,1.87,2.84,1.35,2.88,2.84,8.38-.53,15.13,0,0-5.27,7.03-7.53,11.29,0,0,.25-2.76,3.77-7.53,0,0,8.03-8.28,1.76-17.07,0,0-3.01-4.77-7.28-5.27l4.77-8.03Z" fill="#002346" stroke="#002346" stroke-linecap="round" stroke-linejoin="round"></path>
  <path d="m201.05,190.55l.76-16.06c1.51-9.26,8.19-17.4,10.06-19.54.36-.41.84-.7,1.37-.8,1.57-.29,2.81.39,3.66,1.17.75.69,1.3,1.57,1.64,2.54l4.23,11.99,1.87,6.23c1.53,5.12,2.22,10.46,1.91,15.79-.28,4.69-1.34,9.96-4.16,14.24,0,0-5.78,10.29-23.84-1.01,0,0,2.76-6.27,2.51-14.56Z" fill="#eeafbd" stroke="#002346" stroke-miterlimit="10"></path>
  <path d="m315.3,221.56l-3.94,47.4c-.08,1-.8,1.83-1.78,2.06l-63.44,14.6c-1.22.28-2.37-.69-2.3-1.94l2.53-47.36c.07-1.24.95-2.28,2.17-2.55l64.65-14.09c1.16-.25,2.23.69,2.13,1.87Z" fill="#fff" stroke="#002346" stroke-miterlimit="10"></path>
  <path d="m245.2,261.34l.22-4.66c0-.08-.1-.12-.14-.05-.56.95-2.16,3.97-4.94,7.43-.38.47-.83.88-1.33,1.22-1.06.74-3.15,2.46-4.6,5.34l-1.76,4.02s-1.51,2.76-4.77,5.02l-27.11,15.55-19.31-49.45c-6.22-12.27-14.12-13.29-18.67-12.62-2.82.41-5.28,2.23-6.39,4.86-1.47,3.48-1.4,7.87-.84,11.74.64,4.45,2.03,8.76,4.04,12.78l7.05,14.1c13.55,29.37,22.08,37.91,22.08,37.91,10.79,10.29,27.11-4.51,27.11-4.51l17.57-14.8c3.65-3.46,5.97-3.53,6.97-3.71.28-.05.57-.04.86,0,3.61.57,6.23-1.81,6.23-1.81l6.53-5.77,10.8-12.55c1.51-1.76.25-2.51.25-2.51,0,0-.75.5,3.26-2.26,4.02-2.76.5-4.77.5-4.77,2.51-1,2.01-3.26,2.01-3.26-.75-2.76-4.77-1.01-4.77-1.01l-6.28,3.01c-3.01,1.76-5.52,2.51-5.52,2.51l8.03-5.02c3.77-2.01,2.51-4.27,2.51-4.27-1-2.76-8.79,1.5-8.79,1.5l-10.79,6.02Z" fill="#eeafbd" stroke="#002346" stroke-miterlimit="10"></path>
  <line x1="268.8" y1="261.85" x2="250.22" y2="272.89" fill="none" stroke="#002346" stroke-linecap="round" stroke-linejoin="round"></line>
  <path d="m254.49,262.85s-2.51,1.25-4.02,2.26l-3.51,2.01" fill="none" stroke="#002346" stroke-linecap="round" stroke-linejoin="round"></path>
  <line x1="245.28" y1="261.26" x2="242.52" y2="263.27" fill="none" stroke="#002346" stroke-linecap="round" stroke-linejoin="round"></line>
  <line x1="200.77" y1="295.21" x2="195" y2="298.22" fill="none" stroke="#002346" stroke-linecap="round" stroke-linejoin="round"></line>
  <path d="m226.4,184.53s4.27-13.55-1-30.37c0,0-1.97-6.28-9.8-11.4-15.89-10.38-37.17-4.68-46.37,11.92-1.66,3-3.14,6.47-4.32,10.51,0,0-2.51,8.03,0,18.82l1,9.04s-2.51,18.57,7.52,31.63c0,0,7.03,6.03,6.02,23.34,0,0-2.77,23.59,12.79,23.09,0,0-5.18-9.67-3.07-21.42.62-3.45,2.06-6.69,4.08-9.56,1.75-2.49,3.94-6.91,2.23-11.82-.45-1.3-.84-2.62-1.06-3.98-.25-1.53-.49-3.53-.48-5.69.02-2.9.8-5.74,2.2-8.27,2.01-3.62,5.45-11.21,4.91-19.83l.76-16.06s1.03-8.96,10.06-19.54c0,0,.5-.56,1.37-.8,0,0,3.71-.62,5.3,3.71l4.23,11.99,1.87,6.23s1.27,3.68,1.77,8.45Z" fill="#002346" stroke="#002346" stroke-linecap="round" stroke-linejoin="round"></path>
  <line x1="265.03" y1="268.87" x2="252.23" y2="278.16" fill="none" stroke="#002346" stroke-linecap="round" stroke-linejoin="round"></line>
  <rect x="562" y="68.01" width="148" height="128.47" rx="14.9" ry="14.9" fill="#fff" stroke="#002346" stroke-miterlimit="10"></rect>
  <path d="m710,82.92v10.79h-148v-10.79c0-8.22,6.68-14.9,14.9-14.9h118.19c8.22,0,14.9,6.68,14.9,14.9Z" fill="#e3e3e3" stroke="#002346" stroke-miterlimit="10"></path>
  <circle cx="669.92" cy="80.86" r="4.11" fill="#fff" stroke="#002346" stroke-miterlimit="10"></circle>
  <circle cx="683.28" cy="80.86" r="4.11" fill="#fff" stroke="#002346" stroke-miterlimit="10"></circle>
  <circle cx="696.64" cy="80.86" r="4.11" fill="#fff" stroke="#002346" stroke-miterlimit="10"></circle>
  <line x1="575.36" y1="112.21" x2="692.53" y2="112.21" fill="none" stroke="#002346" stroke-linecap="round" stroke-linejoin="round"></line>
  <line x1="595.92" y1="122.49" x2="651.42" y2="122.49" fill="none" stroke="#002346" stroke-linecap="round" stroke-linejoin="round"></line>
  <line x1="658.61" y1="122.49" x2="691.5" y2="122.49" fill="none" stroke="#002346" stroke-linecap="round" stroke-linejoin="round"></line>
  <line x1="575.36" y1="132.76" x2="589.75" y2="132.76" fill="none" stroke="#002346" stroke-linecap="round" stroke-linejoin="round"></line>
  <line x1="574.33" y1="143.04" x2="588.72" y2="143.04" fill="none" stroke="#002346" stroke-linecap="round" stroke-linejoin="round"></line>
  <line x1="595.92" y1="132.76" x2="671.97" y2="132.76" fill="none" stroke="#002346" stroke-linecap="round" stroke-linejoin="round"></line>
  <line x1="596.94" y1="143.04" x2="673" y2="143.04" fill="none" stroke="#002346" stroke-linecap="round" stroke-linejoin="round"></line>
  <line x1="596.94" y1="153.32" x2="650.39" y2="153.32" fill="none" stroke="#002346" stroke-linecap="round" stroke-linejoin="round"></line>
  <line x1="596.94" y1="163.6" x2="623.67" y2="163.6" fill="none" stroke="#002346" stroke-linecap="round" stroke-linejoin="round"></line>
  <line x1="596.94" y1="175.93" x2="693.56" y2="175.93" fill="none" stroke="#002346" stroke-linecap="round" stroke-linejoin="round"></line>
  <line x1="656.56" y1="153.32" x2="691.5" y2="153.32" fill="none" stroke="#002346" stroke-linecap="round" stroke-linejoin="round"></line>
  <line x1="677.11" y1="132.76" x2="691.5" y2="132.76" fill="none" stroke="#002346" stroke-linecap="round" stroke-linejoin="round"></line>
  <line x1="677.11" y1="143.04" x2="691.5" y2="143.04" fill="none" stroke="#002346" stroke-linecap="round" stroke-linejoin="round"></line>
  <line x1="562.03" y1="137.4" x2="527.5" y2="137.4" fill="none" stroke="#002346" stroke-linecap="round" stroke-linejoin="round"></line>
  <circle cx="523" cy="137" r="4.5" fill="#c7404e" stroke="#002346" stroke-miterlimit="10"></circle>
  <path d="m248,101.67c-12.15,0-22,9.85-22,22,0,6.98,3.26,13.18,8.32,17.21l-1.66,7.45,9-3.6c2.01.6,4.13.93,6.33.93,12.15,0,22-9.85,22-22s-9.85-22-22-22Z" fill="#252525" stroke="#002346" stroke-linecap="round" stroke-linejoin="round"></path>
  <polyline points="239.33 123 247.33 131 256.67 117.67" fill="none" stroke="#002346" stroke-linecap="round" stroke-linejoin="round"></polyline>
</svg>
