<?xml version="1.0" encoding="utf-8"?>
<!-- Uploaded to: SVG Repo, www.svgrepo.com, Generator: SVG Repo Mixer Tools -->
<svg width="800px" height="800px" viewBox="0 0 1024 1024" fill="#000000" class="icon"  version="1.1" xmlns="http://www.w3.org/2000/svg"><path d="M1015.788 1023.676H8.21a7.99 7.99 0 0 1-7.996-7.996v-47.98c0-68.642 35.554-94.928 101.16-119.434l17.132-6.358c33.462-12.354 84.028-31.018 126.322-50.056a7.998 7.998 0 0 1 6.56 14.588c-42.794 19.274-93.68 38.046-127.346 50.478l-17.078 6.326c-61.49 22.974-90.76 44.464-90.76 104.456v39.984h991.584V967.7c0-59.99-29.27-81.48-90.76-104.456l-16.79-6.216c-33.768-12.462-84.746-31.284-127.664-50.62a7.996 7.996 0 0 1-4.016-10.574 8.028 8.028 0 0 1 10.574-4.014c42.42 19.118 93.086 37.812 126.634 50.198l16.852 6.248c65.614 24.506 101.162 50.792 101.162 119.434v47.98a7.984 7.984 0 0 1-7.992 7.996zM248.578 367.952c-4.412 0-8.074-3.576-8.074-7.996s3.498-7.996 7.918-7.996h0.156c4.42 0 7.998 3.576 7.998 7.996s-3.578 7.996-7.998 7.996zM296.558 351.96c-4.412 0-8.074-3.578-8.074-7.998s3.498-7.998 7.918-7.998h0.156a7.992 7.992 0 0 1 7.996 7.998 7.992 7.992 0 0 1-7.996 7.998zM344.54 367.952c-4.412 0-8.076-3.576-8.076-7.996s3.5-7.996 7.92-7.996h0.156c4.42 0 7.996 3.576 7.996 7.996s-3.578 7.996-7.996 7.996zM392.518 351.96c-4.412 0-8.074-3.578-8.074-7.998s3.498-7.998 7.918-7.998h0.156a7.994 7.994 0 0 1 7.998 7.998 7.994 7.994 0 0 1-7.998 7.998zM440.498 367.952c-4.412 0-8.074-3.576-8.074-7.996s3.498-7.996 7.918-7.996h0.156c4.42 0 7.996 3.576 7.996 7.996s-3.576 7.996-7.996 7.996zM488.478 351.96c-4.412 0-8.076-3.578-8.076-7.998s3.5-7.998 7.92-7.998h0.156a7.992 7.992 0 0 1 7.996 7.998 7.992 7.992 0 0 1-7.996 7.998zM536.458 367.952c-4.42 0-8.09-3.576-8.09-7.996s3.498-7.996 7.934-7.996h0.156a8 8 0 0 1 7.996 7.996 8 8 0 0 1-7.996 7.996zM584.438 351.96c-4.42 0-8.09-3.578-8.09-7.998s3.498-7.998 7.934-7.998h0.156a8 8 0 0 1 7.996 7.998 8.002 8.002 0 0 1-7.996 7.998zM632.418 367.952c-4.422 0-8.092-3.576-8.092-7.996s3.498-7.996 7.936-7.996h0.156a8 8 0 0 1 7.996 7.996 8 8 0 0 1-7.996 7.996zM680.396 351.96c-4.42 0-8.09-3.578-8.09-7.998s3.498-7.998 7.934-7.998h0.156a8.004 8.004 0 0 1 7.998 7.998 8.004 8.004 0 0 1-7.998 7.998zM728.376 367.952c-4.42 0-8.09-3.576-8.09-7.996s3.498-7.996 7.934-7.996h0.156a8 8 0 0 1 7.996 7.996 8 8 0 0 1-7.996 7.996zM776.358 351.96c-4.42 0-8.092-3.578-8.092-7.998s3.5-7.998 7.936-7.998h0.156a8 8 0 0 1 7.996 7.998 8.002 8.002 0 0 1-7.996 7.998zM384.208 695.798h-0.008c-56.688 0-131.336-30.222-158.136-80.81-11.502-21.694-19.094-56.586 10.074-99.59a7.98 7.98 0 0 1 8.878-3.178 8.018 8.018 0 0 1 5.732 7.502c0.07 3.312 2.366 81.084 55.968 81.084 6.066 0 12.712-0.982 19.734-2.904 25.472-7.014 47.948-15.51 67.784-22.99 28.636-10.808 51.252-19.336 70.994-19.336 14.174 0 25.722 4.482 35.32 13.712 20.82 20.024 21.226 39.376 17.906 52.088-7.91 30.22-44.628 55.914-100.746 70.486-10.072 2.608-21.346 3.936-33.5 3.936z m-146.476-149.984c-8.692 21.506-7.88 42.17 2.458 61.694 23.982 45.246 92.054 72.296 144.01 72.296h0.008c10.8 0 20.718-1.156 29.488-3.42 48.862-12.698 83.074-35.33 89.284-59.052 3.264-12.464-1.29-24.756-13.52-36.516-17.632-16.978-46.402-7.232-89.57 9.058-20.164 7.606-43.014 16.226-69.19 23.442-8.412 2.312-16.478 3.484-23.982 3.484-43.068 0-62.262-38.234-68.986-70.986z" fill="" /><path d="M639.79 695.798c-12.15 0-23.428-1.328-33.518-3.936-56.102-14.572-92.82-40.266-100.73-70.486-3.318-12.698-2.912-32.064 17.906-52.088 9.606-9.23 21.146-13.712 35.314-13.712 19.74 0 42.356 8.528 71 19.336 19.836 7.48 42.31 15.976 67.786 22.99 7.028 1.922 13.666 2.904 19.74 2.904 53.604 0 55.882-77.772 55.96-81.084a8.008 8.008 0 0 1 5.732-7.502 7.972 7.972 0 0 1 8.872 3.178c29.176 43.004 21.586 77.896 10.09 99.606-26.802 50.572-101.458 80.794-158.152 80.794z m-81.028-124.228c-9.964 0-17.666 2.936-24.224 9.246-12.23 11.76-16.784 24.05-13.518 36.516 6.208 23.722 40.412 46.356 89.282 59.052 50.918 13.166 144.534-14.212 173.506-68.876 10.34-19.508 11.152-40.188 2.452-61.694-6.714 32.752-25.91 70.986-68.97 70.986-7.512 0-15.586-1.172-23.99-3.484-26.176-7.214-49.026-15.836-69.188-23.442-27.118-10.23-48.514-18.304-65.35-18.304z" fill="" /><path d="M512 663.828c-12.3 0-20.46-2.454-24.952-7.498-3.608-4.044-3.444-8.23-3.302-9.418 0.508-4.374 4.506-7.558 8.864-7.012a7.98 7.98 0 0 1 6.856 6.076c1.156 0.608 4.506 1.858 12.536 1.858 8.02 0 11.37-1.25 12.526-1.858a7.972 7.972 0 0 1 6.84-6.076c4.404-0.562 8.374 2.624 8.874 7.012 0.156 1.188 0.312 5.358-3.282 9.418-4.502 5.046-12.662 7.498-24.96 7.498z" fill="" /><path d="M512 687.816c-44.248 0-50.364-18.618-51.142-22.35a8.008 8.008 0 0 1 6.2-9.464c4.186-0.826 8.224 1.656 9.34 5.686 0.39 0.828 5.538 10.136 35.604 10.136 31.298 0 35.578-10.074 35.61-10.184 0.906-4.326 5.108-6.84 9.372-5.92 4.342 0.89 7.028 5.404 6.152 9.73-0.782 3.734-6.874 22.366-51.136 22.366zM767.89 405.656c-6.512 0-12.712-0.656-17.446-1.842-8.856-2.186-21.194-1.952-28.114-0.234-11.416 2.842-26.378 2.608-35.86 0.234-8.856-2.186-21.196-1.952-28.114-0.234-11.418 2.842-26.378 2.608-35.86 0.234-8.856-2.186-21.196-1.952-28.114-0.234-11.418 2.842-26.378 2.608-35.86 0.234-8.856-2.186-21.196-1.952-28.114-0.234-11.386 2.842-26.38 2.608-35.862 0.234-8.84-2.186-21.202-1.952-28.122-0.234-11.384 2.842-26.378 2.608-35.86 0.234-8.824-2.186-21.194-1.952-28.114-0.234-11.384 2.842-26.378 2.608-35.86 0.234-8.824-2.186-21.196-1.952-28.114-0.234-11.386 2.842-26.378 2.608-35.86 0.234-8.824-2.186-21.196-1.952-28.114-0.234-11.386 2.842-26.38 2.608-35.862 0.234-13.048-3.25-22.53-15.392-22.53-27.864v-50.26c0-13.642 12.168-23.208 25.452-19.866 8.824 2.186 21.194 1.952 28.114 0.234 11.384-2.842 26.378-2.608 35.86-0.234 8.824 2.186 21.194 1.952 28.114 0.234 11.386-2.842 26.378-2.608 35.86-0.234 8.824 2.186 21.196 1.952 28.114 0.234 11.386-2.842 26.38-2.608 35.862-0.234 8.824 2.186 21.194 1.952 28.112 0.234 11.386-2.842 26.38-2.608 35.862-0.234 8.84 2.186 21.202 1.952 28.12 0.234 11.386-2.842 26.366-2.608 35.846-0.234 8.856 2.186 21.194 1.952 28.114 0.234 11.416-2.842 26.378-2.608 35.86-0.234 8.856 2.186 21.194 1.952 28.114 0.234 11.418-2.842 26.38-2.608 35.86-0.234 8.858 2.186 21.196 1.952 28.114 0.234 11.418-2.842 26.38-2.608 35.862-0.234 8.856 2.186 21.194 1.952 28.114 0.234 2.826-0.702 4.7-0.936 6.542-0.936 11.324 0 19.868 8.84 19.868 20.568v50.26c0 12.472-9.464 24.606-21.57 27.628-5.698 1.422-11.9 2.078-18.414 2.078z m-31.986-19.43c6.514 0 12.714 0.656 17.448 1.844 8.856 2.186 21.194 1.952 28.114 0.234 5.918-1.476 10.416-7.248 10.416-12.354v-50.26c0-1.982-1.248-5.442-5.576-4.358-11.416 2.844-26.378 2.61-35.86 0.234-8.856-2.186-21.194-1.952-28.114-0.234-11.416 2.844-26.378 2.61-35.86 0.234-8.856-2.186-21.196-1.952-28.114-0.234-11.418 2.844-26.378 2.61-35.86 0.234-8.856-2.186-21.196-1.952-28.114-0.234-11.418 2.844-26.378 2.61-35.86 0.234-8.856-2.186-21.196-1.952-28.114-0.234-11.386 2.844-26.38 2.61-35.862 0.234-8.84-2.186-21.202-1.952-28.122-0.234-11.384 2.844-26.378 2.61-35.86 0.234-8.824-2.186-21.194-1.952-28.114-0.234-11.384 2.844-26.378 2.61-35.86 0.234-8.824-2.186-21.196-1.952-28.114-0.234-11.386 2.844-26.378 2.61-35.86 0.234-8.824-2.186-21.196-1.952-28.114-0.234-11.386 2.844-26.38 2.61-35.862 0.234-1.544-0.382-2.116-0.454-2.654-0.454-3.374 0-3.88 2.868-3.88 4.576v50.26c0 5.108 4.506 10.878 9.458 12.12 8.824 2.186 21.194 1.952 28.114 0.234 11.384-2.842 26.378-2.608 35.86-0.234 8.824 2.186 21.194 1.952 28.114 0.234 11.386-2.842 26.378-2.608 35.86-0.234 8.824 2.186 21.196 1.952 28.114 0.234 11.386-2.842 26.38-2.608 35.862-0.234 8.824 2.186 21.194 1.952 28.112 0.234 11.386-2.842 26.38-2.608 35.862-0.234 8.84 2.186 21.202 1.952 28.12 0.234 11.386-2.842 26.366-2.608 35.846-0.234 8.856 2.186 21.194 1.952 28.114 0.234 11.416-2.842 26.378-2.608 35.86-0.234 8.856 2.186 21.194 1.952 28.114 0.234 11.418-2.842 26.38-2.608 35.86-0.234 8.858 2.186 21.196 1.952 28.114 0.234 5.7-1.42 11.9-2.076 18.412-2.076z" fill="" /><path d="M767.89 405.656c-6.512 0-12.712-0.656-17.446-1.842-8.856-2.186-21.194-1.952-28.114-0.234-11.416 2.842-26.378 2.608-35.86 0.234-8.856-2.186-21.196-1.952-28.114-0.234-11.418 2.842-26.378 2.608-35.86 0.234-8.856-2.186-21.196-1.952-28.114-0.234-11.418 2.842-26.378 2.608-35.86 0.234-8.856-2.186-21.196-1.952-28.114-0.234-11.386 2.842-26.38 2.608-35.862 0.234-8.84-2.186-21.202-1.952-28.122-0.234-11.384 2.842-26.378 2.608-35.86 0.234-8.824-2.186-21.194-1.952-28.114-0.234-11.384 2.842-26.378 2.608-35.86 0.234-8.824-2.186-21.196-1.952-28.114-0.234-11.386 2.842-26.378 2.608-35.86 0.234-8.824-2.186-21.196-1.952-28.114-0.234-11.386 2.842-26.38 2.608-35.862 0.234-13.048-3.25-22.53-15.392-22.53-27.864v-50.26c0-13.642 12.168-23.208 25.452-19.866 8.824 2.186 21.194 1.952 28.114 0.234 11.384-2.842 26.378-2.608 35.86-0.234 8.824 2.186 21.194 1.952 28.114 0.234 11.386-2.842 26.378-2.608 35.86-0.234 8.824 2.186 21.196 1.952 28.114 0.234 11.386-2.842 26.38-2.608 35.862-0.234 8.824 2.186 21.194 1.952 28.112 0.234 11.386-2.842 26.38-2.608 35.862-0.234 8.84 2.186 21.202 1.952 28.12 0.234 11.386-2.842 26.366-2.608 35.846-0.234 8.856 2.186 21.194 1.952 28.114 0.234 11.416-2.842 26.378-2.608 35.86-0.234 8.856 2.186 21.194 1.952 28.114 0.234 11.418-2.842 26.38-2.608 35.86-0.234 8.858 2.186 21.196 1.952 28.114 0.234 11.418-2.842 26.38-2.608 35.862-0.234 8.856 2.186 21.194 1.952 28.114 0.234 2.826-0.702 4.7-0.936 6.542-0.936 11.324 0 19.868 8.84 19.868 20.568v50.26c0 12.472-9.464 24.606-21.57 27.628-5.698 1.422-11.9 2.078-18.414 2.078z m-31.986-19.43c6.514 0 12.714 0.656 17.448 1.844 8.856 2.186 21.194 1.952 28.114 0.234 5.918-1.476 10.416-7.248 10.416-12.354v-50.26c0-1.982-1.248-5.442-5.576-4.358-11.416 2.844-26.378 2.61-35.86 0.234-8.856-2.186-21.194-1.952-28.114-0.234-11.416 2.844-26.378 2.61-35.86 0.234-8.856-2.186-21.196-1.952-28.114-0.234-11.418 2.844-26.378 2.61-35.86 0.234-8.856-2.186-21.196-1.952-28.114-0.234-11.418 2.844-26.378 2.61-35.86 0.234-8.856-2.186-21.196-1.952-28.114-0.234-11.386 2.844-26.38 2.61-35.862 0.234-8.84-2.186-21.202-1.952-28.122-0.234-11.384 2.844-26.378 2.61-35.86 0.234-8.824-2.186-21.194-1.952-28.114-0.234-11.384 2.844-26.378 2.61-35.86 0.234-8.824-2.186-21.196-1.952-28.114-0.234-11.386 2.844-26.378 2.61-35.86 0.234-8.824-2.186-21.196-1.952-28.114-0.234-11.386 2.844-26.38 2.61-35.862 0.234-1.544-0.382-2.116-0.454-2.654-0.454-3.374 0-3.88 2.868-3.88 4.576v50.26c0 5.108 4.506 10.878 9.458 12.12 8.824 2.186 21.194 1.952 28.114 0.234 11.384-2.842 26.378-2.608 35.86-0.234 8.824 2.186 21.194 1.952 28.114 0.234 11.386-2.842 26.378-2.608 35.86-0.234 8.824 2.186 21.196 1.952 28.114 0.234 11.386-2.842 26.38-2.608 35.862-0.234 8.824 2.186 21.194 1.952 28.112 0.234 11.386-2.842 26.38-2.608 35.862-0.234 8.84 2.186 21.202 1.952 28.12 0.234 11.386-2.842 26.366-2.608 35.846-0.234 8.856 2.186 21.194 1.952 28.114 0.234 11.416-2.842 26.378-2.608 35.86-0.234 8.856 2.186 21.194 1.952 28.114 0.234 11.418-2.842 26.38-2.608 35.86-0.234 8.858 2.186 21.196 1.952 28.114 0.234 5.7-1.42 11.9-2.076 18.412-2.076z" fill="" /><path d="M232.61 319.972a7.992 7.992 0 0 1-7.982-7.7C217.592 123.618 368.014 29.908 498.964 6.98c162.908-28.528 356.922 33.556 412.492 207.412a8 8 0 0 1-5.186 10.05 7.968 7.968 0 0 1-10.058-5.178C843.422 54.14 657.812-4.594 501.722 22.73c-124.612 21.82-267.764 110.586-261.118 288.948a7.994 7.994 0 0 1-7.692 8.286c-0.1 0.008-0.202 0.008-0.302 0.008zM791.88 319.972a7.992 7.992 0 0 1-7.996-7.998v-47.98c0-4.42 3.576-7.998 7.996-7.998s7.998 3.578 7.998 7.998v47.98a7.994 7.994 0 0 1-7.998 7.998z" fill="" /><path d="M895.838 303.98c-26.458 0-47.98-21.522-47.98-47.98s21.524-47.978 47.98-47.978 47.98 21.522 47.98 47.978c0 26.458-21.524 47.98-47.98 47.98z m0-79.968c-17.648 0-31.986 14.346-31.986 31.986 0 17.642 14.338 31.988 31.986 31.988s31.986-14.346 31.986-31.988c0-17.64-14.338-31.986-31.986-31.986z" fill="" /><path d="M760.144 271.744c-0.75 0-1.532-0.11-2.31-0.336a7.994 7.994 0 0 1-5.342-9.964c0.328-1.108 8.464-27.308 35.422-40.388 21.46-10.442 48.2-9.472 79.404 2.826 4.108 1.624 6.124 6.264 4.498 10.372s-6.278 6.1-10.372 4.514c-26.864-10.614-49.276-11.722-66.548-3.326-20.71 10.05-27.038 30.4-27.1 30.612a7.986 7.986 0 0 1-7.652 5.69z" fill="" /><path d="M511.992 991.69a7.99 7.99 0 0 1-1.438-15.852c1.234-0.234 124.862-24.286 198.362-140.362 73.284-115.764 54.166-195.122 53.978-195.902-1.094-4.28 1.466-8.636 5.714-9.746 4.328-1.046 8.622 1.452 9.746 5.702 0.906 3.466 21.414 86.354-55.946 208.506-77.342 122.182-203.632 146.546-208.966 147.532a7.99 7.99 0 0 1-1.45 0.122z" fill="" /><path d="M512.008 991.69c-0.476 0-0.96-0.032-1.454-0.124-5.334-0.984-131.618-25.35-208.974-147.532-77.35-122.152-56.852-205.04-55.938-208.506 1.118-4.25 5.444-6.764 9.738-5.702a8.014 8.014 0 0 1 5.732 9.746c-0.204 0.782-19.32 80.138 53.976 195.902 73.492 116.076 197.122 140.126 198.354 140.362a8 8 0 0 1 6.42 9.308 7.986 7.986 0 0 1-7.854 6.546z" fill="" /><path d="M788.29 495.9a8.004 8.004 0 0 1-7.904-9.2 313.386 313.386 0 0 0 3.498-46.778c0-5.466-0.14-10.746-0.344-15.642a7.982 7.982 0 0 1 7.624-8.34c4.684-0.094 8.152 3.24 8.34 7.636 0.234 5.116 0.376 10.628 0.376 16.346 0 16.594-1.25 33.142-3.688 49.182a7.984 7.984 0 0 1-7.902 6.796z" fill="" /><path d="M235.702 495.9a7.994 7.994 0 0 1-7.894-6.794 327.324 327.324 0 0 1-3.686-49.182c0-5.716 0.14-11.23 0.366-16.346 0.196-4.396 3.742-7.7 8.342-7.636a7.996 7.996 0 0 1 7.636 8.34 366.064 366.064 0 0 0-0.352 15.642c0 15.79 1.18 31.526 3.498 46.778a7.992 7.992 0 0 1-7.91 9.198z" fill="" /><path d="M512 959.704a7.992 7.992 0 0 1-7.998-7.996v-239.9a7.992 7.992 0 0 1 7.998-7.996 7.992 7.992 0 0 1 7.996 7.996v239.9a7.994 7.994 0 0 1-7.996 7.996z" fill="" /><path d="M622.204 911.722a7.8 7.8 0 0 1-2.782-0.5 7.984 7.984 0 0 1-4.714-10.278c36.954-99.458-21.118-167.678-59.024-199.492a7.996 7.996 0 0 1 10.278-12.246c41.124 34.518 104.098 108.658 63.738 217.316a7.98 7.98 0 0 1-7.496 5.2z" fill="" /><path d="M725.504 767.784a7.97 7.97 0 0 1-7.154-4.42c-7.872-15.758-22.302-30.72-42.888-44.45a8.012 8.012 0 0 1-2.202-11.09 8.026 8.026 0 0 1 11.104-2.216c22.898 15.304 39.14 32.33 48.292 50.604a8 8 0 0 1-7.152 11.572z" fill="" /><path d="M401.788 911.722a7.988 7.988 0 0 1-7.496-5.2c-40.366-108.658 22.608-182.798 63.738-217.316a7.996 7.996 0 0 1 11.262 0.984 7.984 7.984 0 0 1-0.984 11.262c-37.898 31.814-95.966 100.036-59.022 199.492a7.99 7.99 0 0 1-7.498 10.778z" fill="" /><path d="M298.488 767.784a7.996 7.996 0 0 1-7.146-11.572c9.136-18.274 25.38-35.298 48.292-50.604a8.02 8.02 0 0 1 11.096 2.216 8 8 0 0 1-2.208 11.09c-20.578 13.728-34.994 28.692-42.874 44.45a7.972 7.972 0 0 1-7.16 4.42z" fill="" /><path d="M599.96 1023.676a7.992 7.992 0 0 1-7.996-7.996v-31.986a7.994 7.994 0 0 1 7.996-7.998 7.994 7.994 0 0 1 7.998 7.998v31.986a7.992 7.992 0 0 1-7.998 7.996z" fill="" /><path d="M424.038 1023.676a7.992 7.992 0 0 1-7.998-7.996v-31.986c0-4.42 3.578-7.998 7.998-7.998s7.996 3.578 7.996 7.998v31.986a7.99 7.99 0 0 1-7.996 7.996z" fill="" /></svg>